<svg width="171" height="197" viewBox="0 0 171 197" fill="none" xmlns="http://www.w3.org/2000/svg">
<g clip-path="url(#clip0_117_78)" filter="url(#filter0_d_117_78)">
<path d="M133.304 29.0265C131.599 28.985 129.4 30.8001 128.568 32.8793C128.372 33.3739 128.103 34.9022 127.96 36.3042C127.817 37.7063 127.509 39.517 127.284 40.3495C126.784 42.1153 123.477 48.9951 122.933 49.4048C122.49 49.7386 122.49 49.7386 120.747 46.0013C120.18 44.7875 119.193 43.1006 118.576 42.2399C117.594 40.8959 117.205 40.5892 115.943 39.9618C112.814 38.4059 110.281 39.778 112.323 41.9011C112.762 42.3589 114.171 43.349 115.454 44.0873C118.397 45.8151 120.12 47.2633 121.359 49.0756L122.351 50.475L121.11 52.6409C119.865 54.842 118.151 57.4274 117.688 57.7764C117.507 57.9129 117.365 57.767 117.142 57.1776C116.361 55.1777 113.885 52.6875 111.149 51.1509C108.428 49.6343 105.83 49.2873 105.318 50.3675C104.802 51.4829 105.988 52.3878 109.723 53.7407C113.558 55.1437 115.532 56.4653 116.413 58.1372L116.839 58.9531L114.933 61.1154C113.866 62.2977 112.071 64.4396 110.945 65.9194C109.276 68.061 108.793 68.5512 108.485 68.4359C108.299 68.3557 106.812 66.5086 105.209 64.3392C102.432 60.5287 102.26 60.3425 101.023 59.6646C98.7164 58.4043 96.1457 58.7631 96.3811 60.2903C96.5395 61.2126 97.4286 61.9316 100.942 63.8295C102.714 64.7986 104.698 66.0496 105.36 66.5926C106.977 67.8999 108.245 69.2483 108.155 69.5056C108.105 69.6066 106.847 70.996 105.349 72.5674C102.225 75.8367 99.1555 78.5916 98.9582 78.3299C98.23 77.3634 94.0256 73.2083 93.2075 72.6253C92.6318 72.2383 91.4256 71.7268 90.5024 71.507C89.2866 71.1921 88.6808 70.891 88.0693 70.247C87.0635 69.2056 84.9736 68.0658 83.435 67.7416C81.9318 67.4223 80.1026 67.8853 79.7212 68.6777C78.7579 70.7925 81.7559 72.1319 87.3826 72.0587C91.6733 72.0136 92.6376 72.5812 97.3736 77.6931L98.4199 78.8303L97.761 79.5477C97.3837 79.9267 95.7581 81.2464 94.1474 82.4601L91.1878 84.6904L88.5736 81.3888C86.2021 78.4093 85.7624 77.9514 84.0859 76.8157C82.0811 75.4539 79.7343 74.476 77.7018 74.2084C76.2038 73.9798 75.645 74.3694 76.1865 75.2555C76.7079 76.1569 78.2126 77.1064 82.3062 79.1038C84.3101 80.0875 86.3546 81.1669 86.8293 81.5036C87.304 81.8404 87.819 82.1468 88.0107 82.1917C88.1872 82.2165 88.7988 82.8605 89.3601 83.6055L90.3918 84.9745L89.7475 85.46C88.9673 86.0164 86.4596 87.4642 84.4402 88.5124L83.025 89.2316L81.5332 87.2938C78.757 83.7354 75.4635 81.0404 72.7185 80.0785C71.6891 79.7178 71.2251 79.6886 70.8426 79.9769C70.4198 80.2955 70.395 80.472 70.7947 81.0863C71.4981 82.2292 72.8061 83.1691 76.5266 85.1321C80.1107 87.0399 82.2068 88.6486 82.1026 89.39C82.058 89.7078 80.7791 90.4821 76.8662 92.5784C74.0209 94.1227 71.5784 95.3635 71.4573 95.3285C71.3514 95.3136 70.1969 93.1532 68.9304 90.509C66.0175 84.4652 65.4506 83.5034 64.1067 82.3065C62.3739 80.8029 61.1592 80.9922 61.1582 82.7922C61.1762 84.0728 62.7544 86.2928 65.9481 89.4418C68.1766 91.6452 68.7024 92.2591 69.6591 93.9057C70.2514 94.943 70.7374 95.8394 70.7173 95.8545C70.7123 95.8898 68.9496 96.7762 66.7991 97.8601C62.0952 100.205 57.3706 102.313 57.234 102.132C57.1733 102.052 57.0765 101.588 57.0351 101.114C56.9108 99.6926 56.1748 97.501 54.6743 93.9599C52.2612 88.2023 51.1026 86.4554 50.0703 87.0123C49.33 87.4123 49.7662 88.5357 51.9871 91.8181C53.1001 93.5046 54.2138 95.4433 54.4624 96.1083C54.706 96.8085 55.1112 97.6396 55.3691 97.9818C55.9305 98.7268 56.5629 101.912 56.2615 102.392C55.8244 103.068 46.4898 106.725 46.1864 106.322C46.1257 106.242 46.1248 105.863 46.1995 105.46C46.384 104.532 46.35 100.675 46.1447 99.0616C45.9137 97.247 45.0516 95.0557 43.9592 93.6061C42.1386 91.19 39.748 90.908 39.7076 93.1165C39.6641 93.9385 39.7654 94.1147 41.2767 95.7853C43.8142 98.6081 44.644 99.8768 44.9952 101.348C45.6265 104.029 45.5103 106.137 44.7403 106.749C44.1765 107.174 36.8857 109.353 31.7053 110.605C29.1303 111.252 28.2488 111.632 28.6932 111.928C29.0871 112.2 34.9777 110.633 44.435 107.768L50.2244 106.025L52.0427 107.433C53.7802 108.775 54.0886 109.143 57.7654 114.106C62.0188 119.834 62.4483 120.236 63.4952 119.447C64.4012 118.765 63.9902 117.591 61.8763 114.828C60.1873 112.628 59.8234 112.271 57.4499 110.587C54.4904 108.461 51.1922 105.927 51.2322 105.771C51.2421 105.7 53.4685 104.717 56.1885 103.551L61.125 101.473L63.2602 102.547L65.3905 103.657L66.7466 105.791C70.1368 111.128 72.396 113.498 74.4338 113.856C75.6645 114.065 76.4244 113.398 76.21 112.234C75.9804 111.049 73.543 107.899 71.7853 106.571C71.0378 105.998 68.68 104.587 66.5194 103.437C64.3588 102.287 62.4859 101.268 62.3344 101.193C62.183 101.118 64.2325 99.9836 67.0177 98.6108C71.9331 96.1694 71.9684 96.1744 72.7256 96.5508C75.0528 97.796 75.6188 98.3796 79.9425 103.992C84.3067 109.699 85.3125 110.741 86.856 111.03C88.2936 111.304 89.2177 109.723 88.7244 107.854C88.4093 106.766 86.3209 104.078 84.6893 102.751C82.5322 100.935 78.614 98.4585 75.6157 96.993L72.8546 95.6329L73.5899 95.2682C74.2698 94.9137 78.1474 92.8125 81.7128 90.8833C82.4329 90.4985 83.0725 90.1744 83.1583 90.2044C83.4407 90.2441 86.7378 92.2736 86.935 92.5354C87.0564 92.6964 87.7989 93.3048 88.5465 93.8779C89.3293 94.456 91.0213 95.7379 92.3042 96.7282C96.1075 99.6389 97.6469 100.341 98.6536 99.5827C99.3985 99.0214 99.346 98.1139 98.4964 96.9864C97.5254 95.6979 96.117 94.9599 91.6665 93.4523C88.4371 92.3504 84.202 90.2071 84.2714 89.7128C84.2662 89.6221 85.5098 88.8428 87.0155 87.9923C88.5211 87.1418 90.1677 86.1851 90.6762 85.8966C91.5575 85.3904 91.7742 85.3849 94.5745 86.2104C96.6683 86.8107 98.147 87.4326 99.7071 88.3719C100.919 89.1002 102.595 89.9838 103.448 90.3197C106.087 91.3927 109.072 91.4162 110.421 90.3997C111.971 89.2314 109.256 87.9317 103.582 87.1883C99.7839 86.6726 96.8985 86.069 93.5282 85.0733L92.4232 84.738L95.9413 81.9922C98.4277 80.0554 99.7014 79.1904 100.185 79.0783C100.593 78.9917 102.157 79.1394 103.685 79.4082C105.723 79.7666 106.737 80.1072 107.454 80.64C109.671 82.2837 113.446 83.4802 116.759 83.6037C118.836 83.6797 119.476 83.3556 118.854 82.5301C117.852 81.2013 114.497 80.0996 110.8 79.8862C109.62 79.8284 107.472 79.4904 106.009 79.1408C104.566 78.776 102.795 78.4371 102.084 78.3732L100.788 78.245L103.394 75.7131C104.813 74.3283 106.704 72.398 107.585 71.3876C109.189 69.5789 109.209 69.5637 110.157 69.4809C110.686 69.4293 113.98 69.9462 117.505 70.6037C126.126 72.2833 126.535 72.3227 128.021 71.7395C129.562 71.1461 129.296 69.5786 127.52 68.7709C124.794 67.5418 121.552 67.4281 117.415 68.4308C114.956 69.0212 114.028 69.0889 112.202 68.8863C110.997 68.7529 110.039 68.5282 110.069 68.4424C110.254 68.0185 113.397 64.1038 115.71 61.4767L118.224 58.5718L119.721 58.2961C121.46 57.9644 121.929 58.0844 126.587 59.9091C130.544 61.4732 131.87 61.7677 133.488 61.401C134.456 61.177 134.672 61.0454 134.968 60.475C135.882 58.7132 133.812 57.6843 129.128 57.584C127.978 57.5664 125.543 57.4762 123.722 57.3643C121.917 57.2726 120.112 57.307 119.699 57.4289C118.984 57.6524 119.029 57.5868 120.27 55.673C120.999 54.5873 121.822 53.209 122.103 52.6184C122.384 52.0279 122.756 51.4321 122.917 51.3107C123.098 51.1741 124.7 50.5352 126.504 49.8706C134.212 47.0296 137.056 45.1071 135.873 43.5367C135.584 43.1542 135.246 43.1247 134.264 43.3286C132.046 43.8631 129.599 45.2653 126.469 47.8135C124.249 49.6438 123.696 49.998 123.962 49.5134C125.503 46.6157 126.281 45.0509 127.405 42.5627C129.426 38.0404 129.874 37.2932 132.091 34.5806C133.242 33.1763 134.308 31.6159 134.488 31.1012C134.914 29.8649 134.433 29.0593 133.304 29.0265ZM133.5 31.3404C133.184 31.926 132.139 33.3452 131.203 34.4918C130.233 35.6335 129.288 36.8508 129.077 37.1992C128.73 37.7445 128.675 37.7547 128.613 37.296C128.505 36.5249 129.068 33.5437 129.53 32.5645C129.791 31.9892 130.364 31.3677 131.149 30.776C133.284 29.1678 134.555 29.4724 133.5 31.3404ZM134.913 44.986C134.194 45.7489 133.609 46.0629 129.504 47.8621C127.091 48.8911 126.507 49.079 126.799 48.6699C128.322 46.6698 134.722 43.2671 135.375 44.1328C135.451 44.2335 135.235 44.6172 134.913 44.986ZM134.342 60.189C134.041 60.6687 132.559 60.9645 131.399 60.7654C130.31 60.5763 124.213 58.2254 124.879 58.2289C128.686 58.2959 132.433 58.5345 133.089 58.7347C134.093 59.0198 134.664 59.6941 134.342 60.189ZM119.581 45.3334L119.956 46.1241L118.759 45.2899C118.082 44.8527 116.547 43.863 115.305 43.0943C112.932 41.6628 112.139 40.9032 112.465 40.3731C112.973 39.5803 115.298 40.0691 116.783 41.2859C117.556 41.9346 118.892 43.8324 119.581 45.3334ZM128.003 70.837C127.762 71.0191 127.122 71.2172 126.578 71.2486C125.393 71.3522 116.707 69.7534 116.908 69.4756C116.978 69.3595 118.011 69.0546 119.175 68.8402C120.642 68.5243 122.069 68.4908 123.678 68.6989C127.006 69.0947 128.99 70.0936 128.003 70.837ZM113.99 54.7545C113.359 54.3778 111.785 53.6704 110.483 53.1994C107.551 52.1574 106.708 51.7509 106.298 51.2072C105.464 50.0999 108.036 50.3714 110.479 51.6868C112.17 52.5906 114.014 53.9477 114.681 54.8336C115.091 55.3772 115.02 55.3673 113.99 54.7545ZM104.337 64.5227C104.403 64.82 104.368 64.9411 104.247 64.78C104.12 64.6542 102.722 63.8457 101.147 63.0123C97.8456 61.2702 96.9364 60.5663 97.2629 60.0362C97.7905 59.2283 99.6771 59.6374 101.495 60.919C102.505 61.673 104.144 63.7214 104.337 64.5227ZM117.906 82.865C117.826 82.9257 116.53 82.7975 115.067 82.574C112.248 82.1417 110.154 81.5414 109.24 80.8729C108.795 80.5764 109.037 80.5204 110.676 80.6428C113.44 80.8331 114.368 81.0176 116.19 81.7597C117.86 82.4265 118.188 82.6526 117.906 82.865ZM108.661 90.2423C106.62 90.6755 103.79 89.9357 101.139 88.3031L99.8968 87.5345L102.595 87.8057C105.565 88.0611 107.154 88.4104 108.87 89.1376C110.157 89.7145 110.107 89.9416 108.661 90.2423ZM87.7386 71.1906C87.4568 71.403 84.1439 71.2795 82.9382 71.02C81.1575 70.6257 80.2688 70.0328 80.3832 69.3468C80.5023 68.4995 82.0493 68.1229 83.6083 68.558C85.2884 69.0281 88.1615 70.872 87.7386 71.1906ZM83.3794 78.7686C79.7199 77.0122 76.9078 75.3749 76.9574 75.0218C77.012 74.6335 80.0593 75.4938 81.8059 76.3873C83.4515 77.2306 85.8102 79.0202 86.6849 80.0972C86.8871 80.3237 85.4034 79.7371 83.3794 78.7686ZM98.1628 98.8477C97.5387 99.318 96.1557 98.6556 93.3727 96.5544C89.3019 93.4981 89.3171 93.5182 91.5422 94.2089C92.632 94.5241 94.3377 95.1959 95.4027 95.6876C96.9371 96.4253 97.4069 96.7973 97.928 97.5726C98.4642 98.368 98.5051 98.5898 98.1628 98.8477ZM77.1303 84.5509C74.8994 83.5173 72.1929 81.7688 71.6467 81.044C71.1813 80.3845 71.1813 80.3845 71.7716 80.5395C73.6282 81.0345 77.072 83.3006 78.1693 84.7149C78.4728 85.1176 78.2458 85.0677 77.1303 84.5509ZM88.0151 108.546C88.3316 110.265 87.0821 110.701 85.501 109.399C84.2534 108.414 80.2235 103.401 78.5689 100.828L77.137 98.5929L79.3635 99.9139C84.0439 102.732 87.5965 106.273 88.0151 108.546ZM66.9332 88.0682C67.4347 89.1107 67.8199 89.9569 67.7644 89.9671C67.4467 89.9225 64.1365 86.577 63.2718 85.4294C62.1642 83.9596 61.5755 82.2568 62.0692 82.0741C63.0516 81.7442 65.1045 84.3009 66.9332 88.0682ZM75.4344 112.629C75.3498 113.103 75.2692 113.164 74.6842 113.099C73.3881 112.971 71.8726 111.714 70.0164 109.167C69.0606 107.899 68.0689 106.373 67.7903 105.794L67.3089 104.736L68.6467 105.464C70.0198 106.197 71.9945 107.645 73.0052 108.651C74.0462 109.697 75.4936 112.079 75.4344 112.629ZM52.489 90.8085C52.6818 91.3577 52.6162 91.3124 52.1003 90.6279C51.7464 90.2001 51.2808 89.4146 51.0275 88.911C50.6019 87.9691 50.6019 87.9691 51.4363 89.0765C51.8915 89.6805 52.3571 90.466 52.489 90.8085ZM62.8152 117.498C63.2108 118.525 63.1162 119.07 62.551 118.865C62.1069 118.694 59.0119 114.587 57.7112 112.442L56.8459 111.042L58.2502 112.194C59.0432 112.827 59.8313 113.496 60.0384 113.687C60.8265 114.356 62.4703 116.621 62.8152 117.498ZM44.8189 96.9671C45.8287 99.7733 45.6323 99.8897 43.7717 97.63C40.4902 93.5686 40.3233 93.3471 40.4887 92.9383C41.0852 91.384 43.6823 93.7832 44.8189 96.9671Z" fill="black" fill-opacity="0.79"/>
</g>
<defs>
<filter id="filter0_d_117_78" x="-2" y="0" width="180.924" height="235.123" filterUnits="userSpaceOnUse" color-interpolation-filters="sRGB">
<feFlood flood-opacity="0" result="BackgroundImageFix"/>
<feColorMatrix in="SourceAlpha" type="matrix" values="0 0 0 0 0 0 0 0 0 0 0 0 0 0 0 0 0 0 127 0" result="hardAlpha"/>
<feOffset dx="3" dy="72"/>
<feGaussianBlur stdDeviation="2.5"/>
<feComposite in2="hardAlpha" operator="out"/>
<feColorMatrix type="matrix" values="0 0 0 0 0 0 0 0 0 0 0 0 0 0 0 0 0 0 0.25 0"/>
<feBlend mode="normal" in2="BackgroundImageFix" result="effect1_dropShadow_117_78"/>
<feBlend mode="normal" in="SourceGraphic" in2="effect1_dropShadow_117_78" result="shape"/>
</filter>
<clipPath id="clip0_117_78">
<rect width="84.958" height="150" fill="white" transform="translate(119.795) rotate(53)"/>
</clipPath>
</defs>
</svg>
