<svg width="116" height="300" viewBox="0 0 116 300" fill="none" xmlns="http://www.w3.org/2000/svg">
<path d="M64.9988 0.171356C64.1095 0.436279 63.1822 1.28781 62.3118 2.6124C61.1575 4.37222 60.6844 4.90207 58.4326 6.7565C56.3322 8.51633 55.1401 9.99231 54.7805 11.2791C54.5913 12.017 54.5156 12.0927 53.9668 12.0927C51.8853 12.0927 50.5229 12.8118 50.0877 14.1364C49.766 15.0826 49.993 17.1451 50.5986 18.9617C51.0149 20.2296 51.2798 20.6648 52.0556 21.4028C53.3045 22.6328 54.5345 23.2194 56.3511 23.4843C57.6379 23.6546 58.1866 23.6357 59.9086 23.3518C61.025 23.1626 62.3875 22.8409 62.9552 22.6517C63.5229 22.4624 64.4312 22.3111 64.9988 22.3111H66.0017V23.068C66.0017 23.7113 66.0774 23.8627 66.4937 24.0141C66.7587 24.1277 67.156 24.2033 67.3831 24.2033C67.8751 24.2033 68.8591 25.6415 69.862 27.7987C70.846 29.937 73.0978 36.3707 74.1575 40.0985C74.6873 41.9151 75.4442 44.394 75.8605 45.5861C76.8445 48.4245 79.1531 56.7695 79.5126 58.8321C79.9668 61.3867 80.5345 66.4769 81.14 73.5919C81.5941 78.701 81.5941 78.8713 81.14 77.6414C80.9508 77.0926 80.1939 75.3706 79.4559 73.8189C78.1313 70.9995 78.1313 70.9616 78.3962 70.2993C78.7179 69.5424 78.7746 68.1989 78.4908 68.3881C78.3962 68.4449 78.3016 68.7098 78.3016 68.9558C78.3016 69.2018 78.207 69.637 78.0934 69.9208C77.9042 70.4507 77.9042 70.4507 77.1473 69.0504C76.731 68.2746 76.2011 67.4041 75.993 67.1203C75.6335 66.6094 75.6335 66.5337 75.9173 65.701C76.2579 64.6792 76.3147 62.5599 76.0119 61.6894C75.747 60.9514 75.3496 60.8757 75.5767 61.6137C75.8227 62.3706 75.7848 65.2848 75.5388 65.72C75.3496 66.0228 75.2361 65.9092 74.6116 64.7738C74.2142 64.0548 73.4952 62.8816 73.0221 62.1625L72.1517 60.8568L72.1327 58.3779C72.1327 56.2775 72.076 55.7666 71.7354 55.0286C71.3569 54.196 70.9217 53.6851 70.9217 54.0635C70.9217 54.1581 71.092 54.6312 71.3001 55.0854C71.7543 56.1261 71.9246 57.6778 71.7164 58.9267L71.5651 59.8728L70.108 57.6399C68.878 55.8044 68.6699 55.3692 68.8402 55.0664C69.2375 54.3284 69.0672 52.7957 68.4617 51.5657C68.14 50.9413 67.7616 50.2411 67.6102 50.0519C67.2317 49.5599 66.9857 49.8437 67.3263 50.3736C68.159 51.6414 68.6509 52.8903 68.6509 53.704C68.6509 55.3124 68.4239 55.2178 66.9479 53.0228C66.191 51.9063 65.3205 50.7142 65.0367 50.4114C64.5447 49.8816 64.5258 49.787 64.6961 48.9922C64.9231 48.0461 64.7907 46.1538 64.469 45.5672C64.1284 44.9238 64.0527 45.3023 64.2987 46.4376C64.4312 47.0432 64.469 47.9136 64.3933 48.4624C64.223 49.6167 64.0905 49.522 63.0309 47.5919C62.3496 46.343 61.8387 45.8132 61.8387 46.3809C61.8387 46.5133 62.1415 47.1756 62.501 47.8379L63.1444 49.0301L62.3496 48.9165C60.9115 48.6895 60.1546 48.4245 59.568 47.9136C58.9057 47.3649 58.5651 47.4595 59.1138 48.065C59.6626 48.6705 60.2681 48.9165 62.028 49.2761C63.5985 49.5977 63.6553 49.6167 64.4312 50.5817C64.8475 51.1116 65.7747 52.3983 66.4937 53.4202L67.7616 55.2935L66.683 55.18C65.3962 55.0475 63.4282 54.1771 62.7281 53.4202C62.3307 52.9849 62.2172 52.9471 62.2172 53.212C62.2172 54.1014 64.7528 55.426 66.7776 55.5773L68.0833 55.672L70.354 59.1538C71.6218 61.0839 72.6247 62.6923 72.568 62.7302C72.3409 62.9572 70.0512 61.9165 69.37 61.2731C68.5185 60.4784 68.2346 60.4405 68.7266 61.1974C69.1429 61.8408 70.7892 62.7491 72.0192 63.0329L73.0221 63.2411L74.0818 65.0198C74.6684 65.9849 75.1036 66.8364 75.0469 66.8743C74.9901 66.931 74.5738 66.8364 74.1196 66.685C73.1924 66.3444 71.8111 65.1145 71.4704 64.2818C71.2244 63.6574 70.8271 63.5628 71.0352 64.1683C71.4515 65.5118 73.0032 66.8553 74.517 67.2149C75.7659 67.4987 75.8227 67.5933 78.5097 73.2134C81.0265 78.455 81.6131 80.3095 81.5941 82.9587C81.5941 85.4375 81.1778 94.3313 80.9318 96.8669C80.7426 98.9484 80.156 105.363 79.7965 109.261C79.3423 114.314 78.8503 117.379 77.6204 123.075C76.239 129.395 75.1982 132.858 73.1546 137.892C72.2274 140.181 71.9246 140.749 71.6786 140.654C69.5971 139.784 66.6073 139.273 62.501 139.084L59.8708 138.97L59.6248 138.138C59.2085 136.718 58.8111 133.274 58.8111 131.212C58.8111 128.714 59.0382 127.995 61.3089 123.359C62.255 121.429 63.1822 119.499 63.3715 119.082C63.6932 118.306 63.7121 118.306 64.7907 118.212C65.7558 118.136 65.945 118.042 66.6073 117.341C67.0047 116.906 67.3263 116.414 67.3263 116.244C67.3263 116.055 67.0047 116.282 66.4181 116.906C65.6044 117.777 65.4341 117.871 64.715 117.871C64.2798 117.871 63.9202 117.852 63.9202 117.814C63.9202 117.417 64.6961 115.714 65.2638 114.863L66.0017 113.746L66.8344 113.841C68.0076 113.973 68.5374 113.803 69.4079 113.027C70.4486 112.081 70.354 111.835 69.2754 112.667C68.8023 113.027 68.2157 113.387 67.9697 113.443C67.3453 113.595 66.4748 113.462 66.4748 113.178C66.4748 113.046 67.1939 111.967 68.0833 110.775C69.6728 108.637 69.7106 108.599 70.4675 108.599C71.2623 108.599 72.568 107.899 73.2681 107.104C73.8358 106.461 73.5141 106.461 72.7004 107.104C72.303 107.426 71.7354 107.804 71.4515 107.956C70.9595 108.221 70.1648 108.315 70.1648 108.126C70.1648 108.069 70.8081 107.18 71.6029 106.158C72.3977 105.117 73.0032 104.171 72.9653 104.039C72.9275 103.906 72.2084 104.682 71.3948 105.761C70.0134 107.577 69.8809 107.71 69.7674 107.274C69.5214 106.423 69.5971 105.307 69.9755 104.247C70.354 103.149 70.3161 102.79 69.8809 103.376C69.3889 104.02 69.1429 105.761 69.3511 106.991C69.5592 108.24 69.5403 108.315 68.0833 110.113C67.7048 110.586 66.929 111.646 66.3802 112.478C65.2259 114.181 64.9799 114.503 65.1313 114.087C65.1881 113.935 65.5287 112.743 65.8882 111.438C66.664 108.618 67.0803 106.177 67.2507 103.49C67.3642 101.787 67.4399 101.408 67.8373 100.879C68.0833 100.557 68.4239 99.9703 68.5752 99.6107C68.878 98.8538 68.9348 97.9266 68.6509 98.0969C68.5563 98.1537 68.4617 98.3618 68.4617 98.5511C68.4617 98.7214 68.2346 99.3269 67.9697 99.8757C67.421 100.973 67.1371 100.916 67.1371 99.6486C67.1371 99.1944 67.0425 98.9484 66.8911 98.9484C66.683 98.9484 66.6262 99.5729 66.6451 102.052C66.6451 103.774 66.5884 105.231 66.5127 105.307C66.0964 105.723 64.8664 103.585 64.8664 102.43C64.8664 102.184 64.7718 101.938 64.6393 101.863C64.3365 101.673 64.5825 103.49 64.9799 104.285C65.1502 104.625 65.5476 105.174 65.8504 105.515L66.437 106.12L66.1342 107.785C65.9639 108.694 65.7179 109.829 65.5854 110.283L65.3394 111.116L64.6961 110.567C64.3365 110.283 63.9392 109.753 63.8067 109.413C63.6553 109.072 63.4472 108.788 63.3526 108.788C62.9741 108.788 63.7499 110.226 64.4879 110.87L65.2448 111.532L64.4879 113.992C63.4472 117.398 62.8984 118.742 60.8358 122.924C59.0949 126.443 59.0382 126.538 58.9246 125.857C58.6597 124.248 58.7732 123.832 60.1546 121.296C61.8198 118.193 62.274 116.982 62.2929 115.411C62.3118 114.427 62.2361 114.068 61.8955 113.595C61.4981 113.046 61.4981 112.989 61.782 112.592C62.3496 111.778 61.7441 111.759 59.3409 112.516C58.8678 112.649 58.8868 112.005 59.4545 107.558C60.2303 101.522 60.8737 96.1289 61.0818 93.8393C61.1954 92.6471 61.4224 90.6224 61.5927 89.3546L61.8955 87.046L62.7281 86.4783C63.1822 86.1566 63.6175 85.7403 63.6742 85.5511C63.7499 85.3808 64.3744 84.6617 65.0935 83.9805C65.945 83.1668 66.5505 82.3531 66.8911 81.6151C67.3831 80.5744 67.421 80.3284 67.421 78.0387C67.421 75.768 67.3831 75.4841 66.9479 74.6326C66.6073 73.9703 66.2477 73.5919 65.7747 73.3459C65.1124 73.0242 65.0367 73.0242 64.4122 73.308C64.0527 73.4783 63.5229 73.8379 63.2579 74.0839L62.747 74.538L62.1793 74.0649C61.3467 73.3648 60.9494 73.4594 59.8329 74.5948C57.6568 76.8655 57.4865 80.0067 59.3788 83.4128C59.6815 83.9805 59.9464 84.6239 59.9464 84.8509C59.9464 85.0591 60.2681 85.57 60.6655 85.9485L61.3846 86.6486L61.0629 88.8815C60.8737 90.0926 60.5898 92.5336 60.4195 94.3123C60.2492 96.0722 60.0411 98.1158 59.9275 98.816C59.8329 99.535 59.5301 101.957 59.2841 104.209C59.0192 106.48 58.7165 108.826 58.6408 109.451C58.5462 110.075 58.4137 111.154 58.338 111.854C58.2245 113.046 58.1866 113.122 57.4865 113.595C57.0702 113.86 56.6728 114.087 56.5971 114.087C56.5025 114.087 56.2565 113.292 56.0105 112.327C55.7834 111.381 54.7805 108.164 53.7965 105.193C52.8315 102.222 51.6772 98.6457 51.242 97.2454C50.8067 95.8451 49.8984 92.9877 49.2172 90.9062C48.5549 88.8247 47.2682 84.2265 46.3977 80.6879C44.7514 74.1406 43.1619 68.3503 42.6699 67.177C42.4618 66.685 42.4428 66.4012 42.5942 66.0795C42.7267 65.7578 42.7078 65.5497 42.4618 65.1712C42.2725 64.8874 42.159 64.6414 42.1968 64.6035C42.2347 64.5846 42.6888 64.3386 43.1998 64.0737C44.127 63.5817 48.1008 59.7593 48.5549 58.8888C48.8388 58.359 48.8388 56.4289 48.5738 55.6152C48.3468 54.9718 47.5142 54.4798 46.6248 54.4798C46.2274 54.4798 46.1139 54.3474 45.9436 53.704C45.5651 52.3037 44.8082 50.9413 43.6917 49.6545C42.2536 48.0082 41.7238 47.6676 40.5316 47.6676C39.7369 47.6676 39.4909 47.7622 39.0935 48.1785C38.6015 48.6895 37.6175 50.5817 37.6175 50.998C37.6175 51.1494 36.9363 51.1873 35.2143 51.1305C32.9436 51.0359 32.7544 51.0548 32.2813 51.4333C30.9756 52.474 30.3322 55.1232 30.4647 59.0024C30.5972 62.4842 30.9567 63.3357 32.6976 64.2251C33.833 64.7928 35.2143 65.0766 37.5797 65.2091C39.3017 65.3037 39.5098 65.3604 39.5098 65.6821C39.5098 66.2498 40.3613 66.95 41.2129 67.0824C41.8373 67.177 42.0455 67.3284 42.1779 67.7069C42.7645 69.2207 43.9188 73.3837 45.5651 79.931C46.5869 83.9805 47.9305 88.8815 48.5549 90.8116C49.1794 92.7418 50.1444 95.7126 50.6743 97.4346C51.2041 99.1566 52.4341 102.979 53.4181 105.95C54.3831 108.921 55.3671 112.081 55.5753 113.008L55.9727 114.654L55.2536 115.317C54.8751 115.676 54.5156 115.979 54.4588 115.979C54.4021 115.979 54.1182 115.487 53.8155 114.9C52.945 113.141 51.1284 110.359 49.5767 108.429C47.6466 106.044 43.8431 102.127 43.0295 101.692C42.2536 101.276 41.8373 101.503 42.5375 101.938C43.2944 102.392 47.3628 106.65 49.028 108.694C50.8446 110.964 52.3016 113.178 53.2288 115.052L53.8911 116.433L53.1153 117.228C52.5666 117.777 51.7718 118.269 50.504 118.817C48.536 119.688 46.7194 120.785 44.865 122.242C44.2027 122.753 42.5564 123.927 41.175 124.854C39.7937 125.762 37.5608 127.295 36.1983 128.26C33.341 130.266 33.7762 130.436 32.4516 126.765C28.913 116.944 28.0993 112.024 28.0804 100.538L28.0615 94.2745L28.7616 93.1391C29.159 92.4958 29.4807 91.8524 29.4807 91.6821C29.4807 91.5118 29.7835 90.6602 30.143 89.7898C30.9188 87.9164 31.4487 85.0969 31.2784 83.8102C31.127 82.6748 30.6161 81.8422 29.8592 81.4448C29.0455 81.0285 28.7806 81.1799 28.5157 82.2018C28.3453 82.883 28.2318 83.0533 27.9858 82.9397C26.4152 82.2774 25.8097 82.5613 25.3177 84.1508C24.6743 86.2512 24.9014 87.8407 26.1692 89.9223C26.5666 90.5845 26.8315 91.2658 26.8315 91.6442C26.8315 92.0227 26.9829 92.4011 27.1911 92.5904C27.5506 92.9121 27.5506 93.1581 27.456 98.1537C27.3235 105.382 27.8534 112.705 28.8373 117.02C29.4996 119.915 31.6758 126.727 32.6976 129.111C32.9057 129.603 33.076 130.095 33.076 130.19C33.076 130.417 31.9785 131.098 29.7456 132.234C28.0615 133.104 27.8723 133.142 27.6641 132.858C27.1343 132.158 24.1445 125.97 23.2362 123.681C22.3657 121.486 22.29 121.202 22.4793 120.558C22.5739 120.18 22.6685 119.48 22.6685 119.007C22.6685 118.534 22.8388 117.341 23.0659 116.357C23.6903 113.519 23.3497 111.078 22.0819 109.224C21.4953 108.372 20.7005 107.729 20.1139 107.615C19.8301 107.577 19.6787 107.766 19.3949 108.504C18.9786 109.659 18.9975 109.621 18.5623 109.394C18.3541 109.28 18.1081 109.242 17.9946 109.318C17.6161 109.564 17.1241 112.346 17.2377 113.689C17.3512 115.26 17.8432 116.339 19.1678 117.947C19.9625 118.931 20.2085 119.366 20.2085 119.858C20.2085 120.331 20.3599 120.615 20.7951 120.975C21.1168 121.24 21.4385 121.467 21.5331 121.467C21.6088 121.467 22.2144 122.772 22.8577 124.343C24.1634 127.522 25.5258 130.322 26.6991 132.309L27.456 133.596L26.964 134.107C26.6991 134.391 26.3017 135.072 26.0935 135.602C25.8854 136.151 25.4502 137.097 25.1474 137.683C24.8446 138.289 23.9553 140.352 23.1416 142.282C21.6467 145.858 19.5273 150.57 19.2624 150.854C19.0921 151.062 17.7675 150.4 16.5754 149.529C15.5535 148.791 15.5157 148.659 15.8752 146.255C16.0455 145.101 16.0266 144.685 15.8184 144.098C15.6671 143.682 15.4211 143.304 15.2886 143.266C15.1183 143.209 15.0805 143.285 15.194 143.531C15.5724 144.477 15.6671 145.404 15.4778 146.426C15.3832 147.012 15.2697 147.731 15.2508 148.053C15.194 148.621 15.1751 148.602 13.6045 147.012C12.734 146.123 11.5608 144.836 10.9931 144.136L9.97129 142.868L10.3498 142.111C10.8607 141.127 10.8417 140.276 10.3308 139.443C9.85776 138.667 9.64961 138.97 10.0659 139.803C10.4444 140.522 10.4444 140.976 10.0659 141.865L9.78207 142.566L9.42253 142.092C9.2333 141.828 8.66562 140.9 8.19255 140.049C7.53025 138.857 7.24641 138.516 7.09503 138.667C6.83011 138.932 7.3221 139.954 8.79808 142.168L9.80099 143.644L8.98731 143.531C8.55208 143.455 7.92763 143.228 7.58702 143.039C6.98149 142.679 6.54627 142.812 7.01934 143.209C7.43564 143.531 8.85485 143.985 9.51715 143.985C10.047 143.985 10.2551 144.136 10.9364 145.044C11.3905 145.612 12.5637 146.842 13.5477 147.788C15.2886 149.416 15.3075 149.472 14.7398 149.472C14.4182 149.472 13.8315 149.34 13.4531 149.189C12.6773 148.867 12.6394 148.848 12.6394 149.056C12.6394 149.397 14.1154 149.889 14.9291 149.832C15.6481 149.775 15.9887 149.908 17.3323 150.683C18.1838 151.194 18.8839 151.611 18.8839 151.63C18.8839 151.724 16.1969 157.685 15.7428 158.612C15.2508 159.615 15.0615 159.804 13.3396 160.845C10.047 162.87 7.9844 165.216 7.18964 167.846C6.33811 170.647 6.14889 172.804 6.26242 178.897C6.31919 182.02 6.47057 185.255 6.60303 186.088C6.75442 187.015 6.84903 189.418 6.84903 192.238V196.874L6.16781 199.334C4.18091 206.392 3.27262 210.612 2.04264 218.446C0.0746633 230.897 -0.493021 239.45 0.434197 242.838C0.604502 243.443 1.17219 244.938 1.70203 246.149C5.14598 254.097 9.36576 266.34 11.1067 273.436C11.6176 275.555 12.6016 279.34 13.3017 281.837C14.8345 287.344 15.2886 289.444 16.1401 294.762C16.5186 297.014 16.8592 299.152 16.916 299.511C16.9727 299.909 17.0863 300.079 17.1998 299.965C17.3133 299.852 17.1998 298.641 16.897 296.673C15.8563 289.917 15.3643 287.703 13.3017 280.21C12.734 278.185 11.8825 274.931 11.4284 273C9.91453 266.775 4.99459 252.394 2.51571 247.019C1.49387 244.805 0.774807 242.573 0.509888 240.832C-0.228102 235.817 2.26971 216.289 5.07029 205.068C6.43273 199.637 8.89269 191.349 10.5579 186.58C11.1824 184.763 11.6554 183.231 11.5987 183.174C11.523 183.117 11.4094 183.193 11.3148 183.344C11.0499 183.779 8.91162 189.986 8.13578 192.597L7.43564 194.944L7.3221 191.273C7.26533 189.248 7.09503 186.694 6.94364 185.615C6.77334 184.271 6.67873 181.679 6.67873 177.667C6.67873 172.142 6.71657 171.555 7.11395 169.72C7.35995 168.622 7.81409 167.184 8.13578 166.503C8.96839 164.781 11.2202 162.586 13.6802 161.129C18.0513 158.536 22.7631 155.509 25.5069 153.541C29.5186 150.664 32.0731 148.961 34.2114 147.769C36.4632 146.501 38.734 145.082 42.8591 142.338C44.6379 141.165 46.6059 139.973 47.2492 139.727C48.3468 139.273 48.5549 139.254 52.6044 139.254C61.1575 139.273 67.6859 139.746 70.0702 140.503C71.5272 140.976 76.6553 143.701 78.9639 145.234C80.8372 146.483 81.1021 146.729 81.6698 147.769C82.862 149.926 84.1109 150.759 88.8984 152.5C90.4122 153.049 91.7746 153.541 91.926 153.579C92.7208 153.806 89.2579 155.83 87.1007 156.379C84.6029 157.023 82.3889 156.682 77.9231 154.96C76.5228 154.43 75.0279 153.9 74.6116 153.806C74.1953 153.692 73.1735 153.295 72.322 152.878C70.9974 152.273 70.4865 151.876 69.0483 150.4C67.1371 148.451 66.4937 148.223 68.14 150.078C68.7266 150.721 69.1808 151.289 69.1429 151.308C69.1051 151.346 68.2914 151.289 67.3074 151.175C65.2259 150.967 56.0862 150.948 52.945 151.156C50.0687 151.346 49.5011 151.611 46.8897 154.052C43.635 157.06 42.8402 157.666 41.5535 158.158C40.8912 158.404 38.7529 159.331 36.766 160.183C33.9276 161.432 26.1314 164.402 24.3337 164.932C23.9742 165.046 23.8606 165.368 24.1634 165.368C24.258 165.368 25.0528 165.103 25.9232 164.781C26.7937 164.459 28.932 163.683 30.6918 163.059C32.4705 162.434 34.8548 161.488 35.9902 160.977C39.3395 159.483 42.2725 158.29 44.7136 157.42C45.9625 156.985 48.3089 156.171 49.9174 155.584C55.1401 153.749 55.7267 153.787 60.6087 156.455C65.5665 159.161 70.9406 161.659 72.814 162.151C73.7033 162.378 74.6495 162.68 74.9144 162.832C75.7092 163.229 76.5228 164.421 77.6393 166.73C78.6043 168.736 80.2695 171.574 81.2157 172.842C81.5185 173.239 81.6698 173.769 81.7455 174.64C81.9158 176.778 82.9944 178.462 85.6815 180.752L86.7222 181.641L86.287 182.057C85.9275 182.436 85.6247 182.493 84.1866 182.549C82.1618 182.644 78.7746 182.02 77.6204 181.357C76.4471 180.676 73.5141 177.497 72.795 176.116C71.9624 174.526 69.5592 172.123 67.7237 171.082C66.9479 170.628 65.4908 169.928 64.5068 169.493C63.5039 169.076 61.7063 168.225 60.4952 167.6C58.6597 166.654 58.0731 166.446 57.0891 166.37C54.7994 166.2 52.3206 167.108 48.7063 169.436C45.9814 171.196 42.0265 173.258 40.3235 173.807C38.9421 174.261 38.6394 174.299 38.1284 174.11C37.2958 173.788 37.2391 174.015 37.996 174.602C38.3555 174.886 39.0367 175.472 39.5098 175.926L40.3613 176.759L37.7121 176.646C36.2551 176.589 34.1736 176.362 33.076 176.154C31.9785 175.945 30.3133 175.775 29.3672 175.775C27.7587 175.775 27.5506 175.832 26.2828 176.456C25.5448 176.816 24.9392 177.213 24.9392 177.308C24.9392 177.573 25.1285 177.516 26.5288 176.816C27.683 176.229 27.9858 176.154 29.3672 176.154C30.1998 176.154 31.7515 176.324 32.7922 176.551C34.3817 176.873 35.8766 176.967 42.0644 177.138C46.1328 177.251 51.5258 177.346 54.0804 177.365C60.798 177.421 60.0221 177.289 61.5927 178.67C63.5796 180.411 65.3962 181.414 68.9159 182.682C70.1648 183.136 71.3191 184.234 72.5301 186.088C73.0789 186.921 73.7033 187.772 73.9304 187.98C74.1575 188.17 74.5359 188.756 74.7441 189.248C75.4821 190.989 78.4151 193.071 80.8751 193.619L81.9726 193.865L81.1211 194.736C79.4748 196.363 77.0716 197.139 74.763 196.779C72.9464 196.477 71.7543 195.966 69.2943 194.376C67.402 193.165 62.5389 190.421 59.1706 188.699C58.6975 188.453 57.846 188.17 57.2783 188.094C56.3322 187.942 52.4341 188.113 51.3933 188.359C51.1473 188.415 49.993 188.586 48.8388 188.737C46.3977 189.04 45.6786 189.324 43.4268 190.8C41.6292 191.973 40.0964 193.544 39.4152 194.868C38.3934 196.912 38.1852 198.388 37.7121 207.376C37.3337 214.529 37.3337 214.87 37.5229 217.5C37.7311 220.641 37.3526 221.833 34.9494 225.864C34.4196 226.715 33.7573 228.002 33.4734 228.721C32.7354 230.519 31.8271 231.862 30.0295 233.906C28.5346 235.609 28.0047 236.328 28.2886 236.328C28.3643 236.328 28.8563 235.855 29.3861 235.287L30.3322 234.247V236.744C30.3512 238.674 30.4458 239.64 30.7675 240.926C31.8839 245.411 34.9116 252.999 38.7718 260.966C44.5054 272.811 48.8955 280.986 49.5011 280.986C49.7092 280.986 49.6903 280.872 49.4254 280.456C46.7572 276.425 37.1255 257.086 34.6466 250.804C31.373 242.535 30.7296 240.132 30.7296 236.574V234.057L31.9028 232.373C32.5651 231.427 33.341 230.046 33.6627 229.289C34.0033 228.532 34.8169 226.942 35.4982 225.769C36.9931 223.139 37.7121 221.474 37.996 219.903C38.1852 218.862 38.3555 218.522 39.5098 217.102C41.8941 214.132 43.6161 211.482 45.1867 208.417C46.0193 206.752 46.8897 205.181 47.0979 204.916L47.4763 204.443L47.3628 207.187C47.1735 211.918 46.8897 215.891 46.5869 218.408C46.2085 221.379 46.3031 223.347 46.9843 226.677C47.4006 228.797 47.5142 230.027 47.6466 233.868C47.798 237.899 47.8737 238.75 48.29 240.321C48.8198 242.308 49.6335 244.635 49.9174 244.919C50.3904 245.392 50.2769 244.635 49.5767 242.535C48.4792 239.318 48.3846 238.731 48.2143 233.584C48.0818 229.686 47.9872 228.626 47.4763 226.053C46.814 222.666 46.7762 221.587 47.1735 218.578C47.5331 215.872 48.0251 208.284 48.0251 205.541V203.421L49.5011 201.378C50.2958 200.261 51.8096 198.104 52.8504 196.628C53.8722 195.133 55.3104 193.26 56.0483 192.484C57.3351 191.103 57.3729 191.084 57.5622 191.519C57.8271 192.105 57.7892 202.002 57.5054 204.349C57.3919 205.332 57.1269 207.546 56.9377 209.268C56.7296 210.99 56.4268 213.11 56.2565 213.999C55.7645 216.478 54.5724 219.903 53.3802 222.155C52.3773 224.066 52.1881 224.766 52.8125 224.255C53.2099 223.915 54.9319 220.49 55.4996 218.919C56.2187 216.875 57.0323 213.431 57.2783 211.35C57.3919 210.366 57.6189 208.53 57.7703 207.3C58.2812 203.308 58.4705 199.447 58.3948 195.474C58.338 193.317 58.2055 191.349 58.092 191.084C57.9217 190.629 57.9596 190.516 58.6218 189.873L59.3409 189.172L60.06 189.627C60.4763 189.891 62.0658 190.762 63.6175 191.576C65.1691 192.389 67.5534 193.771 68.878 194.622C71.5651 196.344 72.7193 196.855 74.7062 197.177C77.0527 197.574 79.7208 196.704 81.4428 194.982C83.0134 193.411 82.7106 193.052 76.977 189.589C74.517 188.113 74.0629 187.678 72.5869 185.445C71.1866 183.325 70.4108 182.739 67.9319 181.849C66.3234 181.282 65.6233 180.884 66.2288 180.884C66.8154 180.884 69.7485 178.841 70.9217 177.629C71.6218 176.929 72.2274 176.343 72.2841 176.343C72.322 176.343 72.6437 176.759 72.9653 177.27C73.287 177.762 74.4035 178.992 75.4442 179.976C77.4879 181.944 77.7907 182.114 80.7426 182.682C82.8809 183.117 85.8518 183.022 86.4195 182.512C86.6276 182.322 87.0818 182.114 87.4224 182.039C87.9711 181.925 88.0468 181.849 87.9711 181.357C87.8765 180.525 87.7062 180.279 85.9275 178.367C83.5621 175.813 79.7019 170.041 78.0367 166.598C76.9391 164.327 76.1065 163.097 75.3685 162.605C75.1036 162.434 74.025 162.056 73.0032 161.753C71.9624 161.469 70.5243 160.958 69.7863 160.618L68.4428 160.012L69.3511 159.218C70.2215 158.442 70.2594 158.423 70.8649 158.669C72.1895 159.237 73.4384 158.953 77.6393 157.193L79.91 156.247L81.2346 156.587C82.1808 156.852 83.2026 156.947 84.8299 156.947C86.9493 156.928 87.2142 156.89 88.6524 156.322C89.5228 155.963 90.7339 155.301 91.3772 154.809C92.0206 154.317 92.7397 153.787 92.9857 153.635C93.6101 153.238 93.5534 152.651 92.8343 151.838C92.0206 150.892 90.7339 150.305 86.2492 148.81C84.1109 148.11 82.3321 147.504 82.2943 147.467C82.1808 147.353 83.6189 145.669 83.9406 145.555C84.092 145.48 84.3758 145.536 84.565 145.65C85.0003 145.934 86.3249 145.953 86.1545 145.688C86.0978 145.574 85.8329 145.499 85.5869 145.499C85.3409 145.499 85.0759 145.404 85.0192 145.309C84.9624 145.196 85.0003 145.12 85.1327 145.12C85.795 145.12 90.9231 142.357 92.8343 140.957L94.9726 139.405L95.8619 139.651C96.6189 139.841 96.9216 139.822 97.7921 139.557C98.8328 139.254 99.6465 138.781 99.4573 138.592C99.4005 138.535 98.9464 138.686 98.4354 138.894C97.4893 139.33 96.2783 139.443 95.6349 139.197C95.3321 139.084 95.5403 138.781 97.1487 137.116C98.1895 136.056 99.6276 134.372 100.366 133.388C102.125 131.042 103.847 128.487 103.847 128.26C103.847 127.73 103.242 128.279 102.239 129.736C100.366 132.461 98.7571 134.523 97.0541 136.378C95.7295 137.835 95.4267 138.081 95.2753 137.835C95.0483 137.419 95.2943 135.432 95.7295 134.183C96.1647 132.877 95.7673 132.953 95.2564 134.258C95.0293 134.883 94.8969 135.772 94.878 136.945L94.8401 138.705L92.9478 140.124C91.926 140.9 91.0177 141.525 90.942 141.525C90.6014 141.525 90.8285 140.37 91.3583 139.33C91.6611 138.724 91.8692 138.194 91.8314 138.157C91.4908 137.816 90.6014 139.632 90.4311 141.033L90.3176 141.998L87.3845 143.436C85.7761 144.231 84.4136 144.855 84.3758 144.817C84.319 144.779 84.4893 144.458 84.7353 144.117C85.0003 143.796 85.9464 142.414 86.8547 141.071C88.1036 139.216 88.6713 138.554 89.1254 138.365C89.7877 138.081 90.6014 137.4 90.6014 137.135C90.6014 137.04 90.2797 137.191 89.9013 137.456C89.5039 137.721 89.1254 137.929 89.0687 137.929C88.993 137.929 89.3147 137.229 89.7688 136.378C90.6203 134.807 90.8663 133.88 90.3176 134.334C90.1662 134.448 89.6174 135.337 89.1065 136.283C88.5767 137.248 87.8197 138.535 87.4035 139.159L86.6276 140.295V138.535C86.6276 137.513 86.5519 136.794 86.4384 136.794C86.2492 136.794 86.1924 137.759 86.2492 139.822C86.2681 140.844 86.2302 140.938 84.8299 142.944C84.0163 144.098 83.0134 145.461 82.5781 145.991L81.8023 146.956L81.2725 146.369C80.648 145.707 80.6291 145.915 81.4806 141.809C82.124 138.667 82.7484 136.17 83.5053 133.804C83.8838 132.612 84.073 132.253 84.338 132.253C84.9435 132.253 86.2302 131.723 86.9304 131.174C87.7441 130.568 87.4602 130.322 86.6465 130.909C86.0221 131.363 84.5461 131.931 84.3947 131.78C84.338 131.723 84.6029 131.023 84.9813 130.228C85.8896 128.26 86.4952 126.576 86.3627 126.424C86.1735 126.254 85.7761 126.765 85.3976 127.711C85.2084 128.184 84.6407 129.452 84.1676 130.55C83.6757 131.647 83.2215 132.707 83.1269 132.915C83.0134 133.255 82.9377 133.199 82.6349 132.536C82.4457 132.12 82.2754 131.515 82.2754 131.174C82.2754 130.852 82.1997 130.512 82.0861 130.455C81.6888 130.209 81.8969 131.988 82.37 132.915L82.8241 133.842L82.2754 135.829C81.6698 138.043 81.1589 140.314 80.6291 143.039C80.4398 144.023 80.1939 144.836 80.0992 144.817C79.7776 144.798 79.0774 143.379 78.7368 142.036C78.4151 140.825 78.1124 140.37 78.1124 141.108C78.1124 141.733 78.699 143.493 79.172 144.325L79.6451 145.12L78.3583 144.306C77.6582 143.852 76.1065 142.982 74.9333 142.376C73.7412 141.771 72.7383 141.184 72.7004 141.071C72.6437 140.938 72.9653 139.992 73.4006 138.951C75.6902 133.445 77.3933 127.522 78.9071 119.953C79.4748 117.076 79.5694 116.736 80.3263 115.619C81.0265 114.541 81.4617 114.181 83.7324 112.63C86.3249 110.889 86.3438 110.87 87.5359 110.87C88.7848 110.87 89.22 110.51 88.009 110.472H87.2899L88.009 110.208C88.3874 110.056 89.4282 109.791 90.3176 109.621L91.926 109.299L92.3423 109.829C92.8154 110.435 93.7426 110.87 94.5563 110.87C95.4835 110.87 95.3889 110.548 94.4617 110.435C93.5534 110.34 92.5883 109.772 92.5883 109.356C92.5883 109.205 92.8911 109.034 93.2506 108.94C93.6101 108.864 94.386 108.656 94.9915 108.486C96.0322 108.183 96.0701 108.183 96.6189 108.561C97.319 109.072 98.6625 109.375 99.5519 109.224C100.668 109.053 100.366 108.845 98.8896 108.75C97.9624 108.713 97.3379 108.561 96.9973 108.334L96.4675 107.994L98.0002 106.972C99.4762 105.969 99.533 105.95 100.063 106.234C100.366 106.385 100.971 106.518 101.387 106.518C102.258 106.518 103.526 106.007 103.355 105.742C103.299 105.647 103.015 105.704 102.712 105.855C101.879 106.29 100.536 106.196 99.9114 105.647C99.8736 105.628 100.195 105.288 100.63 104.89C101.52 104.077 101.86 103.566 101.577 103.395C101.482 103.339 100.706 103.925 99.8736 104.701C97.2055 107.142 95.8052 107.804 90.8474 108.883C87.5548 109.602 86.8168 109.905 84.3001 111.513C83.2594 112.175 83.335 112.1 85.3409 110.151C88.5199 107.066 89.4471 106.309 91.1312 105.42C92.5883 104.644 92.7208 104.625 93.4398 104.815C93.9697 104.966 94.4049 104.966 94.9537 104.815C96.0133 104.531 96.1269 104.209 95.105 104.36C94.6509 104.436 94.2535 104.493 94.1967 104.474C93.1749 104.474 93.2506 104.379 94.9537 103.471C96.7892 102.487 97.6975 101.881 98.5679 101.087C98.9464 100.727 99.3248 100.614 100.082 100.576C101.085 100.519 102.428 100.046 103.185 99.4594C103.847 98.9484 103.374 98.9295 102.504 99.4026C101.614 99.8946 99.9304 100.387 99.7411 100.216C99.6844 100.16 100.12 99.5729 100.725 98.9106C101.312 98.2483 102.315 97.0183 102.958 96.1479C103.601 95.2963 104.207 94.5962 104.32 94.5962C104.699 94.5962 106.497 93.2527 106.497 92.9688C106.497 92.7418 106.326 92.8174 105.796 93.2148C105.399 93.5365 104.983 93.8393 104.869 93.896C104.737 93.9717 105.153 93.1959 105.759 92.1552C106.667 90.6413 107.045 90.1872 107.821 89.7141C108.351 89.3924 108.767 88.9761 108.767 88.8247C108.767 88.5787 108.654 88.5977 108.181 88.995C107.594 89.487 107.424 89.5627 106.856 89.506C106.686 89.487 106.421 89.7709 106.213 90.2439L105.872 91.0009L105.437 90.6035C105.191 90.3764 104.812 89.733 104.585 89.1843C104.15 88.1435 103.753 87.9354 104.037 88.9004C104.264 89.6763 104.585 90.2629 105.134 90.8495L105.607 91.3604L105.077 92.1741C104.794 92.6282 103.999 93.7257 103.318 94.653C101.993 96.4506 101.804 96.5074 101.387 95.2585C101.236 94.7854 101.255 94.3123 101.463 93.2527C101.728 92.0038 101.728 91.5307 101.482 91.7767C101.444 91.8335 101.255 92.4201 101.085 93.0824C100.744 94.4637 100.82 95.3909 101.387 96.1668L101.785 96.6966L101.066 97.586C99.779 99.1755 98.8518 100.122 97.7542 100.973L96.6567 101.806V101.049C96.6567 100.651 96.827 99.7621 97.0352 99.1187C97.2244 98.4565 97.3568 97.8888 97.3001 97.832C96.9973 97.5103 96.2783 99.8 96.2783 101.106V102.071L94.4617 103.017C93.4587 103.528 92.5694 103.982 92.4748 104.02C92.1342 104.152 91.8692 102.468 92.0963 101.522C92.3612 100.368 92.2098 100.16 91.8125 101.143C91.5286 101.844 91.5286 102.695 91.8503 103.925C91.926 104.304 91.8503 104.417 91.3394 104.625C90.45 105.004 88.1225 106.574 87.5738 107.18C86.5519 108.296 83.354 111.116 83.6757 110.624C86.6844 105.874 87.5738 104.095 90.0905 97.8131C91.188 95.0503 92.8154 90.963 93.7047 88.7112C96.0133 82.9208 97.3379 78.5875 98.8139 72.1727C99.8168 67.8015 100.593 60.9704 101.198 50.9791C101.501 46.1349 101.709 44.2804 102.163 42.3503C102.542 40.8365 102.598 40.723 103.166 40.5526C103.545 40.4391 103.847 40.1742 104.037 39.7768C104.226 39.3794 104.453 39.1523 104.699 39.1523C104.907 39.1523 105.532 38.8685 106.061 38.509C106.743 38.0548 107.499 37.771 108.578 37.5628C111.435 36.9762 113.498 35.8787 114.198 34.573C114.898 33.2295 114.387 30.902 113.082 29.5585C112.4 28.8583 112.476 28.6502 113.612 28.1582C115.106 27.477 115.428 26.3227 114.501 24.8278C113.403 23.0869 113.214 22.822 112.93 22.6706C110.224 21.3271 107.897 20.608 106.175 20.608C105.304 20.608 104.32 21.1757 103.885 21.9326C103.658 22.3111 103.412 22.5003 103.109 22.5003C102.409 22.5003 101.066 23.2194 100.195 24.0519C99.3059 24.9035 99.1356 24.8846 97.8488 23.8059C97.3568 23.4086 96.6756 23.0112 96.335 22.9544C94.4617 22.5949 92.1909 24.8089 91.8125 27.3634C91.6611 28.3664 92.0017 29.426 92.7018 30.183C93.2128 30.7128 93.2506 30.8074 93.0803 31.64C92.8721 32.7375 93.0614 33.7404 93.648 34.8001C94.3103 35.9922 95.1429 36.3518 98.7571 36.9573C99.1356 37.033 99.9114 37.4493 100.555 37.9413C101.425 38.6225 101.652 38.9063 101.614 39.247C101.577 39.493 101.652 39.8714 101.766 40.0985C101.936 40.4202 101.898 40.8554 101.596 42.1422C101.122 44.1858 100.895 46.097 100.63 50.2222C99.6276 66.0417 99.1924 69.0882 96.5432 78.6821C95.5403 82.2585 95.0293 83.7345 92.5694 89.9601C87.5548 102.676 87.4413 102.941 85.7761 105.95C84.1298 108.902 79.8343 115.411 79.8154 114.938C79.8154 114.73 79.9479 113.5 80.0992 112.194C80.2506 110.889 80.5534 107.918 80.7615 105.571C80.9697 103.225 81.2535 99.9892 81.4238 98.3808C81.5752 96.7723 81.7834 93.2716 81.8969 90.6224C82.0104 87.9732 82.1429 85.4943 82.1997 85.1348C82.2564 84.7753 82.7484 83.2425 83.3161 81.7287C84.4704 78.5497 84.9246 76.9601 85.5112 74.0271L85.9085 71.9267L86.7033 71.8131C87.5359 71.6807 88.7091 71.0751 88.7091 70.7534C88.7091 70.6588 88.3874 70.7345 88.009 70.9238C87.0061 71.4347 86.0599 71.605 86.0599 71.2833C86.0599 71.0562 86.3059 69.1072 86.5519 67.3852C86.6276 66.8932 86.779 66.7229 87.3467 66.4769C87.7251 66.3255 88.2361 66.0038 88.482 65.7767C89.0308 65.2658 89.6553 64.0926 89.6553 63.5628C89.6553 62.9951 89.3336 63.26 89.1822 63.9602C89.0119 64.736 87.5738 66.212 87.0061 66.212H86.5708L86.7033 63.6952C86.8358 61.4245 86.8736 61.1785 87.2521 60.9136C88.5956 59.9864 89.4093 59.0213 89.731 57.9238C89.977 57.1858 89.5039 57.4696 89.1254 58.3022C88.7848 59.0781 87.4035 60.5351 87.0061 60.5351C86.8925 60.5351 86.8168 60.5162 86.8168 60.4784C86.8168 60.4594 86.7222 59.1538 86.6276 57.6021C86.533 56.0315 86.287 53.7418 86.0788 52.5119C85.7382 50.506 85.7382 50.1465 85.9653 49.2004C86.3059 47.819 86.3816 46.7404 86.1545 46.7215C86.0599 46.7215 85.9085 47.2324 85.8329 47.8758C85.7572 48.5191 85.6626 49.0868 85.6058 49.1247C85.549 49.1814 85.3598 48.7273 85.1895 48.1218C84.9435 47.2892 84.8489 46.2295 84.8299 43.9777C84.811 42.3125 84.7353 40.6662 84.6596 40.3256C84.4326 39.474 84.092 39.5497 84.2433 40.4202C84.319 40.8176 84.4136 42.0286 84.4893 43.1261C84.5839 44.886 84.565 45.1698 84.2623 45.4536C83.9027 45.8321 83.9027 45.7943 84.6218 48.4813C84.9056 49.5031 85.1138 50.506 85.0759 50.7331C85.0192 51.0737 84.9056 51.0359 83.846 50.2411C83.2026 49.7681 82.4457 49.0301 82.1618 48.6138C81.6131 47.8001 81.1021 47.7622 81.632 48.5759C82.1808 49.4653 82.8998 50.1276 84.1109 50.9223C84.7543 51.3386 85.3219 51.8117 85.3787 51.9631C85.549 52.3605 86.0978 57.2804 86.0221 57.621C85.9842 57.8292 85.7382 57.7346 85.0192 57.2426C84.1487 56.656 83.8081 56.2018 83.2594 54.8583C83.0701 54.4041 83.0512 54.4041 83.0512 55.0286C83.0323 55.918 83.7513 56.9019 85.0003 57.6967C85.9275 58.2833 86.0221 58.4347 86.1356 59.1727C86.2681 60.2324 86.041 65.6443 85.8518 65.6443C85.549 65.6443 84.1866 63.8845 83.846 63.0897C83.4675 62.1625 83.108 61.9354 83.3161 62.7491C83.5053 63.5439 84.5083 65.0009 85.303 65.701L86.0221 66.3066L85.8518 68.1042C85.6247 70.4696 84.6786 75.522 84.0541 77.6603C83.581 79.3255 82.4457 82.5234 82.3511 82.4288C82.3321 82.4099 82.2186 80.6501 82.1051 78.5118C81.7266 71.9456 80.6102 61.0839 79.9857 58.0941C79.4937 55.672 77.7528 49.4464 76.4093 45.3023C75.8038 43.4289 74.9901 40.8176 74.6305 39.5119C73.8926 36.8627 71.4894 29.9748 70.5811 27.8365C70.2594 27.0796 69.5971 25.8685 69.124 25.1306L68.2536 23.8059L68.6699 22.6895C68.8969 22.0651 69.0294 21.4406 68.9726 21.3081C68.6699 20.5134 71.1298 18.1859 74.7441 15.8016C76.3147 14.7798 76.7878 13.6823 76.9959 10.7303C77.0716 9.50031 77.2041 8.21356 77.2608 7.87296C77.4311 6.98358 76.8824 3.50177 76.485 2.80164C75.3307 0.833649 72.9843 0.966125 70.9406 3.08548C70.4486 3.59641 70.1269 3.76669 69.6728 3.76669C69.124 3.76669 69.0294 3.69101 68.8212 3.04764C67.9697 0.417358 66.8911 -0.396332 64.9988 0.171356ZM66.7019 0.474121C67.3642 0.663361 67.9508 1.77982 69.0105 4.90207C69.9566 7.64587 70.0134 7.92972 70.0323 9.82199C70.0512 11.7332 70.0323 11.9224 69.0672 14.8555C68.3293 17.1451 67.9508 18.0156 67.5534 18.394C67.2507 18.6779 66.9668 18.9049 66.91 18.9049C66.8344 18.9049 66.7776 17.9399 66.7776 16.7667C66.7587 15.6124 66.7208 13.9283 66.7019 13.0389C66.683 12.1495 66.7397 11.2034 66.8344 10.9006C67.0803 10.1058 66.6451 10.2762 66.3613 11.0898C66.0964 11.9224 66.0964 13.7579 66.3802 14.9879C66.6073 16.0665 66.4181 19.3213 66.1153 19.2266C65.7179 19.0942 65.207 17.9399 64.7718 16.1422C64.3365 14.4581 63.6175 12.8496 63.1444 12.5658C62.7281 12.3009 62.7849 12.6415 63.3336 13.5309C63.6553 14.0418 64.1284 15.3096 64.3933 16.3504C64.6582 17.3911 65.0935 18.5643 65.3584 18.9617L65.8314 19.6808L65.2827 19.3969C64.9799 19.2455 64.469 18.886 64.1473 18.6211C63.8445 18.3562 63.4661 18.148 63.3526 18.148C62.993 18.148 63.6932 18.8671 64.6204 19.4726C65.207 19.8511 65.3584 20.0403 65.2259 20.2485C65.1313 20.3998 65.0556 20.7783 65.0556 21.1189C65.0556 21.6677 64.9988 21.7245 64.3176 21.838C63.3147 22.0083 62.1793 21.4406 60.4763 19.9079C59.1328 18.6968 58.5651 18.3183 57.7325 18.0723C56.9945 17.8453 57.2594 18.2616 58.0731 18.6211C58.4894 18.8293 59.4545 19.5294 60.1924 20.1917C60.9494 20.854 61.8955 21.5731 62.3118 21.7812C63.0498 22.1786 63.0687 22.1786 62.5956 22.3489C62.3307 22.4435 61.1954 22.6895 60.06 22.8976C57.9596 23.2761 56.7863 23.2572 55.1211 22.8409C54.1371 22.5949 52.1313 21.1568 51.6583 20.3809C50.5418 18.5265 49.993 15.1582 50.6175 14.0039C51.1473 12.9821 51.7339 12.6794 53.2099 12.6226C54.3074 12.5847 54.5534 12.6415 54.7238 12.9253C55.4807 14.231 56.143 14.8365 57.6189 15.5745C59.3788 16.4639 59.9464 16.937 60.6087 18.0913C60.9494 18.6589 61.4224 19.0753 62.2929 19.5672C63.5607 20.2863 63.731 20.3242 63.731 20.0403C63.731 19.9457 63.3715 19.6808 62.9363 19.4537C61.8766 18.9239 61.3657 18.4508 60.6087 17.2776C60.06 16.445 59.7572 16.199 58.3191 15.4988C53.8533 13.2849 53.9858 10.8817 58.83 6.96466C60.7034 5.45084 61.6117 4.46683 62.8984 2.51779C63.9959 0.85257 65.3773 0.114594 66.7019 0.474121ZM75.5578 2.25287C76.5796 3.1044 76.977 6.01852 76.6364 10.2951C76.3525 13.7201 75.9741 14.5149 74.0439 15.7638C73.533 16.1044 72.2652 17.0316 71.2623 17.8264C70.2405 18.6211 69.4079 19.2077 69.4079 19.132C69.4079 19.0563 69.5782 18.4697 69.7674 17.8264C70.2026 16.4071 71.0352 14.9312 72.1706 13.5309C73.1357 12.3766 73.8926 10.3897 73.4006 10.3897C73.306 10.3897 73.0789 10.8438 72.9275 11.3737C72.7383 11.9981 72.2841 12.7929 71.7164 13.4741C70.5621 14.8365 69.5403 16.8802 69.1429 18.6211C68.6131 20.8351 68.5374 20.9675 67.7805 20.854C67.2507 20.7594 67.0614 20.8351 66.6073 21.3271C65.9828 21.9893 65.4341 21.8569 65.4341 21.0621C65.4341 20.5512 66.3613 19.4726 66.7965 19.4726C66.9479 19.4726 67.3642 19.1509 67.7616 18.7536C68.3293 18.167 68.6131 17.5614 69.4457 15.0258C70.4486 11.9981 70.4486 11.9981 70.4297 9.72739C70.3918 7.68372 70.3351 7.28635 69.8052 5.88605C69.4835 5.01559 69.2186 4.27762 69.2186 4.22086C69.2186 4.18298 69.4646 4.14514 69.7674 4.14514C70.1648 4.14514 70.6378 3.88022 71.4137 3.19901C72.9843 1.81766 74.5927 1.4581 75.5578 2.25287ZM108.673 21.3838C109.203 21.4974 110.13 21.8191 110.754 22.1218C111.379 22.4057 112.136 22.7463 112.419 22.8598C112.703 22.9734 113.101 23.3329 113.271 23.6546C113.441 23.9763 113.801 24.5439 114.028 24.9224C114.596 25.7739 114.747 26.6444 114.406 27.0985C114.255 27.2878 113.782 27.6094 113.347 27.7987L112.552 28.1582L112.438 27.6473C112.249 26.6822 111.984 26.2849 111.379 25.9064C110.584 25.4144 109.524 25.5468 108.465 26.2849L107.67 26.8147L107.575 26.0578C107.499 25.4522 107.253 25.0738 106.497 24.2979C105.948 23.7492 105.172 23.1436 104.775 22.9544C104.358 22.7841 104.037 22.576 104.037 22.5003C104.037 22.2354 104.85 21.3271 105.248 21.1568C105.683 20.9865 107.197 21.0811 108.673 21.3838ZM68.5185 21.4785C68.7266 21.6866 67.8373 23.8249 67.5345 23.8249C66.3613 23.8059 66.1153 23.295 66.6451 22.0272C66.8911 21.4406 67.0047 21.3649 67.667 21.3649C68.0643 21.3649 68.4428 21.4217 68.5185 21.4785ZM104.888 23.5032C105.21 23.6546 105.834 24.1844 106.288 24.6575C106.989 25.3766 107.121 25.6415 107.197 26.4173C107.272 27.2878 107.216 27.4013 106.213 28.7259C104.548 30.902 103.469 33.362 103.469 34.9326C103.469 35.8787 103.772 35.5192 103.904 34.4406C104.112 32.7564 105.532 30.0505 107.405 27.8554C108.502 26.5498 109.259 26.0956 110.319 26.0956C111.435 26.0956 111.814 26.5119 112.022 28.0257C112.136 28.953 112.306 29.3314 112.741 29.7856C113.952 31.0345 114.444 33.1538 113.82 34.3649C113.46 35.0461 112.476 35.8219 111.322 36.3329C110.338 36.7681 107.253 37.4872 107.253 37.279C107.253 37.0708 108.729 34.9893 109.297 34.3838C109.562 34.1 109.713 33.7972 109.657 33.7215C109.43 33.5134 108.54 34.4973 107.348 36.295C106.724 37.2222 106.005 38.0927 105.74 38.2062C105.323 38.3954 105.21 38.3576 104.756 37.8467C104.15 37.1655 104.074 36.4464 104.566 36.0301C104.737 35.8787 105.248 35.4246 105.702 35.0461C106.572 34.3081 107.708 32.3591 107.575 31.8103C107.537 31.6211 107.253 32.0185 106.837 32.8321C106.44 33.608 105.853 34.4027 105.456 34.7244C103.999 35.8976 103.847 36.0869 103.847 36.7681C103.847 37.1844 104.018 37.6196 104.32 37.9791C104.585 38.3008 104.794 38.6036 104.794 38.6604C104.794 38.8874 103.923 38.7739 103.507 38.4711C102.996 38.1116 101.898 35.9922 100.82 33.1917C99.9871 31.0723 99.6844 30.5046 99.6844 31.0534C99.6844 31.5832 100.63 34.0243 101.652 36.1625L102.617 38.1873L102.182 38.3008C101.217 38.5468 99.4762 36.5978 97.8867 33.5512C97.1298 32.0752 96.9973 31.6779 96.9784 30.6182L96.9405 29.3882L98.0948 28.2528C99.0788 27.3067 99.3248 26.9282 99.6844 25.8496C100.044 24.7332 100.233 24.4683 100.99 23.9006C102.39 22.8787 103.488 22.7652 104.888 23.5032ZM96.7135 23.4653C96.9405 23.5978 97.4136 23.9384 97.7731 24.2601C98.1327 24.5629 98.6625 24.9035 98.9464 24.9981L99.4762 25.1873L99.1167 26.1524C98.8518 26.8525 98.4354 27.4202 97.6596 28.1393L96.5621 29.1611L96.581 30.5046C96.5999 31.7157 96.6945 32.0563 97.4136 33.4755C97.8488 34.3649 98.3976 35.33 98.6058 35.6327L98.9842 36.1625L98.5679 35.9544C97.9245 35.5949 96.4864 33.6837 95.8241 32.2834C95.124 30.8263 94.7833 30.7696 95.351 32.1888C95.7673 33.2484 96.581 34.5163 97.5839 35.6327L98.2651 36.3707L97.1298 36.2383C95.5024 36.0679 94.4238 35.4624 93.8751 34.4217C93.4777 33.6647 93.4398 33.3998 93.5155 31.9995C93.6101 30.5046 93.5912 30.41 93.1371 30.0126C91.68 28.7637 91.9071 26.3795 93.648 24.5061C94.6509 23.3896 95.8241 23.0112 96.7135 23.4653ZM103.242 38.8874C103.791 39.2659 103.772 39.8714 103.204 40.1174C102.315 40.5337 101.501 39.493 102.182 38.8117C102.485 38.509 102.731 38.5279 103.242 38.8874ZM41.8562 48.4435C42.8781 49.1625 44.5054 51.244 45.0731 52.5497C45.4705 53.458 45.6408 54.2338 45.7165 55.2557C45.8111 56.883 45.7733 56.9776 43.5593 60.7433C42.4428 62.6166 42.2158 62.9194 41.9509 62.7491C41.667 62.5599 41.667 62.4653 41.913 61.784C42.6888 59.589 43.2187 56.164 42.7267 56.4667C42.6321 56.5235 42.5375 56.8452 42.5375 57.1669C42.5375 57.867 41.8373 60.9325 41.4778 61.803C41.1372 62.5977 40.5316 62.6545 40.3235 61.8976C40.2289 61.6137 40.1721 60.554 40.191 59.5322C40.191 58.5293 40.1343 57.6967 40.0586 57.6967C39.6612 57.6967 39.6044 61.1785 39.9829 62.0868C40.0775 62.3139 39.964 62.4842 39.5477 62.6923C38.9989 62.9762 38.9989 62.9762 38.2987 62.0111C37.9014 61.5002 37.3526 60.6297 37.0877 60.0999C36.6335 59.2105 36.5768 58.9267 36.5957 57.2236C36.6146 55.672 36.7282 54.9908 37.2201 53.3634C37.9392 51.0548 38.7907 49.0679 39.3584 48.4813C39.8883 47.9136 41.0615 47.8947 41.8562 48.4435ZM37.0688 51.7739C37.1823 51.8874 37.0688 52.5308 36.7471 53.5526C36.4254 54.5744 36.2172 55.7855 36.1605 56.9776C36.0659 58.7185 36.0848 58.851 36.6146 60.0053C36.9363 60.6676 37.6175 61.784 38.1474 62.5031C38.6772 63.2411 39.0746 63.8655 39.0367 63.9034C38.98 63.9602 38.6015 63.752 38.1852 63.4682C37.2958 62.8437 36.1226 61.4434 35.3089 60.0053C34.6845 58.9267 34.5899 58.8321 34.5899 59.3808C34.5899 59.8728 36.0091 61.9543 37.0877 63.0329L37.9771 63.9412L37.2769 63.6574C36.8985 63.4871 36.4443 63.2411 36.2929 63.0897C36.1226 62.9383 35.8577 62.8059 35.7063 62.8059C35.5549 62.8248 35.7252 63.0708 36.1037 63.3925C36.766 63.9602 38.242 64.5089 39.0746 64.5089C39.3206 64.5089 39.5098 64.5846 39.5098 64.6982C39.5098 64.982 37.5797 64.9252 35.5549 64.6035C33.1328 64.2062 31.9974 63.6006 31.3919 62.3517C30.9756 61.538 30.9188 61.1028 30.8432 58.851C30.7864 56.9776 30.8432 55.899 31.0702 54.8772C31.3919 53.3255 32.1488 51.9063 32.7544 51.6225C33.2653 51.4143 36.8228 51.5279 37.0688 51.7739ZM47.798 55.1989C48.3657 55.5584 48.6117 57.9805 48.1575 58.7564C47.7223 59.5133 43.9567 63.2032 43.2565 63.5817C42.0076 64.2251 42.0265 64.1683 43.7864 61.1785C45.9057 57.6021 46.1328 57.0912 46.1328 55.9937V55.0475H46.8519C47.2303 55.0475 47.6655 55.1232 47.798 55.1989ZM41.8562 63.1843C41.9319 63.26 41.913 63.6196 41.7995 63.998C41.5724 64.6414 41.667 65.2658 41.9887 65.2658C42.2725 65.2658 42.1779 66.1741 41.8562 66.4958C41.1372 67.2149 39.8883 66.3066 39.8883 65.0577C39.8883 64.6414 39.7558 64.1115 39.6044 63.8845C39.1314 63.1654 39.699 62.7491 40.929 62.9194C41.3453 62.9762 41.7616 63.0897 41.8562 63.1843ZM65.9828 73.9892C66.683 74.6516 67.0047 75.6544 67.0993 77.5846C67.1939 79.7039 66.91 80.9718 65.9828 82.3531C65.1881 83.5453 63.7689 84.7374 63.5418 84.3779C63.4282 84.2076 63.5229 83.9237 63.7689 83.5642C64.1852 82.9776 65.8314 79.2119 65.7179 79.1173C65.5287 78.9281 65.2448 79.4012 64.6204 80.915C64.2419 81.8233 63.7499 82.864 63.5418 83.1857L63.1822 83.7913L62.52 83.375C61.6873 82.864 61.5549 82.2964 61.7063 79.8553C61.8577 77.1872 62.4064 75.6166 63.5607 74.4812C64.6015 73.4783 65.2827 73.327 65.9828 73.9892ZM62.009 74.4245L62.4443 74.8786L61.9144 76.3735C61.4413 77.6981 61.3846 78.1144 61.3467 80.5744C61.3278 83.2047 61.3089 83.3182 60.8737 83.6399C60.6277 83.8291 60.3627 83.9994 60.2681 83.9994C60.0032 83.9994 59.3788 82.7884 58.8868 81.2745C58.0163 78.6632 58.5272 76.2789 60.306 74.6705C61.2143 73.8568 61.4413 73.8189 62.009 74.4245ZM30.3701 82.4667C31.1459 83.621 30.881 87.0649 29.8402 89.487L29.4618 90.3953L28.421 90.3575L27.3803 90.3386L27.4938 89.2978C27.5695 88.7301 27.8534 87.1974 28.1561 85.8917C28.4589 84.586 28.7616 83.1857 28.8184 82.7694C28.8941 82.3531 28.9887 81.9368 29.0455 81.8611C29.2536 81.5205 29.9538 81.8611 30.3701 82.4667ZM27.7587 83.3371L28.3075 83.602L27.8534 85.4186C27.5884 86.4026 27.2857 87.9732 27.1532 88.8815L26.9072 90.5278L26.226 89.1464C25.3745 87.4812 25.1852 86.3837 25.5069 84.9645C25.9043 83.0911 26.4909 82.6748 27.7587 83.3371ZM62.8606 84.2076C63.5229 84.9834 63.485 85.3997 62.6903 85.9863L62.0469 86.4972L61.4035 86.0999C61.0629 85.8917 60.6466 85.4943 60.5141 85.2105C60.2492 84.7374 60.2681 84.6806 60.8547 84.1697C61.6495 83.4507 62.2361 83.4696 62.8606 84.2076ZM28.932 90.8116C29.2347 90.8116 29.1023 91.8335 28.7049 92.4958L28.3264 93.1391L27.7587 92.5904C27.3614 92.2119 27.21 91.9091 27.2478 91.5685C27.3046 91.0766 28.0615 90.5656 28.4967 90.717C28.6481 90.7738 28.8373 90.8116 28.932 90.8116ZM21.0033 108.599C21.8927 109.337 22.5928 110.794 22.8956 112.516C23.0848 113.708 23.0848 114.125 22.7442 115.828L22.3847 117.777L21.5521 117.833C21.0411 117.871 20.6059 118.023 20.4735 118.212C20.2464 118.496 20.1518 118.458 19.4705 117.682C18.4298 116.528 17.7296 115.014 17.6161 113.708C17.5026 112.44 18.0324 109.734 18.3919 109.734C18.7893 109.734 19.9815 111.116 20.4356 112.1C20.8141 112.913 20.8708 113.349 20.8708 115.184C20.8708 116.339 20.9276 117.304 21.0033 117.304C21.2871 117.304 21.3818 116.32 21.3061 114.598C21.2114 112.686 20.7195 111.248 19.9058 110.472C19.6598 110.245 19.4516 109.924 19.4516 109.772C19.4516 109.224 19.8868 108.031 20.095 108.031C20.2085 108.031 20.6248 108.296 21.0033 108.599ZM61.271 112.516C61.271 112.762 59.8897 114.408 59.3409 114.844L58.8111 115.241V114.314C58.8111 113.254 58.9246 113.122 60.1357 112.705C61.1197 112.346 61.271 112.327 61.271 112.516ZM61.6117 113.935C62.2929 115.355 62.009 116.641 60.2681 120.104C58.6597 123.283 58.6786 123.302 58.6408 118.931L58.6218 116.13L59.9086 114.844C60.6087 114.143 61.2332 113.557 61.29 113.538C61.3467 113.519 61.4981 113.708 61.6117 113.935ZM58.1866 114.692C57.9974 116.206 57.0513 116.736 56.8053 115.468C56.6917 114.844 56.7296 114.73 57.3162 114.238C57.6568 113.954 58.0163 113.708 58.1299 113.708C58.2245 113.708 58.2434 114.125 58.1866 114.692ZM56.3322 116.206C56.3511 116.622 55.0833 117.058 54.7805 116.736C54.6102 116.585 54.7238 116.357 55.2914 115.847C55.9727 115.203 56.0483 115.184 56.1808 115.525C56.2565 115.714 56.3322 116.036 56.3322 116.206ZM58.0352 118.477L58.0163 120.615L57.5622 118.723C57.1459 116.963 57.1459 116.812 57.4297 116.585C57.6 116.471 57.8082 116.357 57.9028 116.357C57.9785 116.357 58.0542 117.322 58.0352 118.477ZM54.2696 117.095C54.2696 117.19 54.1371 117.322 53.9668 117.379C53.7019 117.474 53.683 117.455 53.8911 117.209C54.1561 116.887 54.2696 116.849 54.2696 117.095ZM57.2973 120.237C57.846 122.867 57.9217 123.643 57.4865 122.28C57.354 121.883 56.8053 120.691 56.2376 119.612C55.6699 118.534 55.2157 117.587 55.2157 117.493C55.2157 117.398 55.4996 117.247 55.8402 117.152C56.616 116.944 56.5971 116.906 57.2973 120.237ZM55.0076 118.496C56.0105 120.293 56.7296 121.826 57.1837 123.075L57.6757 124.4L56.9566 125.062C56.143 125.8 49.993 130.152 48.4035 131.098C46.076 132.499 40.6263 136.624 38.734 138.44L37.4851 139.651L36.6714 137.702C36.2172 136.624 35.4036 134.561 34.8548 133.104C33.9087 130.644 33.8708 130.436 34.1736 130.209C35.4225 129.282 39.2449 126.633 41.2129 125.327C42.5185 124.475 44.4297 123.132 45.4705 122.337C46.5112 121.542 47.9683 120.577 48.6874 120.199C50.1634 119.423 54.0615 117.701 54.3642 117.682C54.4778 117.682 54.7616 118.042 55.0076 118.496ZM22.2144 118.723C22.3657 119.366 22.063 120.539 21.6845 120.785C21.1547 121.107 20.587 120.445 20.587 119.48C20.587 118.571 20.833 118.25 21.571 118.25C21.9684 118.25 22.1197 118.363 22.2144 118.723ZM58.2434 126.33C58.3948 127.068 58.4137 127.938 58.3191 129.111C58.0731 131.647 58.4705 136.302 59.1138 138.459L59.2463 138.894L53.7776 138.857C48.3089 138.819 48.3089 138.819 47.1357 139.311C46.4734 139.576 44.5244 140.73 42.7835 141.903L39.6233 144.004L38.6961 142.187C38.1474 141.052 37.8257 140.219 37.9014 140.011C38.1852 139.14 44.8839 133.804 48.5928 131.496C49.4821 130.947 50.8824 130.001 51.715 129.414C52.5476 128.828 54.2507 127.617 55.4996 126.727C56.7485 125.838 57.8271 125.138 57.9028 125.175C57.9785 125.213 58.1299 125.743 58.2434 126.33ZM35.1197 135.337C36.0848 137.74 36.9363 139.916 36.9931 140.124C37.0498 140.37 36.8985 140.825 36.6146 141.279C36.3497 141.695 36.028 142.414 35.8955 142.868C35.7631 143.322 35.5928 143.777 35.536 143.852C35.3468 144.06 33.1328 141.6 31.7515 139.67C30.3133 137.646 28.1183 133.804 28.2507 133.558C28.3264 133.464 29.1969 132.953 30.1998 132.442C31.2027 131.931 32.3002 131.344 32.603 131.155C32.9247 130.947 33.2085 130.814 33.2464 130.871C33.3031 130.909 34.1357 132.915 35.1197 135.337ZM28.6292 135.791C30.4079 138.894 32.0921 141.241 33.7573 143.001L35.4225 144.779L35.1386 145.839L34.8737 146.899L33.1139 147.902C30.9567 149.132 30.8432 149.113 30.1619 147.069C29.6699 145.65 29.1969 144.761 29.0076 144.95C28.9698 145.007 29.1212 145.555 29.3672 146.161C30.0484 147.883 30.1052 148.148 29.8213 148.148C29.6889 148.148 28.8941 147.769 28.0804 147.296C27.2478 146.823 26.5288 146.501 26.472 146.558C26.2828 146.729 27.0018 147.183 29.0644 148.205C31.0135 149.151 31.0135 149.17 30.5972 149.491C30.2187 149.775 30.0673 149.775 29.0644 149.548C28.4589 149.397 27.683 149.151 27.3803 148.98C27.0586 148.829 26.6991 148.734 26.5855 148.772C26.2071 148.905 27.6074 149.643 28.667 149.87L29.651 150.097L27.6263 151.516C24.5419 153.673 24.9014 153.503 24.1066 153.143C23.5579 152.878 23.4065 152.67 23.3308 152.14C23.0848 150.608 22.7442 149.397 22.555 149.34C22.4225 149.302 22.4225 149.643 22.5928 150.456C22.8956 151.857 22.9145 152.5 22.6874 152.5C22.5171 152.5 19.8112 151.402 19.6787 151.289C19.6409 151.251 20.1896 149.983 20.8708 148.488C21.571 147.012 22.6496 144.552 23.274 143.039C23.8985 141.525 24.9014 139.216 25.5258 137.911C26.1314 136.586 26.6423 135.432 26.6423 135.337C26.6423 135.091 27.3803 134.145 27.5506 134.145C27.6263 134.145 28.1183 134.883 28.6292 135.791ZM38.3177 142.66L39.0935 144.344L38.1474 144.931L37.1823 145.517L36.5578 144.912C36.0659 144.42 35.9523 144.193 36.028 143.814C36.1983 143.095 37.2012 140.957 37.3715 140.957C37.4472 140.957 37.8824 141.733 38.3177 142.66ZM36.2551 146.104C35.5549 146.653 35.4036 146.52 35.6496 145.555C35.7631 145.158 35.782 145.158 36.2362 145.442L36.7092 145.763L36.2551 146.104ZM85.7761 149.075C90.7149 150.702 91.9449 151.27 92.7586 152.368C93.0992 152.822 93.1181 152.916 92.8721 153.068C92.4748 153.333 91.8314 153.162 88.8037 152.027C85.8707 150.929 84.8299 150.437 83.6946 149.624C82.8998 149.075 81.9726 147.807 82.4835 147.996C82.6349 148.053 84.1109 148.545 85.7761 149.075ZM67.0236 151.573C67.0993 151.63 66.7397 152.519 66.2667 153.56C65.7936 154.582 65.1502 155.963 64.8475 156.606C64.5447 157.269 64.2041 157.798 64.1095 157.798C63.9959 157.798 62.4443 156.985 60.6466 156.001C57.7892 154.43 57.2026 154.184 55.9348 153.995C54.1561 153.711 53.4559 153.862 48.6684 155.584C46.814 156.247 45.0731 156.871 44.8082 156.928C44.0513 157.136 48.6874 152.784 49.8417 152.197C50.5986 151.838 51.2798 151.686 52.7747 151.573C54.9697 151.384 66.8533 151.402 67.0236 151.573ZM24.1823 153.862C24.1823 154.071 19.2246 157.325 16.0834 159.199C15.932 159.293 16.0266 158.953 16.2915 158.442C16.5375 157.931 17.3133 156.228 18.0135 154.657L19.2813 151.819L21.7224 152.765C23.0848 153.295 24.1823 153.787 24.1823 153.862ZM69.2565 154.014C69.1997 155.641 69.2565 156.398 69.4835 157.041C69.6538 157.515 69.7863 157.95 69.7863 158.007C69.7863 158.063 69.37 158.461 68.8591 158.896L67.9319 159.672L66.3991 158.972C65.5665 158.593 64.8664 158.177 64.8664 158.063C64.8664 157.95 65.4341 156.663 66.1153 155.225C66.7965 153.787 67.4399 152.405 67.5345 152.159C67.6859 151.781 67.8183 151.724 68.4996 151.781L69.3132 151.838L69.2565 154.014ZM70.8838 152.576C71.4137 152.916 72.4355 153.446 73.1735 153.73L74.4981 154.26L73.1357 155.301C72.3787 155.887 71.4515 156.644 71.0541 156.985C70.6568 157.344 70.2594 157.571 70.1648 157.515C69.8998 157.344 69.5971 156.095 69.5971 155.13C69.5971 154.222 69.8052 151.932 69.8809 151.932C69.9188 151.932 70.3729 152.216 70.8838 152.576ZM77.5825 155.282L79.4559 155.982L77.0337 157.004C74.0818 158.234 72.6626 158.631 71.6597 158.461C71.2623 158.385 70.8838 158.253 70.8271 158.177C70.6378 157.893 74.7819 154.6 75.3496 154.6C75.5388 154.582 76.5607 154.903 77.5825 155.282ZM58.2055 166.976C58.7543 167.146 59.1895 167.298 59.1895 167.335C59.1895 167.373 59.0003 167.998 58.7922 168.698C58.3191 170.212 57.7892 171.328 56.5593 173.296C56.0673 174.091 55.5564 175.018 55.4239 175.34C55.2725 175.68 55.1211 175.964 55.0454 175.964C54.7805 175.964 51.8096 168.963 51.8096 168.319C51.8096 168.017 53.3424 167.298 54.667 166.976C56.0673 166.635 57.0513 166.635 58.2055 166.976ZM62.747 169.247C62.7659 169.266 61.8009 170.117 60.5709 171.139C59.3409 172.161 57.8839 173.429 57.354 173.958C56.8053 174.488 56.3511 174.848 56.3511 174.772C56.3511 174.715 56.7485 174.053 57.2216 173.315C58.3002 171.65 59.1138 169.89 59.4166 168.641L59.6437 167.676L61.1764 168.433C62.009 168.849 62.7092 169.209 62.747 169.247ZM51.4312 169.114C51.4312 169.455 52.7747 172.766 53.7019 174.696C54.1371 175.605 54.4399 176.475 54.3831 176.627C54.2696 176.948 52.5098 176.986 45.4516 176.778L41.0993 176.664L39.9829 175.662L38.8664 174.678L39.699 174.45C41.6859 173.921 44.9596 172.255 49.0469 169.701C51.0906 168.433 51.4123 168.357 51.4312 169.114ZM64.8285 170.079C67.6859 171.271 70.2972 173.164 71.584 175.018L72.1138 175.794L71.2812 176.664C69.5025 178.519 68.1968 179.522 66.4181 180.373L65.453 180.846L64.0905 180.014C63.3336 179.541 62.2361 178.708 61.6306 178.159C60.3817 177.005 60.0789 176.91 57.3729 176.91C55.9727 176.91 55.405 176.854 55.405 176.683C55.405 176.191 62.7092 169.549 63.2769 169.531C63.3904 169.531 64.0905 169.777 64.8285 170.079ZM83.0701 175.529C83.5432 176.248 84.6975 177.648 85.6626 178.67C87.1953 180.335 87.8008 181.282 87.517 181.565C87.4035 181.679 85.4922 180.108 84.2812 178.878C83.2594 177.838 82.3511 176.191 82.1618 175.037C82.0861 174.602 82.0861 174.261 82.124 174.261C82.1808 174.261 82.5971 174.829 83.0701 175.529ZM58.2434 188.718L58.9057 188.964L56.635 191.311C55.386 192.616 53.9101 194.338 53.3424 195.171C49.993 200.11 48.1197 202.608 48.0629 202.229C47.9494 201.548 48.4035 197.536 48.8009 195.682C49.0091 194.717 49.3875 193.392 49.6335 192.749C50.258 191.14 51.1473 189.04 51.2987 188.907C51.715 188.491 57.1837 188.34 58.2434 188.718ZM50.1066 189.948C49.9174 190.459 49.5389 191.386 49.274 191.992C48.3089 194.282 47.7034 197.461 47.5331 201.037L47.4195 203.497L46.322 205.389C45.7354 206.43 44.846 208.095 44.373 209.079C43.5214 210.877 41.5724 213.81 39.4152 216.535C38.8097 217.33 38.242 217.973 38.1663 217.973C37.504 217.973 38.1852 200.81 38.98 197.252C39.5855 194.509 42.0455 191.803 45.4516 190.1C46.7005 189.456 48.2143 189.116 49.8606 189.04L50.485 189.021L50.1066 189.948ZM78.9639 191.292C80.0992 192.03 81.2157 192.806 81.4238 193.014L81.8023 193.411L81.14 193.279C79.3234 192.957 75.993 190.8 75.3496 189.57L75.0658 189.002L75.9741 189.494C76.4661 189.759 77.8096 190.573 78.9639 191.292Z" fill="black"/>
<path d="M102.201 29.445C101.652 30.902 101.728 33.4188 102.409 35.0272C102.693 35.7463 103.034 36.314 103.128 36.314C103.337 36.314 103.337 36.295 102.636 34.3271C102.05 32.7376 102.012 31.4508 102.504 29.8991C102.939 28.5178 102.693 28.1772 102.201 29.445Z" fill="black"/>
<path d="M63.1065 79.8363C62.5009 81.2556 62.0657 83.4506 62.5009 83.0343C62.5388 82.9775 62.8037 82.1828 63.0686 81.2556C63.5795 79.5147 63.5985 78.701 63.1065 79.8363Z" fill="black"/>
<path d="M19.6976 189.248C17.3133 194.017 15.9698 197.271 16.1022 197.99C16.1779 198.464 16.1401 198.539 17.0862 195.928C17.4647 194.887 18.7893 192.011 20.0382 189.532C21.2681 187.053 22.29 184.934 22.29 184.839C22.29 184.234 21.7412 185.18 19.6976 189.248Z" fill="black"/>
</svg>
