<svg width="127" height="133" viewBox="0 0 127 133" fill="none" xmlns="http://www.w3.org/2000/svg">
<g clip-path="url(#clip0_117_60)">
<path d="M68.558 17.0068C67.5717 17.5987 66.5583 18.8328 65.2561 21.0476C63.8903 23.3735 63.2003 24.403 61.4912 26.7047C59.308 29.6401 57.0579 32.7601 55.695 34.7321C54.3237 36.7341 52.8814 38.741 50.3312 42.2209C49.2753 43.6589 47.7532 45.755 46.9507 46.8845C46.1454 48.0058 45.1775 49.3518 44.7943 49.8745C42.7593 52.6802 40.8636 55.4679 39.7445 57.2974C39.4129 57.8395 39.1093 58.3001 39.0765 58.3107C39.0437 58.3214 36.9423 59.2485 34.4223 60.3659C31.8941 61.486 29.4589 62.5577 29.013 62.7478C28.329 63.0425 28.14 63.1582 27.8401 63.4909C27.0836 64.3158 26.537 65.8145 26.552 66.9769C26.5615 67.8154 26.7962 68.454 28.4777 72.2058C29.2888 74.0325 30.6409 77.0498 31.4762 78.9229C32.3088 80.7879 33.5082 83.4747 34.14 84.8892C35.3689 87.6388 39.2213 96.2864 40.3243 98.7603C40.6911 99.5822 41.4353 101.259 41.9842 102.474C43.885 106.733 44.9506 109.12 45.3174 109.942C45.9543 111.4 46.3084 112.099 46.5112 112.305C47.2468 113.034 49.105 113.507 50.2956 113.265C50.6015 113.202 51.7915 112.707 53.6878 111.846C55.3022 111.122 58.5913 109.638 61.0047 108.555C63.4182 107.472 67.9742 105.422 71.1292 103.998C74.2842 102.575 78.6842 100.602 80.8979 99.6027C83.1198 98.6002 87.6922 96.5445 91.0607 95.0247C94.4318 93.5131 98.8291 91.5324 100.829 90.6291C102.832 89.734 105.752 88.4234 107.317 87.7157C108.882 87.0081 112.3 85.4723 114.911 84.2984C117.521 83.1244 121.453 81.3582 123.65 80.3637C125.85 79.3775 127.758 78.4953 127.892 78.4064C128.432 78.059 129.028 76.9064 129.191 75.9031C129.28 75.3403 129.137 74.8983 128.237 72.9104C127.241 70.7367 127.018 70.2206 125.643 67.1025C124.982 65.598 123.753 62.8211 122.912 60.9316C122.08 59.0394 120.774 56.0796 120.008 54.3648C119.251 52.6474 118.247 50.3675 117.773 49.2999C117.299 48.2322 116.378 46.1516 115.725 44.6717C115.072 43.1918 114.079 40.9446 113.517 39.6886C110.851 33.6597 110.404 32.6467 110.206 32.1499C109.794 31.1617 109.039 30.122 108.419 29.6903C107.939 29.3576 107.216 29.113 106.336 28.9734L105.639 28.8651L104.668 29.2802C104.137 29.516 102.564 30.1991 101.185 30.8101L98.6704 31.9166L97.6843 31.4769C97.1411 31.2281 96.2473 30.849 95.7065 30.6356C92.4755 29.3418 91.0852 28.6624 84.8556 25.3387C78.6885 22.04 77.5464 21.3433 74.7238 19.1296C72.7544 17.5888 72.4995 17.4182 71.6662 16.9741C70.5531 16.3947 69.5688 16.4069 68.558 17.0068ZM68.6497 17.4565C68.1587 18.4847 68.932 19.6089 70.0747 19.5543C71.1984 19.4969 71.829 18.0613 71.1192 17.188C70.5983 16.5338 72.0633 17.4151 73.9922 18.9149C77.6683 21.7742 78.1213 22.0523 86.3733 26.4382C91.6313 29.227 92.169 29.4866 96.3235 31.1952C97.4321 31.6494 98.3286 32.0367 98.3257 32.0558C98.2954 32.1018 98.5717 31.9758 76.313 41.8232C72.9831 43.2942 71.7464 43.8409 66.3644 46.223C64.0604 47.2521 59.3679 49.3288 55.9423 50.84C52.5166 52.3512 47.493 54.5807 44.7677 55.7919C42.0398 56.995 39.7689 57.9862 39.7088 57.9967C39.5752 58.0039 41.2847 55.3129 42.7303 53.2326C43.8447 51.6398 49.7046 43.5013 51.9736 40.4114C53.2363 38.689 54.0278 37.5813 57.2855 32.9304C58.1213 31.7359 59.4036 29.962 60.1286 28.9844C63.406 24.5896 63.7039 24.167 65.028 21.9361C66.3688 19.6726 66.9151 18.8707 67.553 18.211C68.0094 17.746 68.5256 17.2978 68.7528 17.1878C68.7747 17.1716 68.7246 17.2965 68.6497 17.4565ZM70.0934 16.9332C70.5183 16.9851 70.9977 17.3723 71.1227 17.757C71.3833 18.5591 70.5912 19.4137 69.7281 19.2688C68.6853 19.1009 68.4057 17.6263 69.31 17.061C69.5894 16.8888 69.685 16.8758 70.0934 16.9332ZM106.083 29.2003C106.808 29.2816 107.893 29.6349 108.242 29.9014C109.161 30.6074 109.29 30.8369 110.95 34.5777C111.71 36.3033 112.558 38.2174 112.829 38.8263C113.099 39.4352 114.015 41.4995 114.863 43.4135C122.653 61.0251 125.956 68.4847 127.701 72.4058C129 75.3138 129.013 75.3547 128.927 75.9257C128.854 76.456 128.385 77.5225 128.063 77.8986C127.812 78.1881 128.286 77.9709 120.044 81.6804C107.268 87.4241 104.611 88.6222 102.269 89.6728C100.884 90.2946 98.6237 91.3186 97.2473 91.9377C94.5657 93.1439 81.8252 98.8851 68.71 104.784C64.3209 106.762 58.5144 109.373 55.8191 110.593C50.1083 113.163 50.0837 113.171 48.8093 112.988C47.8481 112.848 46.941 112.428 46.5795 111.957C46.4527 111.79 45.9273 110.703 45.416 109.548C44.9129 108.39 44.1446 106.667 43.7162 105.712C43.2796 104.759 42.6961 103.437 42.4124 102.787C42.1179 102.132 41.3577 100.406 40.7044 98.9535C40.0511 97.5008 39.007 95.1526 38.3752 93.7381C37.7433 92.3237 36.6268 89.8361 35.8986 88.2087C35.1703 86.5813 33.8185 83.5368 32.8868 81.4507C31.9551 79.3645 30.7557 76.6777 30.2229 75.4844C26.7637 67.7678 26.8091 67.8797 26.8253 66.8972C26.8378 66.0425 27.0486 65.2683 27.4637 64.509C27.995 63.5491 28.3574 63.2414 29.5609 62.7598C30.4663 62.3933 32.6552 61.4287 37.0742 59.459C38.0565 59.0222 38.869 58.6767 38.8799 58.6823C38.9125 58.6988 37.2989 61.3224 36.6556 62.3006L36.2139 62.978L34.4955 63.7444C33.5542 64.1679 32.4625 64.6584 32.0821 64.8272C31.7018 64.996 31.3651 65.1597 31.3512 65.2004C31.2266 65.4309 31.7324 65.2575 33.5684 64.4347C34.7012 63.9309 35.6999 63.4888 35.7819 63.4622C35.9433 63.4007 35.0434 64.7608 34.1231 65.9466C33.6353 66.5938 33.5914 66.6261 33.4121 66.5486C32.858 66.2943 32.3797 67.1103 32.7292 67.7116C32.8879 67.9767 33.3145 68.1458 33.5851 68.0578C33.864 67.9673 34.0721 67.5196 33.971 67.2086C33.8647 66.8812 33.7058 66.9781 33.7272 67.3511C33.7563 67.8032 33.2995 67.9878 33.0269 67.6511C32.7407 67.3007 32.9673 66.6027 33.3148 66.7793C33.3908 66.818 33.3846 66.9105 33.266 67.0757C33.0949 67.3304 33.0854 67.4963 33.2412 67.4457C33.3642 67.4057 34.3425 66.1196 35.49 64.489L36.4304 63.17L40.6606 61.2888C42.9892 60.2517 45.241 59.2576 45.6515 59.07C46.4177 58.7215 54.6017 55.0851 56.6237 54.1928C57.2339 53.9222 60.4598 52.494 63.7952 51.0121C67.128 49.522 73.7769 46.5744 78.5708 44.4467C83.3619 42.3108 87.6249 40.419 88.0354 40.2313C89.6471 39.4995 101.678 34.1698 101.818 34.1245C102.039 34.0525 104.17 35.4775 104.261 35.7557C104.362 36.0667 105.05 36.205 105.442 35.9872C106.066 35.6486 106.128 34.8052 105.552 34.4854C105.129 34.2429 104.582 34.4569 104.297 34.9748C104.222 35.1076 104.129 35.1832 104.072 35.1474C103.716 34.9462 102.296 33.9509 102.313 33.9183C102.324 33.8966 102.707 33.7088 103.167 33.5051C103.949 33.1513 104.193 32.9815 104.03 32.8987C103.995 32.874 103.511 33.0584 102.972 33.2969L101.979 33.7282L101.605 33.4969C100.905 33.0728 100.237 32.6925 99.6453 32.378L99.0536 32.0636L99.4394 31.8839C99.642 31.7819 100.903 31.2273 102.236 30.6405C103.568 30.0537 104.709 29.5473 104.77 29.5096C105.087 29.3158 105.735 29.1598 106.083 29.2003ZM99.9277 32.8564C100.585 33.2039 101.241 33.5787 101.385 33.6859L101.648 33.881L100.403 34.4303C96.5365 36.148 77.6977 44.5222 76.4636 45.077C75.6564 45.4389 71.5931 47.2477 67.4341 49.0968C63.2751 50.9458 57.1432 53.6711 53.8078 55.153C50.4723 56.6349 47.052 58.1625 46.2038 58.5376C45.3556 58.9127 42.8766 60.0168 40.6985 60.9869C38.5205 61.957 36.7283 62.7475 36.7093 62.7446C36.6984 62.7391 36.9582 62.3108 37.2951 61.7851C37.632 61.2594 38.2205 60.3081 38.6101 59.6657C38.9998 59.0234 39.397 58.46 39.4792 58.4061C39.5723 58.3578 42.489 57.0662 45.953 55.5335C53.0341 52.4092 59.7159 49.451 62.5615 48.1916C63.6067 47.7253 67.0707 46.1926 70.2501 44.7885C77.6542 41.5141 80.8719 40.0886 84.1225 38.6524C85.5644 38.0119 89.0202 36.4819 91.8111 35.2493C94.602 34.0167 97.1357 32.8858 97.4367 32.7518C97.7432 32.607 98.159 32.4357 98.3614 32.3609L98.736 32.2301L99.9277 32.8564ZM105.436 34.6861C105.624 34.7609 105.751 35.2354 105.637 35.4442C105.576 35.5363 105.439 35.6714 105.327 35.7441C105.107 35.8787 104.71 35.8541 104.749 35.6965C104.76 35.6476 104.706 35.5656 104.636 35.5161C104.178 35.2216 104.89 34.4835 105.436 34.6861Z" fill="black"/>
<path d="M109.843 40.1854C109.821 40.2561 110.254 41.2281 112.108 45.2588C112.553 46.2364 113.396 48.0797 113.983 49.3549C120.944 64.5571 123.202 69.4698 123.265 69.522C123.573 69.7746 123.22 68.912 121.407 64.9496C120.285 62.5001 119.157 60.0343 118.903 59.4745C118.646 58.9065 117.939 57.3718 117.336 56.0474C116.725 54.7256 115.678 52.4236 114.992 50.9272C114.307 49.4307 113.399 47.4455 112.978 46.5143C112.55 45.5858 111.77 43.8845 111.251 42.7322C110.723 41.5826 110.23 40.5121 110.142 40.3509C110.008 40.0777 109.877 40.0115 109.843 40.1854Z" fill="black"/>
<path d="M84.3186 52.3154C84.2348 52.5598 84.112 52.9074 84.0559 53.0975L83.9551 53.4289L83.7711 53.2534C83.6765 53.1575 83.5109 53.0665 83.4048 53.0467C83.0971 52.9928 82.4708 53.2416 82.1328 53.5686C81.3828 54.2738 80.419 56.7767 80.0659 58.9545C79.9539 59.6424 79.8954 59.7972 79.7562 59.8152C79.658 59.82 78.8697 59.8771 77.9969 59.9254C76.2457 60.0329 75.5629 60.1914 74.9101 60.6659C73.8735 61.4099 73.5215 63.1169 74.1123 64.5446C74.5079 65.511 75.171 66.1009 76.0203 66.2593C76.7635 66.3979 77.4552 66.155 78.09 65.5416C78.9941 64.6687 79.6278 63.1869 79.9885 61.0881L80.1656 60.0985L81.6904 59.9921C82.5224 59.9299 83.3545 59.8677 83.5265 59.8389L83.8458 59.7895L84.1955 60.6983C84.9938 62.7645 85.9368 63.7973 86.9705 63.7419C87.4697 63.7155 87.8176 63.5029 88.2474 62.9561C89.0959 61.8841 89.3517 59.9369 88.8958 58.0038L88.7432 57.3386L89.0883 57.145C89.28 57.0375 89.6581 56.8061 89.9241 56.6201C90.5848 56.1702 90.8334 56.0984 90.9052 56.3194C90.9372 56.4176 90.9168 56.9129 90.8553 57.4215C90.7256 58.6128 90.7429 59.1682 90.9291 59.7411C91.2907 60.8542 92.418 61.0309 93.3659 60.1257C93.7341 59.7798 94.1082 59.0339 94.2 58.4793C94.2656 58.1231 94.2822 58.0906 94.349 58.268C94.4447 58.5626 94.8456 58.8757 95.3215 59.0288C96.526 59.4156 98.1221 58.6075 98.8721 57.2327C99.1738 56.6822 99.44 55.7994 99.3655 55.5702C99.2937 55.3493 99.172 55.5607 98.9923 56.2073C98.6602 57.4734 97.9038 58.2983 96.7337 58.6876C95.7195 59.0261 94.9334 58.811 94.5983 58.1146L94.4562 57.8169L95.0631 57.6197C95.5551 57.4598 95.7386 57.355 96.0518 57.0632C96.5603 56.5632 96.9113 55.9695 97.0335 55.3688C97.4334 53.4744 95.2671 53.3367 94.453 55.2119C94.2251 55.7384 94.0662 56.5049 94.0722 57.1092C94.0706 57.2997 94.0063 57.4925 93.9241 57.5464C93.8308 57.622 93.8082 57.7198 93.8693 57.908C94.1486 58.7674 93.4023 60.0143 92.4291 60.3396C92.0847 60.4515 91.9565 60.4479 91.7285 60.332C91.1638 60.0449 90.9812 59.3713 91.0989 57.9757C91.2222 56.5693 91.2198 56.1991 91.093 56.0322C90.9013 55.8049 90.5899 55.8789 89.8691 56.3393C89.5018 56.5763 89.0719 56.8156 88.9132 56.8852C88.6587 56.995 88.6288 56.9867 88.5297 56.7655C88.2326 56.102 87.7403 55.6194 87.4533 55.7127C87.0269 55.8512 87.1122 56.7555 87.5838 57.0909C87.7139 57.1844 87.9639 57.2841 88.1328 57.3017L88.4433 57.3365L88.6228 58.0564C89.0957 59.9025 88.7474 62.1511 87.8764 62.9861C86.7223 64.0941 85.5024 63.2417 84.4498 60.6157L84.1158 59.7832L84.8128 59.5567C85.4935 59.3356 86.2413 58.9026 86.2947 58.7042C86.3344 58.5194 86.2087 58.5512 85.814 58.8152C85.6001 58.9661 85.1349 59.1806 84.7823 59.2952C84.1508 59.5004 84.1426 59.503 84.0735 59.2902C83.9538 58.9219 83.8005 57.3339 83.8072 56.5173C83.8214 55.445 83.9389 54.7462 84.3543 53.2902C84.5506 52.611 84.7054 52.0269 84.6921 51.986C84.6282 51.7895 84.4662 51.9327 84.3186 52.3154ZM83.4834 53.4283C83.6328 53.4974 83.7709 53.6154 83.7895 53.6727C83.8108 53.7382 83.7687 54.2224 83.6909 54.7363C83.6157 55.2584 83.5439 56.0419 83.5321 56.48C83.5088 57.3291 83.6493 58.8218 83.7902 59.2556L83.8753 59.5175L83.5123 59.5721C82.8981 59.6631 80.3996 59.8143 80.3019 59.7646C80.1064 59.6653 80.7503 56.9314 81.3102 55.4737C81.9229 53.8992 82.7966 53.0724 83.4834 53.4283ZM87.8449 56.1646C88.0692 56.4084 88.3666 57.0447 88.2764 57.074C88.2272 57.09 88.0667 57.0426 87.9065 56.968C87.5127 56.7883 87.2891 56.128 87.5925 56.0294C87.6499 56.0108 87.7611 56.0742 87.8449 56.1646ZM78.0193 60.1896C78.6793 60.1561 79.3367 60.1144 79.4676 60.099C79.6042 60.0728 79.7485 60.0983 79.7835 60.1502C79.8887 60.2789 79.4931 62.3258 79.1916 63.1839C78.3766 65.5027 76.7455 66.5937 75.3841 65.724C74.3453 65.0662 73.8223 63.3449 74.2585 62.0088C74.3984 61.5742 74.8419 61.0139 75.2393 60.7581C75.6832 60.4781 76.7783 60.249 78.0193 60.1896ZM96.3804 54.2237C96.9429 54.4481 96.9867 55.0854 96.5186 55.9885C96.1004 56.794 95.4361 57.3447 94.7399 57.4623C94.3878 57.5224 94.366 57.5114 94.3406 57.2934C94.3335 57.16 94.3641 56.7519 94.4188 56.3903C94.6301 54.8919 95.5435 53.8803 96.3804 54.2237Z" fill="black"/>
<path d="M61.886 62.4365C61.8967 62.4693 62.0857 62.6884 62.3155 62.9213C63.4942 64.1491 64.0781 66.7554 63.82 69.6444C63.5834 72.2368 62.1824 73.8683 60.883 73.078C60.5005 72.8494 60.4745 72.6859 60.6189 71.707C60.8669 70.0428 60.8211 68.6461 60.4674 67.5576C60.244 66.8701 60.0173 66.5908 59.7334 66.6378C59.5614 66.6666 59.5195 66.7888 59.4171 67.6455C59.2193 69.1575 59.2621 70.2657 59.5344 71.2992C59.6667 71.7901 59.848 72.2922 59.953 72.4481C60.1658 72.7681 60.1283 73.0155 59.7307 73.9682C59.3027 74.9669 58.489 75.7832 57.8368 75.8685C57.089 75.9667 56.3667 75.2784 56.1542 74.2616C55.9888 73.4738 55.9933 72.9294 56.1731 70.9436C56.3922 68.4926 56.3802 67.9536 56.0824 67.0369C55.8138 66.2102 55.5573 65.8954 54.9164 65.5969C54.3053 65.3068 53.9864 65.3019 53.3 65.5611C52.4332 65.879 51.878 66.4304 51.3128 67.537C50.2047 69.6796 50.4197 71.7362 51.8396 72.4512C52.1546 72.6112 52.8104 72.7601 52.9826 72.7042C53.1712 72.6429 52.9738 72.4537 52.7014 72.4245C52.2654 72.3943 51.839 72.198 51.509 71.8799C51.2845 71.6633 51.1743 71.4639 51.0041 70.94C50.81 70.3426 50.7974 70.22 50.8985 69.5266C50.9851 68.9283 51.1135 68.5699 51.5151 67.797C52.1413 66.571 52.5429 66.1329 53.3306 65.8226C53.7736 65.6515 53.9784 65.6121 54.2344 65.6466C54.9778 65.758 55.4869 66.1807 55.8078 66.9451C56.1205 67.7122 56.1255 68.0906 55.8271 71.9157C55.687 73.7166 55.8321 74.6377 56.3629 75.4063C57.2197 76.6481 58.7412 76.2804 59.6928 74.6049C59.8781 74.2822 60.1002 73.7938 60.1924 73.5196L60.3573 73.0226L60.6119 73.2204C61.0346 73.5445 61.3857 73.6205 61.891 73.5015C63.6337 73.0891 64.5341 70.0005 64.0112 66.2704C63.7891 64.75 63.007 63.0405 62.2996 62.5374C62.0855 62.3808 61.8515 62.3301 61.886 62.4365ZM59.9754 67.0478C60.2642 67.4064 60.5123 68.7284 60.511 69.8961C60.5034 70.8215 60.2811 72.3416 60.1618 72.2536C59.9994 72.1164 59.6386 70.8944 59.5863 70.287C59.5094 69.3528 59.6704 67.0021 59.818 66.9542C59.8508 66.9435 59.9268 66.9822 59.9754 67.0478Z" fill="black"/>
<path d="M34.4546 75.1139C34.4839 75.204 34.7726 75.8974 35.0882 76.6454C35.4064 77.4017 35.9572 78.7338 36.3235 79.6102C36.6898 80.4865 37.2459 81.8351 37.5668 82.5995C37.8877 83.3639 38.5268 84.8845 38.984 85.9847C39.4386 87.0767 40.091 88.6383 40.4279 89.4518C41.3157 91.5703 42.1259 93.5058 43.0884 95.8263C43.5509 96.9428 44.198 98.488 44.5189 99.2524C44.8398 100.017 45.674 102.026 46.3772 103.716C47.0804 105.406 47.6876 106.828 47.72 106.872C47.7632 106.921 47.8366 106.952 47.8858 106.936C47.9514 106.914 47.9066 106.721 47.7087 106.251C47.3986 105.492 45.7356 101.49 44.5511 98.6538C44.1098 97.6028 43.4709 96.0549 43.1205 95.2277C42.7757 94.3896 42.2141 93.0519 41.8773 92.2384C41.5404 91.4249 40.7944 89.6313 40.2196 88.2526C39.1152 85.6073 37.8186 82.4815 37.1446 80.8817C36.9281 80.3548 36.4521 79.2246 36.1019 78.3701C35.7435 77.5183 35.2943 76.4427 35.1017 75.9895C34.8983 75.5308 34.7192 75.0913 34.6926 75.0094C34.666 74.9276 34.5874 74.8808 34.5218 74.9021C34.448 74.9261 34.4227 75.0157 34.4546 75.1139Z" fill="black"/>
<path d="M67.6947 66.2227C67.2534 66.5109 66.7902 67.4849 66.7545 68.1842C66.7438 68.4862 66.7194 68.8018 66.7079 68.8779C66.6675 69.1444 67.2621 70.4443 67.5543 70.7294C68.7089 71.8835 70.1835 71.2596 71.3104 69.147C71.6094 68.5884 71.7459 68.2273 71.6918 68.1725C71.6322 68.1285 71.4392 68.3994 71.1045 68.9877C70.4541 70.1672 69.8273 70.8052 69.1445 70.9637C68.5545 71.1012 68.2309 70.9982 67.7604 70.5267C67.4845 70.2634 67.3499 70.0447 67.2436 69.7174C67.1053 69.2918 67.1082 69.2727 67.3072 69.2714C67.4162 69.2722 67.7001 69.2252 67.9377 69.1751C69.0574 68.938 69.9294 67.6593 69.6209 66.7099C69.3683 65.9323 68.4895 65.7111 67.6947 66.2227ZM68.9616 66.3269C70.1262 66.9257 69.0331 68.9187 67.5031 68.9815C67.154 68.9954 67.0915 68.9705 67.0304 68.7822C66.9931 68.6676 66.9903 68.3519 67.0251 68.0962C67.1393 67.1362 67.5504 66.532 68.2448 66.2974C68.581 66.1881 68.6927 66.1971 68.9616 66.3269Z" fill="black"/>
<path d="M99.6206 62.7718C99.735 63.1237 102.265 69.432 102.648 70.303C102.728 70.4941 102.76 70.6467 102.713 70.6437C102.675 70.638 101.541 70.2462 100.196 69.7605C98.8504 69.2747 97.2711 68.711 96.6784 68.5055C96.0831 68.2917 95.1481 67.9531 94.5935 67.7532C94.039 67.5533 93.5031 67.4107 93.4129 67.4401C93.2489 67.4933 93.2595 67.5261 93.5162 68.1485C93.6631 68.517 94.3849 70.2641 95.1065 72.0385C95.8307 73.821 96.473 75.2954 96.5273 75.323C96.7445 75.4334 96.641 75.087 95.9781 73.4655C94.4038 69.6246 93.6556 67.7684 93.6722 67.7358C93.6751 67.7168 94.0911 67.8531 94.594 68.0336C99.3046 69.7515 102.966 71.032 103.065 71C103.212 70.9521 103.258 71.0912 102.501 69.2377C102.156 68.3996 101.421 66.5843 100.863 65.2003C100.305 63.8164 99.8101 62.6016 99.7509 62.5032C99.579 62.1971 99.493 62.3789 99.6206 62.7718Z" fill="black"/>
<path d="M85.3342 69.169C84.4947 69.4871 83.5348 69.8533 83.2092 69.9953L82.6183 70.2415L82.9574 71.1177C83.1497 71.5981 83.6444 72.7856 84.059 73.7549C84.4763 74.7323 85.1638 76.3458 85.5917 77.3559C86.017 78.3579 86.4372 79.3162 86.515 79.4719L86.6653 79.767L89.2894 78.9143C91.3478 78.2455 91.8975 78.0398 91.8463 77.9659C91.7895 77.9029 91.172 78.0674 89.2671 78.6501L86.7608 79.4192L85.9288 77.4726C85.4714 76.3997 85.0543 75.395 85.0012 75.2313L84.8999 74.9475L86.5054 74.3082C89.2322 73.2413 89.3991 73.1689 89.3539 73.0298C89.314 72.907 88.6223 73.1499 86.5486 74.0227C86.0699 74.2235 85.4655 74.4561 85.2113 74.5387L84.7521 74.6879L83.8722 72.594C83.3827 71.45 82.9625 70.4917 82.9354 70.4642C82.8379 70.3873 83.3249 70.1839 85.1786 69.5273C87.3906 68.7452 87.8913 68.5282 87.8434 68.3809C87.8009 68.25 87.768 68.2606 85.3342 69.169Z" fill="black"/>
<path d="M72.8502 73.8859C72.5763 74.0473 72.0909 74.395 71.7861 74.6569C71.4814 74.9188 71.1578 75.1507 71.0704 75.1609C70.9257 75.1899 70.9308 75.2334 71.0995 75.613C71.2094 75.8397 72.0841 77.89 73.0415 80.1669C74.0071 82.4411 74.8446 84.3769 74.9038 84.4753C75.0704 84.765 75.1921 84.5535 75.0614 84.2069C74.9891 84.0403 74.1654 82.0911 73.221 79.8823C72.2767 77.6736 71.4663 75.7653 71.4047 75.6315C71.3111 75.3994 71.3304 75.3751 71.9014 74.9C73.0213 73.966 74.165 73.4678 75.3651 73.3945C76.2789 73.3329 77.0819 73.4882 77.8394 73.8664C79.6016 74.7416 80.2193 76.5588 79.3358 78.2484C78.4911 79.8621 76.8416 80.8686 74.5575 81.1493C74.0526 81.2138 73.8937 81.3107 74.1 81.4155C74.3172 81.526 75.7999 81.2342 76.5985 80.9295C78.4665 80.2049 79.7928 78.7062 79.9914 77.0853C80.0588 76.5114 80.0437 76.3534 79.8443 75.7396C79.6395 75.1094 79.5724 74.9864 79.1318 74.5233C78.2641 73.6108 77.1801 73.1486 75.7956 73.1008C75.0243 73.0709 73.6226 73.4449 72.8502 73.8859Z" fill="black"/>
<path d="M60.9338 78.898C59.8302 79.4918 58.9614 80.3894 58.3904 81.5341C57.5508 83.1914 57.5129 85.1673 58.2715 86.7486C59.5181 89.3297 62.2089 90.6632 64.9701 90.0647C67.8786 89.4454 69.8656 86.8272 69.7075 83.8291C69.6729 83.0531 69.2315 81.6945 68.8033 81.0463C67.5917 79.1869 65.4875 78.1242 63.319 78.2587C62.618 78.3055 61.4595 78.6186 60.9338 78.898ZM63.3004 78.5362C65.3656 78.3629 67.5212 79.4722 68.5863 81.2435C68.9817 81.9023 69.3487 83.0318 69.4187 83.8053C69.5109 84.8703 69.3295 85.7074 68.7617 86.8058C67.9941 88.322 67.0661 89.1212 65.467 89.6408C63.8761 90.1577 62.4377 90.0279 60.9829 89.2338C59.6746 88.5278 58.9293 87.6569 58.4036 86.2623C57.5579 83.9944 58.017 81.8636 59.7101 80.1823C60.5814 79.3201 62.0564 78.6418 63.3004 78.5362Z" fill="black"/>
<path d="M111.42 82.7632C108.634 84.0121 103.63 86.2445 100.294 87.7264C96.9615 89.2165 92.7231 91.1003 90.8707 91.9284C89.0156 92.7484 82.5854 95.6159 76.5739 98.293C70.5597 100.962 64.2883 103.76 62.6328 104.497C60.9801 105.242 58.4683 106.357 57.0591 106.986C54.684 108.048 54.2294 108.295 54.4852 108.357C54.5342 108.368 55.571 107.931 56.7831 107.393C58.0035 106.852 60.4058 105.79 62.1242 105.024C63.8452 104.266 73.898 99.7959 84.4627 95.0873C95.0299 90.387 106.563 85.2552 110.09 83.693C113.623 82.1199 116.624 80.7827 116.761 80.702C117.057 80.5516 117.006 80.3689 116.687 80.4456C116.58 80.4802 114.208 81.5225 111.42 82.7632Z" fill="black"/>
</g>
<defs>
<clipPath id="clip0_117_60">
<rect width="121.148" height="100" fill="white" transform="translate(0 37.4367) rotate(-18)"/>
</clipPath>
</defs>
</svg>
