<svg width="3066" height="1604" viewBox="0 0 3066 1604" fill="none" xmlns="http://www.w3.org/2000/svg">
<path d="M2 1578.47C2 1578.47 98.9641 1490.38 174 1456.42C263.23 1416.04 323.709 1389.7 420 1407.6C519.063 1426.03 541.844 1513.42 636.5 1547.96C815.458 1613.26 986.97 1639.87 1122.5 1506C1211.2 1418.39 1356.04 1237.1 1235 1207.24C1175.65 1192.6 1118.03 1197.72 1084 1248.5C1032.59 1325.23 1167.25 1396.95 1259 1407.6C1322.78 1415.02 1372.55 1406.06 1416 1358.79C1457.28 1313.86 1464.5 1286.5 1468 1245C1472.42 1192.57 1469.43 1135.73 1473.61 1101.46C1480.66 1043.63 1481.66 1011.14 1486.09 952.971C1493.45 856.222 1543.14 720.06 1543.14 720.06L1621.58 479.012C1621.58 479.012 1667.04 360.014 1690.21 315.263C1701.8 292.887 1781.54 287.006 1791.83 329.502C1810.55 406.8 1794.5 516.644 1810.55 624.455C1816.97 667.595 1825.7 696.667 1823.03 737.35C1821.94 753.858 1804.31 773.965 1804.31 773.965C1804.31 773.965 1802.52 688.531 1785.59 657.001C1773.22 633.973 1733.22 631.682 1724.98 657.001C1713.39 692.599 1738.35 788.204 1738.35 788.204C1738.35 788.204 1708.93 745.487 1701.8 711.923C1690.66 659.481 1673.28 575.635 1673.28 575.635L1664.36 409.851L1670.6 568.515L1700.02 709.889L1650.1 705.821V735.316L1633.16 731.248L1621.58 1015.01L1642.08 1010.94L1657.23 1038.41L1964.75 1055.7L1977.23 1038.41L1994.17 1024.17L2002.19 988.569L2281.19 995.688C2281.19 995.688 2289.59 945.808 2292.78 920.424C2298.64 873.703 2285.64 817.7 2284.75 812.614C2283.86 807.529 2274.06 934.664 2278.51 993.654C2279.05 1000.77 2008.09 995.127 2004.86 991.62C1986.15 971.278 2005.76 794.307 2005.76 794.307L1970.99 782.102C1970.99 782.102 1957.66 882.973 1964.75 946.868C1966.57 963.258 1970.99 988.569 1970.99 988.569L1665.25 980.432C1665.25 980.432 1660.8 893.663 1660.8 874.656C1660.8 820.751 1674.17 760.743 1674.17 760.743H1713.39C1713.39 760.743 1728.24 778.489 1738.35 789.221C1748.84 800.365 1752.88 807.521 1765.98 811.597C1775.78 814.648 1783.93 808.672 1791.83 801.426C1800.81 793.188 1802.52 775.999 1802.52 775.999C1802.52 775.999 1815.09 763.374 1820.35 751.589C1826.83 737.08 1823.51 720.06 1823.51 720.06L1840.85 747.521C1840.85 747.521 1833.27 722.299 1831.05 705.821C1825.7 666.172 1824.4 624.455 1831.94 605.13C1839.2 586.511 1850.51 575.048 1869.38 574.618C1885.26 574.256 1898.27 580.536 1905.03 595.977C1910.38 608.181 1924.64 688.531 1912.16 735.316C1907.21 753.869 1892.02 763.591 1880.07 768.863C1859.3 778.033 1837.29 740.402 1837.29 740.402C1837.29 740.402 1853.33 769.897 1870.27 769.897C1885.59 769.897 1893.46 761.584 1905.03 750.124C1917.26 738.008 1927.21 729.554 1931.77 711.923C1946.5 654.967 1932.69 607.204 1935.34 544.105C1937.6 490.369 1942.47 412.902 1942.47 412.902C1942.47 412.902 1938.01 387.475 1918.4 379.339C1902.48 372.733 1886.32 371.202 1869.38 371.202C1864.03 371.202 1831.94 376.288 1810.55 389.51C1803.32 393.976 1803.42 411.883 1803.42 411.883V450.531L1801.63 303.058C1801.63 303.058 1802.52 210.986 1811.44 198.299C1822.98 181.871 1830.38 167.81 1848.88 161.684C1876.51 152.53 1903.12 152.832 1927.32 167.786C1948.71 181.008 1950.75 211.776 1953.17 242.03C1957.62 297.97 1942.47 400.697 1942.47 400.697L1956.73 315.263L1960.3 352.895L1977.23 493.252L1935.34 538.003L1976.34 497.32C1976.34 497.32 2004.86 567.498 2002.19 556.31C1999.52 545.123 1981.69 461.722 1994.17 415.954C1997.26 404.628 2011.63 392.624 2029.82 393.578C2046.47 394.451 2062.75 395.737 2069.93 412.902C2088.65 457.654 2076.17 544.105 2076.17 544.105C2076.17 544.105 2065.46 570.338 2051.22 578.686C2039.86 585.341 2031.28 586.566 2020.02 579.703C2012.09 574.874 2003.08 559.362 2003.08 559.362C2003.08 559.362 2020.02 580.72 2019.13 583.772C2018.23 586.823 1980.8 624.455 1980.8 624.455L1974.56 654.967L2069.93 769.897L1969.21 651.916L1936.23 671.24L1970.99 715.992H1936.23L1974.56 720.06C1974.56 720.06 1977.23 734.299 1980.8 741.419C1984.36 748.538 1998.62 747.521 1998.62 747.521L1980.8 723.111L2002.19 747.521L2005.76 789.221L2038.74 794.307L2008.43 753.624L2044.08 794.307L2178.68 809.563L2282.97 812.614L2192.05 805.495C2192.05 805.495 2217.52 791.114 2225.03 773.965C2244.64 729.214 2263.36 651.916 2263.36 651.916L2275.84 608.181V591.908L2099.35 797.358L2311.49 556.31C2311.49 556.31 2314.8 546.265 2314.17 538.003C2313.38 527.685 2307.04 516.644 2307.04 516.644L2314.17 504.439L2304.36 488.166V473.927L2270.49 428.159L2254.45 447.483L2293.67 495.286L2249.99 448.5C2249.99 448.5 2249.56 457.235 2247.32 461.722C2242.08 472.219 2228.6 485.115 2228.6 485.115C2228.6 485.115 2212.68 490.567 2202.75 488.166C2189.13 484.872 2174.22 463.756 2174.22 463.756L2159.96 435.278L2116.29 473.927C2116.29 473.927 2110.4 502.982 2101.13 517.661C2094.51 528.156 2078.85 544.105 2078.85 544.105C2078.85 544.105 2093.51 527.413 2099.35 517.661C2109.41 500.847 2115.39 468.842 2115.39 468.842L2112.72 332.553L2110.94 310.177L2126.09 223.726L2135 100.659C2135 100.659 2136.79 53.8738 2126.09 35.5664C2115.39 17.259 2100.24 10.1394 2079.74 6.0711C2059.24 2.00278 2032.75 -2.07295 2009.32 10.1394C1984.1 23.2841 1973.99 47.3153 1968.32 78.2837C1951.38 170.838 1960.3 347.809 1960.3 347.809C1960.3 347.809 1960.3 344.758 1977.23 323.399C1985.39 313.112 2004.67 304.372 2027.15 302.041C2056.56 298.99 2066.54 304.001 2078.85 310.177C2105.09 323.348 2115.39 325.434 2115.39 325.434L2121.63 323.399L2134.11 332.553C2134.11 332.553 2135.12 303.383 2134.11 284.751C2132.97 263.556 2127.87 230.845 2127.87 230.845L2136.79 118.967C2136.79 118.967 2147.74 107.139 2154.61 100.659C2171.73 84.521 2185.09 86.1128 2207.2 88.4543C2233.01 91.1878 2268.71 116.933 2268.71 116.933L2287.43 142.359L2302.58 193.213L2275.84 223.726V185.077C2275.84 185.077 2279.78 303.984 2282.97 373.236C2283.86 392.561 2279.74 403.35 2270.49 419.005C2263.6 430.657 2249.1 445.449 2249.1 445.449L2248.21 362.048C2248.21 362.048 2246.55 331.853 2235.73 319.331C2228.51 310.979 2222.68 307.118 2212.55 305.092C2195.04 301.587 2175.89 315.197 2170.66 334.587C2159.96 374.253 2174.22 459.688 2174.22 459.688C2174.22 459.688 2161.97 436.725 2155.51 422.056C2141.28 389.782 2134.11 334.587 2134.11 334.587C2134.11 334.587 2141.83 401.786 2159.96 439.346C2166.62 453.144 2179.57 473.927 2179.57 473.927C2179.57 473.927 2201.64 491.688 2217.01 489.183C2241.97 485.115 2251.77 448.5 2251.77 448.5L2295.45 500.371C2299.98 489.25 2302.51 483.014 2307.04 471.893L2480.85 251.187C2480.85 251.187 2466.12 220.785 2454.11 203.384C2436.6 177.999 2424.55 165.229 2401.52 146.428C2390.21 137.192 2371.22 125.069 2371.22 125.069L2306.15 193.213L2371.22 129.137C2371.22 129.137 2410.96 151.566 2431.83 172.872C2457.62 199.196 2482.64 253.221 2482.64 253.221L2446.09 300.007C2446.09 300.007 2460.75 284.485 2465.7 291.87C2468.07 295.397 2469.27 302.041 2469.27 302.041C2471.35 333.419 2470.74 352.029 2472.83 383.407C2472.83 383.407 2471.22 425.108 2464.81 450.534C2459.59 471.235 2445.2 498.337 2445.2 498.337C2445.2 498.337 2440.81 469.312 2439.85 448.5C2438.46 418.29 2438.32 400.672 2444.31 371.202C2449.54 345.478 2467.48 302.041 2467.48 302.041C2467.48 302.041 2449.95 340.493 2444.31 363.066C2436.74 393.361 2437.41 411.922 2438.07 443.415C2438.54 466.173 2443.42 501.388 2443.42 501.388V608.181L2429.15 675.309L2406.87 745.487L2362.3 908.22C2362.3 908.22 2354.7 974.067 2334.67 1007.89C2317.42 1037.03 2305 1039 2297.5 1044C2285.5 1052 2290.1 1044.78 2241.97 1101.46C2222.61 1124.27 2216.95 1136 2195.62 1156.39C2171.85 1179.1 2150.38 1187.31 2126.09 1209.27C2109.48 1224.29 2099.6 1232.45 2085.98 1250.97C2074.19 1267.01 2062.18 1282.3 2052.11 1299.79C2040.24 1320.42 2036.76 1325.24 2029.82 1348.61C2025.9 1361.84 2019.5 1408.07 2033.39 1440.15C2061.37 1504.79 2136.07 1502.06 2192.94 1470.66C2249.81 1439.26 2263 1377.3 2314.17 1323C2399.29 1232.68 2433.08 1124.73 2557 1118C2636.49 1113.68 2684.44 1139.92 2749 1186.5C2797.38 1221.41 2793.67 1285.1 2851.5 1299.79C2877.24 1306.34 2893.28 1304 2919.5 1299.79C2985.67 1289.19 3064 1207.24 3064 1207.24" stroke="black" stroke-width="3"/>
</svg>
