<svg width="426" height="936" viewBox="0 0 426 936" fill="none" xmlns="http://www.w3.org/2000/svg">
<path d="M192.775 0.84375C186.265 1.52899 168.107 5.98297 159.156 9.1521C153.075 11.2506 146.951 14.0344 144.21 15.9187C143.139 16.6896 140.184 19.1735 137.657 21.4434C135.088 23.7131 131.919 26.5397 130.548 27.696C127.122 30.6082 123.953 34.9337 123.053 37.8887L122.325 40.3727H120.141C117.272 40.3727 115.088 41.1864 111.405 43.5419C107.422 46.1542 105.238 48.1671 100.056 54.2913C89.2204 67.0536 84.9378 74.5054 84.1241 81.9144C83.8671 84.6982 84.5952 88.8095 85.623 90.0087C86.3511 90.8652 86.3511 90.8652 89.7772 90.0515C91.6616 89.5804 94.7022 89.1949 96.501 89.1949C100.826 89.1949 101.597 89.8373 102.968 94.6339C104.253 99.1307 105.666 100.972 109.006 102.514C111.619 103.713 134.146 110.651 140.955 112.321C146.18 113.606 155.43 113.906 162.368 113.007C182.154 110.394 191.619 107.311 200.698 100.544C202.068 99.4733 203.268 98.7025 203.353 98.7881C203.567 99.0022 201.212 108.381 199.413 114.463C197.358 121.486 195.388 125.854 192.176 130.694C185.794 140.33 179.884 144.955 166.223 151.079C157.829 154.848 149.692 156.861 142.839 156.861H139.841L139.328 153.777C138 145.169 131.49 138.445 124.467 138.445C118.856 138.445 111.704 142.6 108.963 147.396C108.321 148.467 107.764 149.452 107.722 149.538C107.422 149.88 98.9421 144.741 95.987 142.385C89.4346 137.203 86.2226 132.964 83.6102 125.983C80.6123 118.103 80.6551 118.231 82.1969 112.664C83.9528 106.454 84.4239 103.071 84.4239 96.5611C84.4239 91.636 84.381 91.3363 83.5673 91.3363C82.1112 91.3363 79.4132 94.2056 78.3853 96.8181C77.5716 98.8737 77.4003 100.116 77.4003 104.612C77.4003 109.452 77.486 110.308 78.6851 113.863L80.0127 117.803L79.0277 122.129C77.0577 130.908 76.8864 138.06 78.4282 147.439C78.6423 148.724 78.8992 151.122 79.0705 152.792C79.6701 159.987 80.7408 166.326 82.9678 175.833C84.2526 181.443 85.4945 187.525 85.7087 189.323C85.9656 191.251 86.0513 197.203 85.88 203.756C85.623 213.221 85.7087 215.576 86.3082 219.388C88.3639 231.636 90.6766 237.503 98.3853 250.051C103.396 258.189 104.338 260.073 107.122 267.61C109.392 273.735 114.959 286.111 118.814 293.692C120.569 297.161 121.769 298.745 124.895 302C131.105 308.467 136.03 312.107 140.227 313.349L141.854 313.82L140.184 316.39C137.186 321.058 134.274 324.099 129.092 328.039C117.7 336.647 108.45 339.944 95.7729 339.902C88.1926 339.902 82.2825 338.959 70.7622 336.004C58.3853 332.835 56.5866 332.493 51.4474 332.193C42.9678 331.765 36.7579 333.649 30.1198 338.745C18.3853 347.696 10.1626 362.814 4.76646 385.341C2.79644 393.563 2.32535 395.962 1.51165 402.814C-0.28707 418.189 0.612288 440.587 3.6958 455.576C6.13691 467.311 12.775 489.495 17.1862 500.544C20.5266 508.852 25.5802 522.043 27.7643 528.167C32.2611 540.758 44.4239 571.55 46.9935 576.775C49.7344 582.386 55.7729 593.049 57.8714 596.004C59.3275 598.06 59.5845 598.702 59.199 599.216C58.1712 600.672 57.8286 602.171 57.4431 606.925C56.8007 614.72 54.9592 621.272 50.6337 631.036C46.865 639.559 46.2654 641.572 46.2654 645.897C46.2226 652.236 47.4217 654.805 52.2611 658.574C54.8735 660.63 54.8735 660.63 54.0598 661.529C52.9035 662.814 52.6037 664.099 53.1177 665.897C53.9742 668.981 56.4153 671.465 63.1391 676.09L66.3939 678.317L69.4346 684.313C74.274 693.735 76.2868 696.904 79.2847 699.902C82.4967 703.071 86.608 705.683 91.7472 707.782C93.7172 708.595 96.0727 709.58 97.0149 709.966L98.6851 710.651L98.3853 713.092C97.4003 721.7 94.017 733.092 90.0341 741.015C87.1648 746.797 82.2397 754.805 76.8436 762.514C74.7879 765.512 70.2911 772.321 66.865 777.717C58.3425 791.079 52.8607 798.874 45.7087 807.782C35.6016 820.373 27.593 833.178 20.1412 848.724C16.8864 855.533 16.4153 856.818 12.8179 869.024C8.83499 882.514 7.55019 887.739 5.83713 897.974C4.38103 906.497 4.20972 908.167 4.16689 915.747C4.12407 924.227 5.02342 935.019 5.75148 935.019C5.96561 935.019 6.05126 934.206 5.87996 933.221C4.25255 921.144 4.42385 909.58 6.4367 898.189C8.40672 887.011 8.79216 885.426 12.9463 871.122C17.3575 855.919 19.1134 851.55 25.7087 839.302C32.5609 826.54 38.6851 817.332 47.3789 806.754C52.6037 800.33 58.2568 792.364 65.7943 780.63C73.5031 768.595 74.8736 766.54 79.199 760.287C87.1219 748.809 92.2183 739.259 95.1305 730.394C96.8436 725.212 98.9849 715.705 98.9849 713.349C98.9849 711.165 99.4132 710.951 102.154 711.636C105.666 712.578 112.904 713.263 115.43 712.964C118.428 712.578 122.026 710.908 122.497 709.666C122.968 708.424 122.411 706.925 120.912 705.298C118.985 703.242 116.587 702.471 111.619 702.171C109.135 702.043 107.165 701.872 107.208 701.786C107.293 701.743 110.034 700.972 113.332 700.116C123.396 697.503 125.152 696.904 126.48 695.619C128.749 693.349 127.807 689.109 124.595 687.139C122.711 685.983 118.642 684.912 115.901 684.912C113.931 684.869 114.317 684.698 120.184 682.985C130.462 679.987 133.589 678.574 135.816 676.09C137.101 674.634 137.186 674.334 136.972 672.364C136.801 671.208 136.372 669.795 136.03 669.195C135.088 667.782 131.747 665.726 129.863 665.383C129.006 665.212 128.193 665.041 128.021 664.955C127.893 664.869 128.321 663.756 129.006 662.514C129.692 661.315 130.248 659.902 130.248 659.388C130.248 658.36 128.235 655.148 126.779 653.777C124.338 651.55 119.456 650.865 112.904 651.807C107.507 652.578 101.34 652.621 94.3168 651.936C87.3789 651.251 87.5502 651.379 89.5631 648.381C93.2461 642.942 93.032 639.944 88.3211 628.938C86.7793 625.341 85.2376 620.758 84.4239 617.46C83.0106 611.722 81.7258 607.953 80.184 604.955C78.8136 602.214 75.1733 598.06 73.3318 597.161C71.79 596.347 71.5759 596.347 68.835 596.989C67.2504 597.332 65.7515 597.546 65.4517 597.418C65.1519 597.332 64.4667 595.705 63.9528 593.863C63.396 591.979 62.0684 588.167 60.9977 585.341C49.4774 554.72 46.5224 545.169 40.9549 520.672C36.6723 501.7 32.3896 484.227 32.2611 485.041C32.1755 485.426 33.0748 489.752 34.274 494.634C35.4731 499.516 37.7857 509.623 39.456 517.032C45.3232 543.071 47.4217 550.223 56.1583 573.992C62.7536 591.979 64.5523 597.546 63.8671 598.017C62.6251 598.831 60.3125 598.103 58.8564 596.39C57.486 594.805 50.4624 582.386 47.5074 576.347C44.8521 570.994 34.6166 545.212 28.9635 529.666C27.593 525.897 24.2954 517.204 21.6401 510.394C9.86283 479.944 4.68081 461.872 2.36818 443.499C1.46882 435.919 1.08338 413.863 1.72578 406.711C3.52449 387.653 9.94848 365.983 17.229 354.334C24.0812 343.456 32.0042 336.561 40.9549 333.735C43.4389 332.964 44.9378 332.792 49.5202 332.835C55.6444 332.835 56.7579 333.049 70.9335 336.647C82.1541 339.516 86.0085 340.159 92.9892 340.458C106.265 341.015 116.886 337.803 127.293 330.051C134.402 324.741 136.073 323.156 140.826 316.861C149.349 305.683 153.846 298.06 156.158 291.122C157.914 285.94 161.854 268.938 162.411 264.27C163.053 258.702 162.068 249.495 160.826 249.066C160.056 248.81 156.629 252.15 155.173 254.634C151.362 260.972 150.034 268.381 149.52 286.411C149.306 293.692 148.921 300.63 148.664 301.829C148.107 304.655 146.094 308.638 144.167 310.908C141.854 313.649 139.884 313.392 134.531 309.752C130.976 307.311 123.353 299.944 121.426 296.989C119.97 294.848 115.944 286.54 111.19 275.919C110.205 273.692 108.664 269.837 107.764 267.353C105.323 260.544 104.21 258.274 99.0277 249.88C92.4753 239.131 90.7194 235.448 88.7494 227.953C86.7365 220.416 86.4795 217.332 86.3939 201.829L86.3511 187.054L83.91 176.775C81.0406 164.57 80.7836 163.242 79.9271 155.148C79.5845 151.722 78.9849 146.797 78.6423 144.227C77.6144 136.475 77.9571 129.409 79.8414 121.315L80.3982 118.959L81.8114 123.199C84.1669 130.18 86.1798 133.735 90.2055 137.974C96.4581 144.527 105.152 149.88 115.302 153.349C121.169 155.362 125.238 156.261 132.175 156.989L137.272 157.503L138.471 160.287C139.413 162.471 139.627 163.756 139.67 166.283C139.67 172.45 136.501 184.441 133.032 191.336L130.891 195.619L127.764 195.919C123.867 196.261 120.698 197.717 118.3 200.33C115.73 203.114 115.901 203.67 119.242 203.456C122.754 203.242 126.051 201.657 128.792 198.831C131.233 196.304 131.619 196.304 136.201 198.403C141.255 200.801 145.923 203.927 151.447 208.681C154.488 211.293 158 213.906 159.242 214.505C162.968 216.261 167.807 216.604 177.186 215.747L179.37 215.533L179.884 218.231C181.597 227.096 189.049 232.664 199.199 232.664C206.051 232.664 211.533 230.608 223.396 223.67C226.223 222 229.563 220.33 230.805 219.987C235.345 218.66 239.199 220.159 242.882 224.655C245.537 227.953 248.193 229.923 250.848 230.565L252.647 231.036L251.876 232.364C250.505 234.72 247.293 243.371 245.752 248.938C244.038 255.062 240.955 268.124 237.486 284.27C236.158 290.394 234.017 300.116 232.732 305.897C229.392 321.015 223.824 348.296 222.325 357.161C221.083 364.356 220.441 367.696 216.972 386.197C216.201 390.437 214.745 398.445 213.76 403.97C212.818 409.495 211.704 415.362 211.405 417.032C209.477 426.197 207.079 440.501 204.724 456.004C202.668 469.88 201.169 479.345 199.841 487.054C196.544 505.94 195.345 513.306 194.531 520.244C193.032 532.578 191.919 542.257 191.233 548.081C189.649 562.343 187.422 574.591 184.595 585.041C183.31 589.752 180.313 597.246 179.927 596.818C178.728 595.619 177.614 581.957 176.929 560.073C176.715 552.535 176.415 545.298 176.287 544.013C176.158 542.728 175.859 532.193 175.644 520.672C174.36 458.231 172.904 436.219 169.049 418.959C166.865 409.323 165.152 402.685 164.895 402.685C164.724 402.685 164.724 403.285 164.938 403.97C166.608 409.794 169.82 425.341 170.677 431.807C172.604 446.069 173.974 468.51 174.574 495.191C175.43 533.649 175.73 546.111 175.859 547.268C175.944 547.953 176.116 553.049 176.287 558.574C176.801 577.717 178.128 594.591 179.37 597.76C179.841 599.045 180.527 598.146 182.111 594.077C185.152 586.583 188.407 573.092 190.163 560.929C191.062 554.762 192.261 544.955 194.488 525.383C195.216 519.259 196.672 509.152 197.743 502.899C201.298 482.043 201.769 479.216 204.124 463.713C207.079 444.441 209.178 431.722 210.762 423.456C212.689 413.478 214.103 405.854 214.831 401.401C215.216 399.174 216.672 391.251 218.043 383.842C219.456 376.433 221.383 365.897 222.325 360.501C224.338 349.152 229.349 324.141 231.79 313.178C233.332 306.326 234.916 299.045 238.6 281.914C240.57 272.792 245.837 250.437 246.822 247.225C248.235 242.471 251.533 233.906 252.518 232.493C253.246 231.379 253.674 231.165 255.088 231.165C256.629 231.165 256.801 231.251 257.058 232.578C257.229 233.349 257.143 235.576 256.929 237.503C256.415 241.7 256.801 251.636 257.7 258.146C259.199 269.024 261.94 279.045 265.195 285.598C268.492 292.278 280.141 305.298 287.122 310.094C291.019 312.792 296.373 315.362 300.27 316.433C303.91 317.46 315.473 317.46 324.381 316.433C333.289 315.405 350.505 312.193 356.373 310.48C372.176 305.769 391.619 300.458 394.06 300.116C396.63 299.773 401.64 300.844 404.424 302.343C409.477 305.041 414.702 311.251 418 318.445C424.081 331.593 425.623 342.214 425.195 367.996C424.809 389.752 423.824 399.302 419.499 423.028C416.116 441.743 414.488 448.167 410.591 458.445C409.306 461.829 405.666 471.422 402.497 479.859C393.375 503.927 387.465 516.904 378.086 533.52C372.732 542.942 364.938 554.848 364.938 553.606C364.938 552.407 366.994 530.094 367.336 527.953C367.465 527.011 368.364 522.771 369.263 518.531C374.531 494.591 377.058 480.33 380.313 455.362C382.497 438.745 383.053 431.55 382.754 423.499L382.454 416.304L384.381 411.722C388.621 401.657 394.36 381.401 394.788 375.019C395.045 371.079 394.36 365.683 393.546 365.169C392.904 364.741 389.049 367.525 386.394 370.351C383.225 373.777 382.026 375.49 378.471 381.914C376.886 384.741 375.045 387.568 374.36 388.21C372.732 389.709 370.634 390.266 366.651 390.266C362.411 390.266 359.456 389.58 349.949 386.497C338.642 382.814 338.3 382.771 327.679 382.814C319.585 382.857 317.786 382.985 312.561 383.97C302.754 385.897 297.015 388.039 282.925 395.062C271.362 400.844 266.779 404.741 263.225 411.807C256.33 425.469 256.415 444.356 263.439 473.992C268.45 495.148 274.574 511.293 283.31 526.454C297.914 551.807 307.55 561.872 318.899 563.628C322.154 564.141 325.58 563.542 329.349 561.743C331.105 560.929 332.647 560.373 332.775 560.544C333.203 560.972 333.032 574.805 332.475 581.486C332.176 584.998 331.448 593.007 330.891 599.259C330.334 605.512 329.563 614.248 329.178 618.745C327.936 633.82 326.394 642.814 322.711 656.561C320.527 664.698 318.557 673.221 316.073 685.341C315.131 689.923 313.289 697.846 311.961 702.899C309.006 714.163 307.293 722.257 306.651 727.953C306.137 732.15 306.308 747.653 306.865 748.167C307.722 749.024 312.218 742.343 316.244 734.377C321.64 723.585 327.336 707.696 331.619 691.55C335.088 678.317 341.255 656.818 343.096 651.293C348.492 635.276 350.42 627.482 353.332 609.109C354.274 603.328 355.816 593.992 356.758 588.338C357.7 582.685 359.285 572.664 360.227 566.069C362.754 548.681 365.666 532.792 365.752 535.919C365.794 536.518 365.537 539.902 365.195 543.413C364.038 555.233 363.996 556.09 364.424 555.962C364.638 555.876 366.822 552.835 369.221 549.195C381.683 530.48 392.09 509.452 401.897 483.199C404.167 477.204 407.507 468.338 409.392 463.499C415.002 449.066 416.287 444.227 419.97 424.056C424.938 396.861 426.265 382.3 425.923 357.289C425.709 338.959 423.867 329.323 418.514 318.06C414.36 309.409 410.12 304.527 403.996 301.529C400.398 299.73 400.227 299.687 396.03 299.687C392.004 299.687 391.019 299.902 381.212 302.6C375.43 304.227 366.522 306.797 361.383 308.338C345.88 312.921 327.722 316.004 313.332 316.475C301.298 316.861 296.63 315.662 288.535 310.18C282.454 306.111 273.974 297.589 268.878 290.394C262.882 282 259.156 268.51 257.657 249.794C257.101 243.199 257.101 240.801 257.486 238.231C257.743 236.475 257.829 234.034 257.7 232.835L257.443 230.608L258.856 230.351C263.482 229.495 270.934 224.398 276.886 218.103C282.54 212.064 288.021 201.872 290.891 191.979C293.418 183.413 296.415 164.741 297.315 152.364L297.829 145.512L300.355 140.373C305.366 130.094 306.223 121.957 303.053 115.019L302.026 112.75L303.61 110.48C305.837 107.311 308.492 104.784 313.289 101.186C321.126 95.3192 323.953 92.0643 326.565 85.8545C330.291 77.0322 330.634 69.8802 327.679 62.2999C326.009 58.0601 323.396 54.5911 316.415 47.5247C309.606 40.6296 306.437 38.2313 299.413 34.6339C291.747 30.6938 286.908 29.1093 282.154 29.0665C278.514 29.0236 278.385 28.9808 278.128 27.953C277.615 25.8116 276.287 23.756 274.231 21.9144C271.876 19.8159 269.392 18.4883 262.454 15.7046C259.799 14.6339 254.659 12.3641 251.019 10.6082C237.143 4.01294 230.163 2.12854 214.831 1.01508C209.22 0.586792 196.158 0.50116 192.775 0.84375ZM211.619 1.40051C229.734 2.6853 236.33 4.35553 251.662 11.5933C255.687 13.4776 260.784 15.7474 263.011 16.6468C271.447 19.9016 274.617 22.0858 276.544 25.8973C278 28.7667 277.871 29.3234 275.73 30.2228C271.79 31.8502 266.351 38.0172 265.152 42.2999L264.638 44.1414L260.527 45.0836C250.891 47.3106 249.349 47.7817 245.666 49.5804C240.441 52.1072 236.801 55.2335 232.647 60.801C226.265 69.3663 223.096 76.9465 222.24 85.5547C221.597 91.9359 222.325 96.2185 225.152 101.957C226.822 105.426 227.722 106.625 231.062 109.966C235.259 114.163 238.6 116.219 245.023 118.488C257.4 122.942 279.97 121.186 293.118 114.762L297.743 112.493L297.486 114.677C297.272 116.604 296.415 127.568 295.73 136.518C295.388 141.401 294.445 145.897 293.289 148.424C291.919 151.422 286.694 160.03 283.653 164.313C281.469 167.439 272.561 176.818 272.176 176.433C272.09 176.347 272.604 174.891 273.332 173.178C276.629 165.255 277.786 157.032 277.443 143.799C277.143 132.707 276.844 131.593 274.06 130.908C271.576 130.266 268.964 130.737 265.623 132.407C258.128 136.219 253.503 141.529 230.462 172.707C221.64 184.655 217.058 190.351 211.833 195.79C204.681 203.199 196.201 209.966 191.276 212.15C188.835 213.221 183.182 214.677 181.383 214.677H179.97L179.841 202.343C179.713 190.48 179.67 189.966 178.728 188.039C177.614 185.769 175.987 184.398 173.974 184.013C173.246 183.842 170.12 184.099 167.079 184.527C160.741 185.426 158.428 185.169 154.274 183.114C151.19 181.615 146.223 176.647 144.51 173.349C142.026 168.51 140.098 162.685 140.098 159.944V157.375L145.366 157.203C151.662 156.947 157.229 155.619 163.953 152.75C175.345 147.867 181.512 144.099 186.437 138.959C194.659 130.351 198.171 122.985 202.668 104.912L204.467 97.7174L207.465 95.0622C211.49 91.5076 218.171 84.0558 220.441 80.5868C223.225 76.347 224.681 71.2506 223.782 68.8951C222.882 66.4969 216.458 71.4219 212.39 77.6318C209.52 81.9573 207.722 85.8545 205.666 91.9787C203.996 96.9465 203.867 97.2035 201.683 98.9594C195.859 103.713 187.55 107.568 179.071 109.495C174.231 110.608 163.61 112.278 158.428 112.75C152.861 113.221 146.051 112.835 141.126 111.679C137.871 110.951 121.897 106.24 114.617 103.884C106.608 101.315 105.195 100.03 103.31 93.6917C102.197 89.9658 102.111 89.7945 100.141 88.9808C98.0427 88.1243 95.3018 88.1671 90.4624 89.1949C88.2354 89.666 86.2654 89.923 86.0941 89.7517C85.4089 88.938 84.8521 86.2827 84.8521 83.6703C84.8521 78.574 86.865 73.1778 91.0192 66.968C94.7879 61.4005 103.567 50.7795 106.908 47.7388C110.719 44.3555 116.03 41.3577 118.942 40.9722C121.683 40.6296 122.411 40.8866 122.968 42.257C124.295 45.8545 132.518 48.5954 145.452 49.7517C149.178 50.0943 150.934 50.6082 158.728 53.4348C163.696 55.2335 172.004 57.9316 177.272 59.4305C182.54 60.9722 189.092 63.1136 191.833 64.2271C195.944 65.8545 197.358 66.1971 199.713 66.2399C202.197 66.2827 202.754 66.1115 204.424 64.9979C206.993 63.1564 207.079 61.7859 204.852 58.9594C201.769 55.105 195.002 52.1072 185.066 50.1371C180.527 49.2378 178.942 49.1949 164.081 49.1521L148.021 49.1093L139.884 45.8545C130.805 42.257 128.278 41.3577 125.495 40.8866C123.953 40.6296 123.567 40.3727 123.482 39.559C123.182 37.7174 125.794 33.392 129.049 30.1799C134.831 24.5697 142.454 17.9744 145.366 16.09C150.677 12.6211 159.97 9.10931 172.861 5.72601C190.377 1.14355 197.101 0.415527 211.619 1.40051ZM284.681 29.8802C291.233 30.6082 302.839 36.347 310.377 42.5568C313.589 45.2121 320.869 52.8781 323.61 56.4326C330.334 65.2549 330.719 76.6896 324.595 88.4669C322.54 92.3641 319.113 96.09 314.188 99.6874C308.921 103.542 305.537 106.668 303.567 109.452C301.983 111.722 301.769 111.893 301.255 111.208C300.784 110.565 301.126 110.051 303.824 107.182C311.319 99.1735 317.4 84.9979 317.486 75.2763C317.657 60.1586 305.709 44.741 293.803 44.6553C292.946 44.6553 291.533 44.3555 290.677 44.0129C289.82 43.6275 287.122 43.1136 284.724 42.8566C279.67 42.2999 274.617 42.9423 269.006 44.8267C265.238 46.1115 265.152 46.1115 265.152 45.3406C265.152 44.9979 266.394 44.0986 267.893 43.3705C272.989 40.9722 277.4 35.7902 278.214 31.2935C278.514 29.666 279.413 29.1949 281.64 29.4948C282.111 29.5804 283.482 29.7089 284.681 29.8802ZM276.458 34.2485C274.959 37.4177 271.576 40.7581 268.236 42.4712C265.109 44.0558 264.981 43.8416 266.951 39.9016C268.535 36.6896 272.604 32.4498 275.473 31.0365C277.315 30.0943 277.358 30.0943 277.486 30.908C277.572 31.3791 277.101 32.8781 276.458 34.2485ZM127.036 41.8716C130.505 42.7281 145.495 48.6382 144.809 48.8524C143.953 49.1521 136.201 48.0815 132.904 47.1821C129.092 46.1971 124.981 44.1414 124.081 42.8566C122.796 41.0151 123.139 40.8866 127.036 41.8716ZM289.135 44.0558C289.991 44.3127 289.178 44.6125 285.28 45.5547C279.756 46.8823 274.617 48.8951 269.692 51.7217L266.394 53.6061L265.794 52.2357C265.495 51.4648 265.109 50.0515 264.938 49.0665L264.638 47.2249L266.694 46.3684C267.807 45.8545 270.163 45.1264 271.961 44.6553C273.76 44.2271 275.602 43.756 276.073 43.6275C277.272 43.3277 287.807 43.6703 289.135 44.0558ZM264.295 45.8545C264.295 46.3256 263.696 46.9252 262.711 47.3962C257.7 49.7517 252.561 54.7195 250.462 59.1307C249.306 61.5718 249.092 62.4712 249.092 65.2121C249.092 67.9958 249.306 68.8524 250.505 71.2935C253.974 78.317 262.968 84.3555 272.432 86.0258C280.784 87.4819 289.092 86.1971 294.445 82.6425C296.415 81.3577 297.101 81.1436 299.97 81.0151C303.867 80.801 305.066 80.0729 306.779 76.9037C311.233 68.7667 306.737 56.2614 296.244 47.5676L293.632 45.3834L295.987 45.6403C298.642 45.983 302.668 47.8245 305.152 49.8373C307.807 52.0643 311.704 57.2892 313.546 61.1007C315.859 65.8545 317.101 71.636 316.844 76.1329C316.415 83.5847 312.904 93.0922 307.636 101.229C304.467 106.111 300.955 109.752 300.184 108.981C299.37 108.167 299.071 108.338 298.557 109.966C298.171 111.165 297.486 111.722 294.531 113.349C287.465 117.203 278.428 119.473 267.593 120.03C255.259 120.715 247.679 119.473 239.456 115.448C236.073 113.777 234.788 112.792 231.747 109.752C227.722 105.726 225.837 102.857 224.124 98.1028C223.096 95.2335 222.968 94.4198 222.968 88.7667C222.968 81.7431 223.525 79.0023 226.18 72.8352C228.193 68.0815 233.417 60.2442 236.886 56.7324C240.013 53.5204 244.767 50.3084 248.45 48.938C250.934 47.9958 261.897 45.2549 263.567 45.1264C263.996 45.0836 264.295 45.3834 264.295 45.8545ZM294.274 46.711C297.101 48.8524 302.24 54.377 303.782 56.9037C305.58 59.8159 307.379 64.8267 307.807 68.1243C308.321 72.2784 306.608 77.5889 304.081 79.4305C302.968 80.287 297.7 81.0579 297.7 80.4155C297.7 80.2442 298.257 79.4733 298.942 78.7025C300.827 76.5183 301.983 73.0065 301.983 69.3234C301.983 66.8823 301.812 65.9401 301.212 65.1693C300.441 64.2271 300.313 64.2271 297.358 64.6982C295.687 64.9979 292.133 65.983 289.477 66.968C286.822 67.9102 283.439 69.1093 281.983 69.6232L279.37 70.4797L276.116 67.0964C273.161 64.0129 266.865 55.4476 266.865 54.5054C266.865 53.9059 272.347 50.7795 276.33 49.1093C282.068 46.711 289.734 44.8694 291.919 45.3834C292.39 45.5118 293.46 46.1115 294.274 46.711ZM264.295 48.938C264.295 49.6232 264.638 51.165 265.109 52.3213L265.923 54.4626L264.852 55.4476C262.368 57.7603 261.469 61.8288 262.754 64.9551C263.525 66.7966 265.966 69.2378 268.278 70.4369C269.82 71.2935 270.762 71.4219 274.617 71.4648H279.156L281.469 73.4348C285.023 76.4326 289.006 78.7881 292.432 79.8588C294.146 80.4155 295.559 80.9722 295.559 81.1007C295.559 81.6575 289.563 84.484 286.951 85.1693C282.925 86.2399 275.388 86.1115 270.634 84.9979C264.21 83.4134 258.942 80.4155 254.403 75.619C251.662 72.7496 250.848 71.3791 249.949 67.9958C248.749 63.2421 250.634 58.2313 255.473 53.4348C258 50.9509 262.754 47.696 263.996 47.6532C264.167 47.6532 264.295 48.21 264.295 48.938ZM175.602 49.8373C191.276 50.9509 202.368 55.105 205.409 60.9294C206.265 62.5568 205.88 63.2849 203.567 64.6553C200.698 66.3256 198.771 66.1542 192.004 63.5419C188.878 62.3427 182.882 60.3727 178.728 59.2164C174.574 58.0172 166.608 55.4905 161.083 53.5204L151.019 50.0087L157.229 49.7945C168.235 49.3663 169.349 49.3663 175.602 49.8373ZM274.702 66.5397L278.428 70.5654L276.629 70.908C274.274 71.3363 270.976 70.9508 268.792 69.9658C265.752 68.5954 262.582 64.3127 262.582 61.5718C262.582 60.2014 263.653 57.7174 264.809 56.3898L266.137 54.8909L268.578 58.7025C269.906 60.7581 272.689 64.3127 274.702 66.5397ZM300.912 65.6403C301.083 65.8973 301.298 67.1393 301.426 68.3812C301.769 71.5933 300.398 76.0044 298.3 78.4455C296.929 80.0301 296.544 80.2442 295.388 80.0729C291.662 79.4733 286.18 76.5183 281.683 72.7924L279.585 71.0365L280.827 70.6511C281.512 70.4369 284.724 69.3234 287.979 68.1671C291.233 67.0108 294.574 65.8973 295.473 65.6832C297.7 65.1264 300.612 65.1264 300.912 65.6403ZM222.197 75.9187C221.597 77.332 220.398 79.6018 219.499 80.8866C216.458 85.2977 205.195 96.9465 205.195 95.7046C205.195 94.7195 208.364 86.2399 209.777 83.4562C213.032 76.9037 217.486 71.5076 221.255 69.5375L222.968 68.6382L223.096 70.9937C223.182 72.7067 222.925 74.0344 222.197 75.9187ZM83.9956 95.2763C83.9956 96.9894 83.7815 100.244 83.5673 102.471C83.0534 107.182 80.6123 116.989 80.1412 116.09C79.9271 115.79 79.3703 114.034 78.8564 112.15C76.9292 105.255 77.9142 97.1179 80.9977 93.863C83.4389 91.2935 83.9956 91.5504 83.9956 95.2763ZM299.456 110.308C299.028 110.694 298.985 110.651 299.242 110.051C299.37 109.623 299.627 109.409 299.756 109.538C299.884 109.666 299.756 110.009 299.456 110.308ZM300.698 111.508C301.126 112.236 300.998 112.707 300.056 114.12C299.413 115.062 298.642 116.561 298.343 117.418C297.657 119.259 297.572 118.617 298.128 114.934C298.343 113.478 298.814 111.85 299.242 111.422C300.141 110.394 300.141 110.394 300.698 111.508ZM302.882 116.047C304.295 119.73 304.51 126.069 303.353 130.651C302.454 134.163 299.97 140.33 298.642 142.343C297.957 143.456 297.914 143.071 297.957 132.064C297.957 122.6 298.086 120.33 298.685 118.531C299.499 116.09 300.912 113.606 301.512 113.606C301.726 113.606 302.368 114.72 302.882 116.047ZM296.244 146.326C295.645 147.268 294.702 148.638 294.103 149.366L292.989 150.651L294.06 148.296C295.345 145.341 296.287 140.201 296.715 133.092L297.058 127.525L297.186 136.047C297.272 144.441 297.272 144.57 296.244 146.326ZM274.403 131.422C276.201 131.893 276.458 133.306 276.629 145.212C276.844 159.987 276.073 165.084 272.133 174.248C270.719 177.675 270.591 177.803 266.094 181.315C258.343 187.353 251.533 194.42 249.306 198.831C248.364 200.715 248.492 201.015 250.334 200.672C255.901 199.602 264.767 190.48 269.734 180.672C270.334 179.473 271.619 177.803 272.604 176.989C278.685 171.85 283.053 166.797 287.465 159.859C289.306 156.947 295.773 147.953 296.758 147.011C297.186 146.583 296.458 156.775 295.602 163.499C294.617 170.994 292.133 184.612 290.805 190.051C288.364 199.602 282.154 211.55 276.33 217.76C268.749 225.897 261.255 230.094 254.231 230.18C249.477 230.223 247.293 228.981 242.711 223.499C239.841 220.073 237.058 218.788 233.075 219.045C229.82 219.216 227.293 220.373 218.771 225.512C214.146 228.338 209.22 230.48 205.366 231.422C202.197 232.15 195.516 232.064 192.861 231.251C185.923 229.109 181.255 223.97 180.484 217.76L180.27 215.662L183.824 214.977C192.304 213.435 198.428 209.666 208.964 199.473C215.773 192.921 219.113 188.938 229.949 174.42C238.642 162.728 240.27 160.587 247.764 150.651C252.39 144.57 261.083 135.619 264.081 133.906C268.021 131.636 271.79 130.737 274.403 131.422ZM129.606 140.33C134.402 142.557 137.957 148.21 138.942 155.234C139.285 157.589 137.957 157.503 136.886 155.105C135.73 152.578 132.004 149.323 129.178 148.467L126.822 147.696L121.811 149.281C119.028 150.137 115.944 150.994 114.916 151.122C112.861 151.422 109.306 150.608 108.963 149.752C108.664 148.895 110.677 145.683 112.647 143.884C117.4 139.602 124.766 138.06 129.606 140.33ZM130.934 149.966C132.133 150.651 133.717 151.936 134.488 152.792C135.901 154.377 136.972 156.304 136.629 156.604C136.287 156.904 128.235 155.962 124.295 155.148C122.026 154.677 118.557 153.777 116.587 153.135L112.946 151.979L116.158 151.465C117.914 151.165 120.612 150.437 122.111 149.88C126.008 148.424 128.235 148.424 130.934 149.966ZM139.242 158.574C139.242 159.259 139.156 159.859 139.071 159.859C138.985 159.859 138.685 159.259 138.428 158.574C138.086 157.546 138.128 157.289 138.642 157.289C139.028 157.289 139.242 157.717 139.242 158.574ZM142.24 169.923C143.011 171.807 144.295 174.334 145.066 175.533C147.122 178.66 151.062 182.257 154.274 183.884C156.629 185.084 157.529 185.298 160.869 185.469C163.053 185.555 166.351 185.341 168.492 184.998C173.889 184.099 175.944 184.655 177.572 187.439C179.071 190.094 179.456 193.306 179.413 204.698L179.37 215.019L174.445 215.319C171.747 215.49 167.893 215.533 165.923 215.405C160.998 215.105 158.343 213.735 151.876 208.167C149.049 205.726 145.409 202.899 143.781 201.914C140.141 199.602 133.375 196.261 132.304 196.261C131.276 196.261 131.319 196.047 132.647 193.82C135.816 188.424 139.242 177.075 140.313 168.296C140.484 167.139 140.655 166.283 140.741 166.368C140.784 166.411 141.469 168.039 142.24 169.923ZM267.507 183.285C262.839 190.951 257.4 196.904 253.032 199.045C249.22 200.887 248.878 200.416 251.362 196.904C254.531 192.407 259.242 187.568 264.51 183.371C267.122 181.315 269.306 179.687 269.392 179.773C269.477 179.859 268.621 181.443 267.507 183.285ZM129.82 196.604C129.82 197.418 125.966 200.587 123.739 201.615C121.469 202.642 116.972 203.542 116.972 202.942C116.972 202.214 120.398 199.045 122.197 198.146C125.152 196.647 129.82 195.705 129.82 196.604ZM161.512 253.349C162.54 259.216 161.854 265.812 159.199 277.118C156.415 288.81 154.959 293.349 152.347 298.488C150.462 302.171 148.321 305.555 148.835 304.056C149.563 301.872 149.906 296.818 150.12 286.625C150.462 270.094 151.662 262.899 155.131 256.133C156.801 252.921 159.884 249.538 160.655 250.009C160.826 250.137 161.255 251.636 161.512 253.349ZM394.06 369.837C394.745 375.405 393.889 380.201 389.563 394.548C387.036 402.899 384.424 410.48 382.968 413.606C375.987 428.553 375.216 430.48 373.717 436.475C371.447 445.512 370.248 458.959 369.435 484.698C369.135 494.762 368.535 505.212 367.679 516.39C367.165 523.071 366.608 526.925 365.152 533.82C363.096 543.371 361.34 553.777 359.585 566.069C358.6 572.921 354.874 595.962 351.233 617.717C349.649 627.182 347.379 636.047 343.353 648.424C340.441 657.46 336.715 670.308 330.291 693.735C325.666 710.608 319.884 726.24 314.574 736.261C312.176 740.844 308.107 747.011 307.55 747.011C306.951 747.011 306.694 736.047 307.122 730.565C307.722 723.456 308.707 718.403 312.047 705.255C313.546 699.345 315.987 688.938 317.4 682.129C318.856 675.276 321.34 664.484 322.968 658.146C327.722 639.516 328.364 635.833 329.991 616.561C330.591 609.752 331.362 601.101 331.704 597.332C333.118 582.728 333.674 573.777 333.674 566.797V559.559L335.516 558.36C338.214 556.561 342.968 551.85 344.895 548.981C347.25 545.555 350.591 538.488 351.662 534.591C353.803 526.839 354.831 515.319 354.574 501.615C354.231 484.612 353.246 482.771 342.411 478.917C336.201 476.775 334.403 476.518 331.233 477.418C327.807 478.403 324.552 481.743 322.197 486.668C319.499 492.321 318.985 495.319 319.199 503.242C319.499 513.349 321.34 520.844 326.308 532.021C330.206 540.801 331.961 547.396 332.647 555.662L332.946 559.345L330.291 560.672C327.208 562.257 323.482 563.285 320.998 563.285C316.544 563.285 309.906 560.159 305.109 555.79C295.944 547.482 280.655 522.942 273.717 505.469C270.719 497.846 267.379 487.011 264.552 475.705C254.874 436.69 257.315 413.392 272.218 401.957C275.43 399.473 291.876 391.122 298.771 388.424C307.165 385.169 317.957 383.242 328.321 383.242C336.672 383.242 340.184 383.884 349.734 387.054C360.013 390.48 361.597 390.865 366.651 390.865C370.462 390.908 371.447 390.737 373.075 389.966C375.216 388.895 375.088 389.066 379.199 381.914C382.711 375.747 385.195 372.236 387.722 369.837C390.163 367.525 392.818 365.726 393.289 366.197C393.46 366.368 393.803 368.039 394.06 369.837ZM382.026 433.049C380.784 451.85 375.388 487.525 370.505 509.538C368.364 519.302 368.064 519.473 368.792 510.608C369.178 505.983 370.12 484.998 370.719 468.852C371.576 445.512 373.632 435.019 379.97 421.743L381.812 417.889L382.111 422.6C382.283 425.169 382.24 429.88 382.026 433.049ZM341.169 479.131C348.578 481.657 351.619 483.756 352.475 486.839C353.632 491.036 354.017 495.019 354.017 504.184C353.974 526.197 351.533 537.889 344.724 548.081C341.555 552.835 334.403 559.345 333.674 558.146C333.503 557.889 333.246 555.962 333.075 553.949C332.518 546.497 330.719 540.415 325.366 528.167C321.64 519.516 319.242 507.439 319.67 499.473C320.013 494.12 320.784 490.951 322.882 486.625C324.681 482.942 328.407 478.917 330.677 478.146C332.989 477.418 337.358 477.803 341.169 479.131ZM368.236 520.116C368.107 520.458 367.979 520.33 367.979 519.859C367.936 519.388 368.064 519.131 368.193 519.302C368.321 519.43 368.364 519.816 368.236 520.116ZM366.094 534.248C365.966 534.591 365.837 534.463 365.837 533.992C365.794 533.52 365.923 533.263 366.051 533.435C366.18 533.563 366.223 533.949 366.094 534.248ZM74.0598 598.403C78.1712 601.358 81.1691 607.096 83.5245 616.433C84.5095 620.415 86.0513 625.084 87.3361 627.996C91.4046 637.46 92.1327 640.415 91.1048 643.927C90.4624 646.154 87.2504 651.079 86.4795 651.079C85.88 651.079 78.8564 636.261 76.1583 629.366C73.289 622.171 65.4517 598.831 65.7515 598.488C66.0513 598.231 70.2483 597.203 71.4046 597.161C71.9185 597.118 73.1177 597.675 74.0598 598.403ZM65.1519 599.773C65.4089 600.544 67.5502 606.754 69.8628 613.606C74.9592 628.681 76.5438 632.75 81.4688 642.899C83.5245 647.268 85.1947 650.865 85.1519 650.908C84.8093 651.251 78.4282 650.051 77.3575 649.409C76.0727 648.681 72.9035 644.784 69.8628 640.244C67.7215 637.032 65.4089 631.079 62.4538 621.101C59.456 611.165 58.9849 608.638 59.2419 604.527C59.456 601.358 60.2269 598.66 60.8264 599.045C60.9977 599.131 61.7686 599.045 62.5823 598.831C63.396 598.66 64.2097 598.488 64.381 598.445C64.5095 598.403 64.8521 599.045 65.1519 599.773ZM59.199 611.679C60.5266 618.36 66.5652 636.433 68.5352 639.516C69.3917 640.929 74.4025 647.61 75.3875 648.724C76.7579 650.308 78.9849 651.979 80.4838 652.621C82.2397 653.349 84.9378 653.392 85.5802 652.75C85.9228 652.407 86.4795 653.178 87.6359 655.662C90.2911 661.272 93.2033 669.409 92.7322 669.923C92.6037 670.051 89.1776 670.137 85.1519 670.137C77.1005 670.137 76.1155 669.923 71.7472 666.882C70.805 666.24 68.835 665.126 67.4217 664.398C64.5523 662.942 60.3553 659.002 59.1562 656.604C58.6851 655.747 58.0427 653.777 57.7001 652.193C56.8436 648.51 56.1155 647.182 54.1455 645.555C51.8329 643.67 49.8628 643.713 48.0641 645.726L46.7365 647.268V644.869C46.7365 641.872 48.0213 637.974 51.3618 630.694C54.1455 624.698 56.1583 618.66 57.229 612.964C57.6144 610.951 58.0427 608.852 58.214 608.253L58.471 607.182L58.5995 608.253C58.6851 608.852 58.9421 610.394 59.199 611.679ZM52.7322 645.298C54.7451 646.326 56.2012 648.681 57.0577 652.193C57.9142 655.876 59.2419 658.317 61.5545 660.587C63.396 662.428 63.0962 662.557 59.9271 661.358C58.6851 660.887 57.2718 660.501 56.8007 660.501C55.8157 660.501 51.4902 657.46 49.6487 655.533C48.1498 653.906 47.1648 651.508 47.1648 649.409C47.1648 648.081 47.4645 647.311 48.4924 646.154C49.9485 644.527 50.8478 644.313 52.7322 645.298ZM84.3382 651.807C85.1091 651.979 85.2376 652.15 84.7665 652.407C83.8671 653.007 82.6252 652.835 80.7836 651.936L79.0705 651.079L81.2119 651.336C82.411 651.465 83.8243 651.679 84.3382 651.807ZM98.7708 652.792C105.58 653.263 106.993 653.263 110.891 652.621C121.041 651.036 126.094 652.321 128.578 657.161C129.649 659.259 129.606 659.902 128.15 662.471L126.908 664.655L124.381 664.741C123.011 664.784 119.028 665.383 115.473 666.111C107.593 667.653 97.6145 669.366 95.3875 669.58L93.7601 669.709L92.3468 665.64C90.805 661.144 89.1776 657.075 87.5502 653.949L86.5224 651.85L88.7922 652.064C90.0341 652.15 94.5309 652.493 98.7708 652.792ZM68.0641 666.026C75.1305 670.78 77.6144 671.422 86.8222 671.079L93.3746 670.865L94.274 673.263C95.3446 676.09 97.2718 683.842 97.2718 685.212C97.2718 686.154 97.1005 686.197 94.0598 686.197C92.304 686.197 89.4774 685.983 87.7215 685.726L84.5524 685.255L83.8243 682.985C83.4389 681.743 82.7536 680.244 82.3254 679.687C81.5117 678.745 81.5117 678.702 80.6123 679.516C79.2419 680.758 79.3703 683.285 80.8264 684.441C82.8821 686.069 81.1691 685.383 74.1883 681.872L67.3361 678.403L66.1798 675.362C64.1241 669.837 61.2547 664.827 58.9849 662.814L56.8864 660.929L60.6123 662.214C62.7965 662.985 65.8371 664.527 68.0641 666.026ZM58.4281 663.071C59.6273 664.141 61.0834 666.154 62.2825 668.338C64.2526 671.979 66.2226 676.69 65.9656 676.989C65.6658 677.246 60.3125 673.435 57.486 670.908C53.7601 667.61 52.6466 664.612 54.274 662.3C55.2162 660.929 56.2012 661.144 58.4281 663.071ZM121.469 666.111C119.756 666.711 108.878 668.638 107.764 668.595C106.565 668.51 119.884 665.726 121.469 665.726H122.754L121.469 666.111ZM132.175 666.968C135.002 668.424 136.244 670.308 136.244 672.964C136.244 674.805 136.073 675.105 134.445 676.518C130.548 679.902 116.415 684.013 104.467 685.341C97.8714 686.026 98.2569 686.154 97.7001 683.285C97.4431 681.957 96.5866 678.702 95.7729 676.09C94.9592 673.478 94.274 671.079 94.274 670.822C94.274 670.523 95.259 670.351 96.9721 670.351C103.696 670.266 122.497 667.139 123.781 665.812C123.91 665.683 125.409 665.64 127.036 665.726C129.22 665.812 130.634 666.154 132.175 666.968ZM106.394 668.938C106.094 669.024 105.495 669.024 105.109 668.938C104.681 668.81 104.938 668.724 105.623 668.724C106.351 668.724 106.651 668.81 106.394 668.938ZM103.396 669.366C103.096 669.452 102.582 669.452 102.325 669.366C102.026 669.238 102.24 669.152 102.839 669.152C103.439 669.152 103.653 669.238 103.396 669.366ZM70.1626 680.587C71.3189 681.272 74.9164 683.028 78.214 684.484C81.5117 685.983 84.638 687.568 85.1947 688.039C86.1369 688.895 86.1369 688.938 85.3232 689.795C84.0813 691.208 81.6401 695.233 81.0834 696.861C80.4838 698.574 80.4838 698.617 80.9121 698.617C81.1262 698.617 81.7258 697.546 82.2397 696.261C84.1669 691.636 89.5631 687.91 95.3018 687.225L97.5716 686.968L97.8286 688.809C98.4282 693.263 99.0706 701.657 98.8564 701.914C98.6851 702.043 95.002 702.257 90.5909 702.386L82.6252 702.6L79.5416 699.388C77.1005 696.775 75.7301 694.72 72.5609 688.938C68.7922 682 67.5074 679.345 67.9356 679.345C68.0641 679.345 69.0491 679.902 70.1626 680.587ZM82.4538 680.929C82.7536 681.615 83.1819 682.771 83.3532 683.499C83.6958 685.212 82.9678 685.383 81.2547 684.013C80.0556 683.071 79.8414 681.957 80.5695 680.587C81.2119 679.473 81.7258 679.559 82.4538 680.929ZM118.685 685.769C122.197 686.454 125.366 688.081 126.394 689.709C127.85 692.15 127.293 694.891 125.066 696.09C122.582 697.418 107.465 701.058 102.968 701.401L99.4132 701.7V699.216C99.3703 697.803 99.1134 694.548 98.8564 691.893L98.2997 687.096L100.056 686.839C110.205 685.383 115.131 685.084 118.685 685.769ZM84.2097 686.197C84.3382 686.454 84.1669 686.497 83.8243 686.368C83.0534 686.069 82.9249 685.769 83.5245 685.769C83.7815 685.769 84.0813 685.94 84.2097 686.197ZM91.7044 687.011C91.8329 687.054 90.9763 687.525 89.7772 688.081L87.6359 689.066L86.2654 687.782C85.4945 687.054 84.8521 686.326 84.8521 686.197C84.8521 686.026 90.1198 686.625 91.7044 687.011ZM86.5652 689.795C86.5652 689.88 86.2226 690.223 85.8372 690.523C85.1519 691.079 85.1091 691.036 85.6658 690.351C86.2226 689.666 86.5652 689.452 86.5652 689.795ZM113.032 702.899C117.572 703.371 118.856 703.927 120.784 706.111C122.754 708.381 122.497 709.666 119.756 711.036C117.743 712.021 117.229 712.107 111.619 712.021C107.25 711.979 104.809 711.765 102.625 711.165L99.6273 710.351L99.4988 706.754C99.4132 704.184 99.5416 703.071 99.9271 702.857C100.698 702.343 108.193 702.386 113.032 702.899ZM93.7601 703.199C93.3318 703.285 92.5609 703.285 92.047 703.199C91.4903 703.114 91.8329 703.028 92.775 703.028C93.7172 702.985 94.1455 703.071 93.7601 703.199ZM98.9849 705.769C98.9849 707.396 98.8136 708.938 98.6423 709.238C98.3425 709.623 97.0149 709.238 92.9892 707.61C90.077 706.411 87.3361 705.169 86.8222 704.827C86.0085 704.227 86.1798 704.184 88.7065 704.141C90.9335 704.141 94.9592 703.67 98.6851 702.942C98.8564 702.942 98.9849 704.184 98.9849 705.769Z" fill="black" stroke="black" stroke-width="1"/>
</svg>
