<svg width="173" height="72" viewBox="0 0 173 72" fill="none" xmlns="http://www.w3.org/2000/svg">
<path d="M117.164 0.416313C116.822 0.759171 116.564 1.1306 116.564 1.27346C116.564 1.41631 116.136 1.81631 115.622 2.1306C114.593 2.75917 113.336 4.81631 112.993 6.44489C112.85 6.98774 112.793 8.44489 112.822 9.67346C112.85 11.8163 112.364 13.5877 111.736 13.5877C111.593 13.5877 110.793 12.9877 109.964 12.2449C107.85 10.2735 106.907 9.64489 105.879 9.41631C105.393 9.3306 104.793 9.07346 104.564 8.87346C104.307 8.64489 103.679 8.5306 103.079 8.58774C102.479 8.64489 101.65 8.50203 101.193 8.30203C100.136 7.75917 96.5073 7.15917 95.8787 7.38774C95.393 7.58774 95.393 7.64489 95.9073 8.5306C96.2216 9.04489 96.5645 9.81631 96.6502 10.2163C96.7645 10.6449 97.2502 11.2735 97.7359 11.6163L98.6216 12.2449L97.3359 13.5592C96.6502 14.2735 95.7359 15.3592 95.2787 15.9306L94.5073 17.0163H91.0216C86.3645 17.0163 85.1645 17.6163 87.1359 18.9592C87.6502 19.302 88.3359 19.9877 88.6216 20.4735C88.9359 20.9592 89.5359 21.502 89.9645 21.6735L90.7645 21.9592L89.2216 24.2449C88.393 25.502 87.7073 26.6449 87.7073 26.7877C87.7073 26.902 87.193 27.0163 86.5359 27.0163C85.9073 27.0163 85.1359 27.1592 84.793 27.3306C84.4787 27.502 83.3645 27.7592 82.3359 27.902C81.2787 28.0449 80.3073 28.302 80.1645 28.4449C79.8502 28.7592 81.0216 30.1592 81.593 30.1592C81.793 30.1592 82.2502 30.4449 82.6216 30.7877C82.993 31.1592 83.593 31.6449 83.9359 31.8735L84.6216 32.302L83.0502 35.7306C81.2502 39.6735 79.5359 44.5877 79.3073 46.4449C79.1073 47.9592 79.0502 48.102 81.1359 42.302C82.0502 39.7592 83.3645 36.5592 84.0216 35.1592L85.2787 32.6163L89.993 32.5877C93.993 32.5877 94.8502 32.502 95.5645 32.0735C96.3073 31.6449 96.3073 31.5877 95.7073 31.7877C95.3073 31.902 92.9645 31.9877 90.4502 31.9306C86.6787 31.8735 85.7073 31.7877 84.6502 31.302C83.4216 30.7592 83.2216 30.1592 84.2502 30.1592C85.0502 30.1592 85.793 29.1592 85.593 28.3306L85.4216 27.6163L90.0502 27.5306C96.4787 27.4163 96.3645 27.3877 97.9359 28.9877C100.65 31.702 106.736 38.5592 107.193 39.4163C107.593 40.1306 107.679 40.1877 107.707 39.7306C107.707 38.8449 106.764 37.502 104.336 34.9306C103.136 33.6449 101.107 31.4449 99.8787 30.0735C96.8502 26.6735 96.7073 26.6163 92.2216 26.7877C90.2216 26.8735 88.5645 26.8735 88.5645 26.7877C88.5645 26.7306 88.993 25.9306 89.5359 25.0449C90.6216 23.2735 91.8216 22.0163 92.193 22.2449C92.3359 22.3306 93.5359 22.5306 94.8502 22.702C99.593 23.3306 99.4502 23.2735 99.2502 23.9592C99.1359 24.302 98.9073 24.6735 98.7359 24.7877C98.0216 25.2735 99.5073 24.9877 100.564 24.4449C102.422 23.502 102.479 23.5306 102.622 26.6735C102.822 30.9592 103.279 31.0449 103.25 26.7877L103.222 23.1592L98.5359 22.502C92.6787 21.702 90.9073 21.3306 89.993 20.7592L89.2787 20.302L90.5645 20.1592C91.8502 20.0163 91.8502 20.0163 91.9359 18.7877L92.0216 17.5877L93.9359 17.7306C99.4787 18.2449 105.907 19.3592 108.079 20.2163C108.536 20.3877 109.022 20.8449 109.164 21.2449C109.307 21.6449 109.564 24.5877 109.707 27.8163C109.879 31.0449 110.05 33.7306 110.107 33.7877C110.393 34.102 110.593 29.4449 110.422 26.2449C110.193 21.8449 109.936 20.7592 108.964 19.8449C108.079 19.0163 105.107 15.1592 104.564 14.1592C104.364 13.7592 104.164 13.4163 104.136 13.3592C104.107 13.3306 103.336 13.1592 102.393 12.9877C100.593 12.6735 98.7645 11.7592 97.8502 10.7306L97.2787 10.0735L98.4787 10.702C100.136 11.5306 100.679 11.4735 101.622 10.2735L102.422 9.27346L104.479 9.84489C107.079 10.5592 106.822 10.3877 110.307 13.4449C111.907 14.8449 113.622 16.3592 114.107 16.7877C114.936 17.502 114.993 17.6449 114.936 19.5306C114.879 21.502 113.793 30.3877 113.536 30.7877C113.45 30.902 113.336 31.9877 113.25 33.2163C113.136 34.4449 112.85 35.9592 112.593 36.5877C111.936 38.102 106.164 44.3306 102.336 47.6449C100.593 49.1592 101.136 48.9877 103.393 47.3306C105.65 45.6449 110.65 40.6449 112.279 38.4735C113.45 36.8735 113.536 36.5877 113.993 33.1592C115.079 24.8735 115.707 21.9877 116.564 21.4449C116.707 21.3592 117.364 20.3877 118.022 19.302L119.193 17.3306L119.022 12.102C118.793 4.7306 118.479 0.530602 118.079 0.1306C117.85 -0.0979729 117.622 -0.0408287 117.164 0.416313ZM118.107 1.75917C118.193 2.50203 118.279 3.78774 118.279 4.61631C118.279 5.98774 118.222 6.15917 117.707 6.15917C116.593 6.15917 116.164 3.35917 116.964 1.44489C117.536 0.102028 117.879 0.187744 118.107 1.75917ZM116.164 3.81631C116.193 5.50203 116.679 6.44489 117.536 6.44489C118.164 6.44489 118.193 6.55917 118.364 9.21632C118.764 15.102 118.65 16.6163 117.707 18.4163C117.222 19.302 116.564 20.3877 116.193 20.8163L115.564 21.6163L115.65 20.0163C115.822 17.4163 115.65 17.0449 113.45 15.2163L112.479 14.4163L112.993 13.3592C113.393 12.5592 113.536 11.5592 113.564 9.30203C113.593 6.04489 113.907 4.95917 115.25 3.35917C115.679 2.87346 116.079 2.44489 116.079 2.44489C116.107 2.44489 116.136 3.04489 116.164 3.81631ZM98.7359 8.04489C101.364 8.55917 101.907 8.95917 101.45 9.84489C100.85 10.9592 100.164 11.0735 98.6787 10.2735C97.3073 9.55917 95.993 8.38774 95.993 7.84489C95.993 7.50203 96.1359 7.50203 98.7359 8.04489ZM101.679 13.5877C102.85 13.6163 102.964 13.9877 102.45 15.9877C101.85 18.1306 102.164 18.0449 98.1073 17.5306L95.4216 17.2163L95.9359 16.3877C96.2216 15.9306 97.0787 14.9306 97.793 14.1592L99.1359 12.7306L100.164 13.1592C100.736 13.3877 101.422 13.5877 101.679 13.5877ZM106.307 17.7306C106.45 17.8449 106.422 18.1306 106.222 18.4163C105.936 18.8735 105.764 18.902 104.364 18.5592C103.507 18.3592 102.736 18.1592 102.707 18.102C102.65 18.0449 102.85 17.1306 103.164 16.0735L103.764 14.1877L104.907 15.8735C105.536 16.8163 106.164 17.6449 106.307 17.7306ZM91.393 17.702C91.593 17.9306 91.7073 18.4735 91.6502 18.9306C91.593 19.5877 91.4216 19.7592 90.7073 19.8163C89.7645 19.902 86.7359 18.502 86.793 18.0163C86.8787 17.3592 90.8787 17.102 91.393 17.702ZM85.0787 28.5592C85.3359 29.8449 82.4216 30.3877 81.1073 29.3306C80.3073 28.6735 80.4787 28.5592 82.7359 28.1592C84.593 27.8449 84.9645 27.9306 85.0787 28.5592Z" fill="#7B826D"/>
<path d="M106.593 0.416301C106.364 0.559158 106.25 0.959158 106.336 1.35916C106.45 1.95916 106.336 2.04487 105.65 2.10202C105.107 2.15916 104.879 2.07344 104.993 1.87344C105.107 1.70202 105.364 1.6163 105.593 1.70202C105.821 1.78773 105.993 1.73059 105.993 1.58773C105.993 1.13059 104.85 1.27344 104.65 1.75916C104.364 2.55916 104.964 2.78773 106.25 2.33059C107.421 1.93059 107.479 1.95916 107.336 2.44487C107.221 2.90202 107.307 2.95916 108.021 2.8163C108.593 2.70202 108.85 2.78773 108.85 3.0163C108.85 3.2163 108.621 3.30202 108.279 3.2163C107.964 3.13059 107.707 3.18773 107.707 3.30202C107.707 3.44487 107.307 3.33059 106.793 3.10202C105.764 2.58773 105.05 2.84487 104.907 3.84487C104.793 4.64487 105.536 4.64487 106.136 3.78773C106.564 3.2163 106.593 3.18773 106.507 3.73059C106.479 4.04487 106.536 4.47344 106.65 4.67344C106.964 5.15916 108.079 4.55916 107.879 3.98773C107.793 3.75916 107.879 3.58773 108.079 3.6163C108.85 3.70202 109.136 3.55916 109.136 3.0163C109.136 2.67344 108.936 2.44487 108.65 2.44487C108.164 2.4163 108.164 2.4163 108.621 2.13059C109.25 1.78773 108.964 0.930587 108.25 1.10202C107.936 1.18773 107.707 1.04487 107.621 0.702015C107.45 0.102015 107.193 0.0448728 106.593 0.416301ZM107.136 1.15916C107.136 1.38773 107.021 1.58773 106.85 1.58773C106.707 1.58773 106.564 1.38773 106.564 1.15916C106.564 0.930587 106.707 0.730587 106.85 0.730587C107.021 0.730587 107.136 0.930587 107.136 1.15916ZM108.564 1.58773C108.564 1.73059 108.421 1.87344 108.25 1.87344C108.107 1.87344 108.05 1.73059 108.136 1.58773C108.221 1.4163 108.364 1.30202 108.45 1.30202C108.507 1.30202 108.564 1.4163 108.564 1.58773ZM105.679 3.90202C105.136 4.24487 104.993 3.95916 105.45 3.4163C105.707 3.10202 105.85 3.04487 105.936 3.30202C106.021 3.50202 105.879 3.75916 105.679 3.90202ZM107.421 4.18773C107.421 4.33059 107.307 4.44487 107.136 4.44487C106.993 4.44487 106.85 4.24487 106.85 3.98773C106.85 3.75916 106.993 3.64487 107.136 3.73059C107.307 3.8163 107.421 4.0163 107.421 4.18773Z" fill="#7B826D"/>
<path d="M75.7072 1.73059C75.45 2.0163 75.3929 2.64487 75.5072 3.6163L75.6786 5.04487L74.6786 4.18773C73.5358 3.18773 72.7072 3.07344 72.3072 3.84487C71.8215 4.73059 72.5643 5.35916 74.2215 5.53059C75.2215 5.6163 75.7072 5.55916 75.7072 5.33059C75.7072 5.15916 75.9358 5.0163 76.2215 5.0163C76.5358 5.0163 76.9929 4.55916 77.3643 3.90202C78.1072 2.58773 78.1358 2.33059 77.5358 1.75916C76.9643 1.18773 76.1643 1.18773 75.7072 1.73059ZM76.9643 1.75916C77.5929 2.0163 77.5358 2.90202 76.7929 3.95916C76.2215 4.73059 76.1643 4.75916 75.9643 4.27344C75.6215 3.4163 75.6786 2.30202 76.05 1.93059C76.45 1.53059 76.3929 1.53059 76.9643 1.75916ZM74.1929 4.30202L74.9929 4.98773L74.1358 5.0163C73.0215 5.0163 72.4215 4.6163 72.65 4.04487C72.9072 3.4163 73.25 3.47344 74.1929 4.30202Z" fill="#7B826D"/>
<path d="M78.2501 3.90204C77.7929 4.41632 77.4501 4.95918 77.5072 5.13061C77.6786 5.67346 79.9929 5.67346 80.5929 5.13061C81.2501 4.53061 81.2786 4.04489 80.6786 3.47346C79.9929 2.78775 79.1644 2.93061 78.2501 3.90204ZM80.3929 3.95918C80.8786 4.70204 80.0215 5.35918 78.7072 5.24489L77.6215 5.15918L78.5072 4.21632C79.4501 3.21632 79.8786 3.15918 80.3929 3.95918Z" fill="#7B826D"/>
<path d="M101.136 3.87344C100.736 4.6163 100.993 5.0163 101.878 5.0163C102.793 5.0163 103.107 4.2163 102.421 3.70201C101.707 3.15915 101.507 3.18772 101.136 3.87344ZM102.278 4.30201C102.278 4.53058 102.078 4.73058 101.85 4.73058C101.621 4.73058 101.421 4.53058 101.421 4.30201C101.421 4.07344 101.621 3.87344 101.85 3.87344C102.078 3.87344 102.278 4.07344 102.278 4.30201Z" fill="#7B826D"/>
<path d="M74.1643 6.50203C73.5358 6.64489 72.8786 6.87346 72.6501 7.04489C72.0786 7.53061 72.1929 8.67346 72.8786 9.04489C73.6501 9.44489 74.7929 8.67346 75.3358 7.35918C75.7643 6.30203 75.6215 6.18775 74.1643 6.50203ZM74.9358 7.27346C74.5929 8.58775 72.8215 9.21632 72.6215 8.07346C72.5643 7.73061 72.8215 7.44489 73.4786 7.15918C74.7643 6.58775 75.1072 6.61632 74.9358 7.27346Z" fill="#7B826D"/>
<path d="M77.707 6.7306C77.707 7.44489 79.2499 9.30203 79.8213 9.30203C81.3356 9.30203 81.5642 7.84489 80.2213 7.01632C79.2213 6.41632 77.707 6.24489 77.707 6.7306ZM80.0785 7.35918C80.5927 7.61632 80.7356 8.58775 80.2785 8.87346C79.8499 9.1306 79.0499 8.58775 78.4785 7.58775L77.9356 6.70203L78.7642 6.90203C79.1927 7.01632 79.7927 7.21632 80.0785 7.35918Z" fill="#7B826D"/>
<path d="M76.5641 7.55918C76.5641 7.73061 76.8212 8.15918 77.1355 8.50204C78.2212 9.67347 77.5355 11.302 76.3069 10.5306C75.8498 10.2163 75.7926 9.4449 76.1355 8.15918L76.3069 7.4449L75.8784 8.15918C75.3641 9.01633 75.3069 10.2163 75.7641 10.6735C75.9641 10.8735 76.4498 11.0163 76.9069 11.0163C77.9641 11.0163 78.4498 10.1306 77.9926 9.01633C77.6212 8.07347 76.5641 7.01633 76.5641 7.55918Z" fill="#7B826D"/>
<path d="M41.7929 12.0163C41.3929 12.3306 41.3358 12.5306 41.5929 12.9306C42.25 14.0163 43.7072 13.502 43.25 12.3306C43.0215 11.702 42.3929 11.5877 41.7929 12.0163ZM42.9358 12.5877C43.05 12.8163 42.9929 13.0735 42.8215 13.1877C42.3929 13.4449 41.7072 13.102 41.7072 12.5877C41.7072 12.0449 42.7358 12.0163 42.9358 12.5877Z" fill="#7B826D"/>
<path d="M36.907 17.6449C36.4499 18.102 36.4785 18.7877 36.9356 19.4163C37.2785 19.8735 37.3356 19.8735 37.6785 19.502C38.0785 18.9877 37.9927 17.5306 37.5642 17.3877C37.3927 17.3306 37.107 17.4449 36.907 17.6449ZM37.5642 18.7592C37.3356 19.4163 37.3356 19.4163 37.1356 18.8735C36.8785 18.1306 37.107 17.4449 37.4785 17.8163C37.6499 17.9877 37.6785 18.4163 37.5642 18.7592Z" fill="#7B826D"/>
<path d="M38.7359 19.0449C37.8788 19.702 37.9931 20.1592 38.9931 20.1592C40.0217 20.1592 40.5645 19.8735 40.5645 19.302C40.5645 19.0163 40.3645 18.702 40.1074 18.6163C39.5074 18.3878 39.5931 18.3592 38.7359 19.0449ZM40.2788 19.2735C40.2788 19.5878 39.1359 19.902 38.7931 19.702C38.6502 19.6163 38.6217 19.4163 38.7074 19.2735C38.9359 18.9306 40.2788 18.9306 40.2788 19.2735Z" fill="#7B826D"/>
<path d="M34.1358 18.9877C34.05 19.1306 34.1929 19.4735 34.45 19.702C35.0215 20.302 36.5643 20.302 36.5643 19.7306C36.5643 18.9592 34.5358 18.3592 34.1358 18.9877ZM35.8786 19.4449C36.3358 19.7877 36.3643 19.8449 35.9358 19.8735C35.2786 19.8735 34.5643 19.5592 34.5643 19.2735C34.5643 18.8735 35.25 18.9592 35.8786 19.4449Z" fill="#7B826D"/>
<path d="M71.4784 19.0734C70.9927 19.5592 71.0499 20.3592 71.6213 20.5592C72.2784 20.8163 72.9642 20.0734 72.707 19.3306C72.507 18.6734 71.9927 18.5592 71.4784 19.0734ZM72.507 19.6449C72.307 20.1877 71.4213 20.2734 71.4213 19.7592C71.4213 19.4734 71.6784 19.302 72.0213 19.302C72.3642 19.302 72.5642 19.4449 72.507 19.6449Z" fill="#7B826D"/>
<path d="M34.3642 21.2163C33.8499 21.4163 33.907 22.4163 34.4213 22.6163C34.8499 22.7877 36.5642 21.7306 36.5642 21.2734C36.5642 21.0163 34.9928 20.9592 34.3642 21.2163ZM35.707 21.7306C35.3356 22.1877 34.2785 22.3306 34.2785 21.9306C34.2785 21.502 34.6499 21.302 35.3642 21.302C35.9642 21.302 35.9928 21.3592 35.707 21.7306Z" fill="#7B826D"/>
<path d="M38.2788 21.3877C38.2788 21.902 39.1931 22.7306 39.7931 22.7306C40.5645 22.7306 40.6788 22.102 39.9931 21.5306C39.2502 20.9306 38.2788 20.8449 38.2788 21.3877ZM39.9931 22.1592C39.9931 22.5592 39.5931 22.502 39.1931 22.102C38.6502 21.5592 38.7931 21.2449 39.4217 21.5877C39.736 21.7592 39.9931 22.0163 39.9931 22.1592Z" fill="#7B826D"/>
<path d="M75.993 21.2163C74.5358 21.7592 74.1072 23.4163 75.1358 24.4449C76.3073 25.6163 78.2787 24.8163 78.2787 23.2163C78.2787 22.702 78.1644 22.1592 78.0501 21.9877C77.8501 21.702 76.7073 20.9877 76.5073 21.0449C76.4501 21.0449 76.2215 21.1306 75.993 21.2163ZM77.5644 22.1592C78.6215 23.3306 77.1644 25.2163 75.7358 24.4734C74.393 23.7306 74.8787 21.5877 76.4215 21.5877C76.7644 21.5877 77.2787 21.8449 77.5644 22.1592Z" fill="#7B826D"/>
<path d="M36.8499 22.1878C36.4213 23.1592 36.7071 23.9592 37.4785 24.102C38.1071 24.2163 38.3356 23.3592 37.9642 22.2449C37.5928 21.0735 37.3071 21.0449 36.8499 22.1878ZM37.7071 23.0163C37.7071 23.9306 37.3071 24.1592 37.0213 23.4449C36.8499 22.9306 37.0785 22.1592 37.4499 22.1592C37.5928 22.1592 37.7071 22.5306 37.7071 23.0163Z" fill="#7B826D"/>
<path d="M59.7074 22.8735C59.2788 23.3878 59.6217 24.5306 60.1645 24.3306C60.3931 24.2449 60.5645 24.3592 60.5645 24.5878C60.5645 24.8163 60.4217 24.9878 60.2502 24.9306C59.6788 24.8163 59.2788 25.7878 59.6788 26.2735C60.1645 26.8735 60.936 26.3306 60.7074 25.5592C60.5645 25.1306 60.6788 25.0449 61.336 25.102C61.9645 25.1592 62.136 25.0449 62.136 24.5878C62.136 24.1592 61.936 24.0163 61.3645 24.0163C60.7074 24.0449 60.6217 23.9306 60.736 23.4163C60.936 22.6735 60.1931 22.302 59.7074 22.8735ZM60.2788 23.4449C60.2788 23.6735 60.1645 23.8735 59.9931 23.8735C59.8502 23.8735 59.7074 23.6735 59.7074 23.4449C59.7074 23.2163 59.8502 23.0163 59.9931 23.0163C60.1645 23.0163 60.2788 23.2163 60.2788 23.4449ZM61.9931 24.4449C61.9931 24.5878 61.736 24.7306 61.3931 24.7306C61.0788 24.7306 60.9074 24.5878 60.9931 24.4449C61.0788 24.2735 61.3645 24.1592 61.5931 24.1592C61.8217 24.1592 61.9931 24.2735 61.9931 24.4449ZM60.1931 25.9306C60.1074 26.1592 60.0217 26.0735 60.0217 25.7592C59.9931 25.4449 60.0788 25.2735 60.1645 25.3878C60.2502 25.4735 60.2788 25.7306 60.1931 25.9306Z" fill="#7B826D"/>
<path d="M58.0786 24.0735C57.6215 24.2449 57.5929 24.902 57.9929 25.1592C58.4215 25.4163 59.4215 25.0449 59.4215 24.5877C59.4215 24.302 58.7072 23.7877 58.4786 23.902C58.45 23.902 58.25 23.9877 58.0786 24.0735ZM59.1357 24.5592C59.1357 24.8163 58.2786 24.9592 58.1357 24.7306C58.0215 24.5592 58.2215 24.4449 58.5357 24.4449C58.8786 24.4449 59.1357 24.502 59.1357 24.5592Z" fill="#7B826D"/>
<path d="M69.3357 27.2449C68.6786 27.9877 68.7357 28.8163 69.5643 30.3877C70.6786 32.5306 70.7071 32.5592 71.3643 32.1877C72.5929 31.5306 72.85 28.4163 71.7929 27.2449C71.1929 26.5877 69.9357 26.5877 69.3357 27.2449ZM71.9357 29.0734C72.0214 30.5306 71.5643 31.9592 71.05 31.8163C70.4786 31.6163 69.0786 28.6163 69.3071 28.0449C69.5929 27.302 70.5929 26.9877 71.2786 27.4449C71.6786 27.702 71.8786 28.1592 71.9357 29.0734Z" fill="#7B826D"/>
<path d="M74.2785 29.7592C73.3356 30.5592 72.4213 32.0449 72.7927 32.2449C72.907 32.3306 73.5356 32.4735 74.1927 32.5877C76.4213 32.9592 78.2785 31.2163 77.2785 29.702C76.6785 28.7877 75.4213 28.8163 74.2785 29.7592ZM76.8499 29.7306C77.307 30.302 76.9927 31.502 76.2785 31.8735C75.9356 32.0449 75.0213 32.1592 74.1927 32.102L72.707 32.0163L74.0213 30.6449C75.3642 29.2735 76.2213 28.9877 76.8499 29.7306Z" fill="#7B826D"/>
<path d="M64.9069 30.5306C63.4212 32.102 64.7069 33.5877 67.5641 33.5877C69.8212 33.5877 70.2498 33.1877 69.3069 31.902C67.7069 29.7592 66.1069 29.2449 64.9069 30.5306ZM68.2783 31.302C68.9069 31.9306 69.4212 32.5592 69.4212 32.7306C69.4212 33.1306 67.5355 33.3877 66.3926 33.102C65.8212 32.9877 65.1641 32.5877 64.9355 32.2449C64.5355 31.6735 64.5641 31.5592 65.2498 30.8735C66.2498 29.8735 66.9641 29.9877 68.2783 31.302Z" fill="#7B826D"/>
<path d="M49.8786 33.1877C49.05 34.0449 48.9357 34.6449 49.5357 35.4449C50.3643 36.5877 52.85 35.7306 52.85 34.3306C52.85 33.5592 52.5929 33.1877 51.7929 32.7592C50.9071 32.302 50.7357 32.3592 49.8786 33.1877ZM52.1071 33.4734C52.6786 34.0449 52.6786 34.4163 52.0786 35.0734C51.45 35.7877 50.1071 35.7592 49.7071 34.9877C48.9643 33.6449 51.0214 32.3592 52.1071 33.4734Z" fill="#7B826D"/>
<path d="M72.9927 34.1306C72.7355 34.5592 75.2213 37.4735 76.0498 37.7592C76.507 37.902 76.8498 37.7592 77.3355 37.1877C78.7927 35.4735 77.8213 34.102 75.0213 33.9306C73.8498 33.8449 73.1355 33.9306 72.9927 34.1306ZM76.9355 34.7877C77.507 35.0735 77.5927 36.4449 77.0784 36.9592C76.8784 37.1592 76.507 37.302 76.2498 37.302C75.707 37.302 73.3355 34.6163 73.6213 34.3306C73.8498 34.102 76.2213 34.4163 76.9355 34.7877Z" fill="#7B826D"/>
<path d="M66.9358 34.6449C66.2501 34.7877 64.8501 36.2734 64.8501 36.8734C64.8501 37.0734 65.0787 37.5306 65.3644 37.902C66.0501 38.702 67.4501 38.7592 68.3072 37.9877C69.1072 37.2734 70.0787 35.3592 69.8787 34.8449C69.7358 34.4449 68.393 34.3592 66.9358 34.6449ZM69.4215 35.2449C69.4215 36.0449 68.0501 37.8449 67.3072 38.0449C65.7358 38.4163 64.793 36.8163 65.9644 35.7592C66.5644 35.2163 67.7644 34.7877 68.793 34.7592C69.2215 34.7306 69.4215 34.902 69.4215 35.2449Z" fill="#7B826D"/>
<path d="M94.5927 35.8163C94.5641 36.502 94.3641 37.4163 94.1355 37.8735C93.5641 38.9878 91.2498 40.6735 88.4212 42.102C85.2212 43.702 82.7641 45.5878 81.8498 47.1306C80.2498 49.8735 81.107 53.2735 84.2498 56.5592L85.9927 58.3306L83.5641 61.6163C80.3355 65.9306 80.0784 67.2449 82.2784 67.902C83.907 68.3878 87.1641 67.8449 88.4498 66.8735C90.3355 65.4163 90.7927 62.9592 89.5355 60.6449L88.8212 59.2449L90.0498 57.3592C90.707 56.302 91.8212 54.6735 92.4784 53.7306C93.1641 52.7878 95.3355 49.5878 97.3355 46.6449C99.8498 42.902 101.336 40.9592 102.221 40.2735C102.936 39.7306 103.621 39.302 103.736 39.302C103.878 39.302 103.993 39.1592 103.993 39.0163C103.993 38.8449 102.793 38.7306 100.936 38.7306C98.5641 38.7306 97.9641 38.8163 98.2212 39.0735C98.8212 39.6735 98.5927 40.2449 96.907 42.6163C95.9927 43.8735 93.5927 47.3592 91.6212 50.3306C89.6212 53.302 87.707 56.102 87.3355 56.5592L86.6784 57.3878L85.8212 56.8735C83.4498 55.3878 81.9927 53.2735 81.9927 51.302C81.9927 48.9592 83.1641 47.7592 88.5641 44.5878C92.7927 42.102 94.3927 40.502 94.8498 38.302C95.0784 37.1878 95.107 36.3592 94.907 35.6449L94.6212 34.5878L94.5927 35.8163ZM88.8498 62.2163C89.3927 64.1592 87.9355 66.1592 85.9641 66.1592C85.4212 66.1592 85.3641 66.0449 85.507 65.1878C85.5927 64.6449 86.1927 63.3592 86.8784 62.302C88.1641 60.2735 88.307 60.2449 88.8498 62.2163Z" fill="#7B826D"/>
<path d="M71.3356 35.8163C70.2213 37.102 69.6499 39.1877 70.2213 40.0734C70.5642 40.6163 71.7927 40.9592 72.4785 40.702C73.7927 40.2163 73.9356 38.702 72.9356 36.5306C72.4213 35.4163 71.907 35.1877 71.3356 35.8163ZM72.4213 36.5592C73.0499 37.502 73.2499 39.102 72.8785 39.8449C72.2499 41.0163 70.2785 40.3306 70.2785 38.9306C70.2785 38.2163 71.3642 35.8734 71.7356 35.8734C71.8785 35.8734 72.1927 36.1877 72.4213 36.5592Z" fill="#7B826D"/>
<path d="M22.7072 36.2449C23.0786 37.702 23.0214 37.8163 10.3643 55.9877C5.02144 63.6449 3.70715 65.1592 0.22144 67.6449C-0.407131 68.0734 -0.0642739 68.102 6.22144 68.102C10.0786 68.102 12.85 68.0163 12.85 67.8449C12.85 67.702 12.0786 67.5877 11.1357 67.5877C8.99287 67.5877 7.70715 66.9877 7.70715 66.0449C7.70715 65.6734 8.25001 64.6163 8.93573 63.702C9.62144 62.7592 10.85 61.0163 11.6786 59.7877L13.1929 57.5306L13.65 58.4734C15.0214 61.1877 20.6214 62.4449 24.9072 60.9877C30.5929 59.0734 35.4214 55.3877 39.1643 50.0734C42.9357 44.7306 43.45 41.3877 40.9357 38.4449C38.5357 35.6734 35.5929 34.9877 31.4214 36.2734C30.0786 36.6734 28.4786 37.3592 27.85 37.7877C26.7357 38.5306 26.7072 38.5306 27.2786 37.8449C27.5929 37.4734 28.1072 36.9306 28.4214 36.6734C28.7357 36.4163 28.9357 36.1306 28.85 36.0734C28.7643 35.9877 27.3072 35.8449 25.6214 35.7306L22.5357 35.5306L22.7072 36.2449ZM37.1072 36.8449C37.9929 37.3306 38.5643 38.3877 38.5643 39.5877C38.5643 41.9592 35.5072 48.1306 32.6786 51.4163C30.0214 54.5306 26.3072 57.902 24.7072 58.6163C21.7643 59.9592 17.65 60.102 15.8214 58.902C15.1072 58.4163 14.2786 56.902 14.2786 56.0734C14.2786 55.3592 18.05 50.0163 20.5643 47.1592C21.9072 45.6163 24.5929 43.0449 26.5357 41.4163C31.7643 37.0163 34.85 35.702 37.1072 36.8449Z" fill="#7B826D"/>
<path d="M111.021 43.2735C110.736 43.7306 113.25 45.702 116.136 47.2449C119.107 48.8449 119.964 49.0449 117.936 47.6449C117.25 47.1877 115.764 45.9592 114.593 44.902C112.621 43.1306 111.421 42.5877 111.021 43.2735Z" fill="#7B826D"/>
<path d="M167.564 49.502C163.793 49.9877 157.764 53.0735 152.907 56.9592C148.422 60.5592 146.564 63.1592 146.564 65.902C146.564 67.0735 146.679 67.3592 147.564 68.102C148.107 68.5877 149.022 69.0735 149.593 69.1877C152.793 69.7877 158.364 68.102 163.25 65.0449C165.079 63.902 166.564 62.8449 166.564 62.702C166.564 62.5592 166.022 62.7592 165.393 63.1877C163.65 64.2735 160.622 65.7306 158.993 66.2449C156.336 67.102 152.593 67.6163 151.393 67.302C150.022 66.9306 149.879 66.6735 150.279 65.4163C150.536 64.6449 150.736 64.4449 151.107 64.5877C153.079 65.3877 155.393 64.9877 159.707 63.0163C166.822 59.8163 172.564 54.7877 172.564 51.7592C172.564 50.7592 171.707 49.8735 170.422 49.5877C169.25 49.302 169.05 49.302 167.564 49.502ZM169.05 51.4449C169.964 52.0449 169.879 52.6735 168.593 54.6449C167.422 56.4735 166.164 57.502 161.993 60.0163C157.736 62.6163 155.307 63.6449 153.022 63.8163C150.764 63.9877 150.764 64.102 152.879 61.4449C154.593 59.2734 156.879 57.0735 160.107 54.4735C164.479 50.9306 166.964 50.0735 169.05 51.4449Z" fill="#7B826D"/>
<path d="M49.3931 49.9878C45.9931 50.902 35.6788 57.502 33.3074 60.2735C29.5645 64.6735 29.2788 67.1306 32.4216 68.3306C35.1931 69.3878 40.2216 68.302 46.4788 65.302C48.8216 64.1878 50.2216 63.2449 53.3074 60.6735C58.8788 56.0449 58.8788 56.0449 57.1645 58.302C56.3645 59.4163 54.9359 61.3878 54.0216 62.7306C53.1074 64.0735 51.6788 65.8449 50.8502 66.702L49.3645 68.2449L51.1645 68.0735C52.1359 67.9592 53.5645 67.8735 54.3074 67.8735C55.5645 67.8735 55.7074 67.8163 55.7074 67.2163C55.7074 66.3592 56.3074 65.502 59.4502 61.9878C62.1931 58.8735 66.8788 54.4735 68.9645 53.0163C70.2502 52.1592 72.0788 51.5306 72.7074 51.7878C73.1931 51.9592 73.4502 52.6735 73.4788 53.8735C73.5359 55.902 74.2788 53.9306 74.2788 51.702C74.2788 50.4449 73.6788 50.0449 72.1074 50.2449C69.7645 50.502 67.2788 52.0449 63.8502 55.302C61.3931 57.6735 60.9645 57.9878 61.7931 56.8735C63.3074 54.8449 64.2788 52.902 64.2788 51.8735C64.2788 49.502 62.0502 50.8449 56.4216 56.5878C51.1359 61.9592 50.0502 62.8449 46.2502 64.7592C41.6788 67.0449 37.0788 68.0449 35.0502 67.2163C33.1074 66.3878 33.8502 65.2735 36.7645 64.6449C41.8216 63.5306 47.4216 60.902 51.1645 57.8735C54.0788 55.5306 55.1359 54.2163 55.3359 52.7306C55.6788 50.1592 53.1359 48.9878 49.3931 49.9878ZM52.5645 52.0163C54.3645 54.1877 46.0788 60.6735 38.3359 63.1306C37.0216 63.5306 35.8216 63.8735 35.6788 63.8735C35.2502 63.8735 36.9931 61.5306 39.1074 59.2449C41.7645 56.3592 46.5645 52.702 48.7074 51.9306C49.9931 51.4735 52.1359 51.502 52.5645 52.0163Z" fill="#7B826D"/>
<path d="M110.85 50.1306C109.279 50.6163 101.336 54.8449 99.7073 56.0449C96.5645 58.4163 92.5645 64.102 92.5645 66.2163C92.5645 67.4734 93.6216 68.3877 95.6502 68.902C97.593 69.3877 99.0787 69.302 102.136 68.5306C104.279 68.0163 108.193 66.1877 109.936 64.9306C110.679 64.3877 111.907 63.5877 112.65 63.1592C115.05 61.7877 113.907 62.102 110.679 63.702C103.193 67.4163 98.793 68.5877 96.5645 67.4449C95.5645 66.9306 95.5359 66.702 96.193 65.5592C96.5645 64.9306 96.8216 64.7877 97.3073 64.902C98.1645 65.1306 102.222 64.0449 104.707 62.9592C105.793 62.4734 107.993 61.302 109.564 60.3592C114.679 57.302 116.907 55.3877 117.45 53.5306C118.193 51.1306 116.85 49.8734 113.564 49.902C112.479 49.902 111.25 50.0163 110.85 50.1306ZM114.879 51.1877C115.936 52.1306 115.507 53.7306 113.679 55.5306C109.45 59.702 102.822 63.3877 98.4502 64.0163L97.0502 64.2163L98.8216 62.0449C100.736 59.702 106.079 54.5592 108.564 52.702C111.536 50.4449 113.536 49.9592 114.879 51.1877Z" fill="#7B826D"/>
<path d="M144.136 50.2449C140.993 51.4735 132.65 56.4449 129.507 58.9592C125.421 62.2163 125.278 62.302 125.593 61.8735C127.793 58.9877 131.021 54.3877 131.45 53.5306C132.25 51.9592 132.164 50.7877 131.25 50.4449C129.993 49.9592 126.678 50.102 124.907 50.7306C122.364 51.6163 119.621 53.6449 118.307 55.6163C116.364 58.5306 116.05 62.302 117.564 64.8735L118.307 66.1592L117.164 66.9306C116.536 67.3877 116.021 67.8163 115.993 67.9306C115.993 68.0163 116.993 68.1877 118.221 68.302C119.964 68.4735 120.564 68.6449 121.136 69.1877C121.964 69.9592 123.964 70.8735 125.421 71.1592C126.164 71.2735 126.307 71.2449 125.993 71.0449C125.764 70.8735 125.364 70.7306 125.136 70.7306C124.393 70.7306 122.564 69.0163 122.564 68.3592C122.564 67.3306 123.507 66.102 125.964 63.8449C130.278 59.9306 135.107 56.5306 140.107 53.8735C143.164 52.2449 142.736 53.8163 138.85 58.5592C132.593 66.1877 131.793 67.5877 133.193 68.5592C135.107 69.902 141.421 67.8449 144.936 64.702C146.507 63.3306 145.907 63.102 143.993 64.3592C141.536 65.9306 138.964 67.0735 138.078 66.9592C136.421 66.7877 136.678 66.3592 142.793 59.5592C145.793 56.2163 146.878 54.6735 147.593 52.8163C148.05 51.6449 148.05 51.4449 147.678 50.7592C147.336 50.1877 147.021 50.0163 146.136 49.9592C145.507 49.9306 144.593 50.0449 144.136 50.2449ZM127.45 53.3592C126.021 55.9592 121.364 62.702 120.278 63.7306L119.478 64.4735L119.136 63.0163C118.307 59.5877 119.307 56.6449 122.107 54.4163C124.136 52.8163 126.907 51.302 127.907 51.302C128.593 51.302 128.593 51.302 127.45 53.3592Z" fill="#7B826D"/>
<path d="M71.7642 56.2163C71.5642 56.4163 71.4214 56.7306 71.4214 56.9306C71.4214 57.4734 72.05 58.7306 72.3357 58.7306C72.7357 58.7306 73.45 56.8163 73.25 56.3306C73.05 55.7877 72.25 55.7306 71.7642 56.2163ZM72.7357 57.4449C72.6214 57.8449 72.4214 58.102 72.2785 58.0163C71.9642 57.8163 71.9071 56.6449 72.1928 56.3306C72.5642 55.9592 72.9357 56.702 72.7357 57.4449Z" fill="#7B826D"/>
<path d="M74.3929 58.2449C73.3072 59.1877 73.6215 59.9877 74.9072 59.7306C76.05 59.4735 76.85 58.8163 76.85 58.102C76.85 57.3306 75.3643 57.4163 74.3929 58.2449ZM76.4215 58.4449C76.4215 58.6735 75.9072 58.9877 75.2215 59.1877C73.8215 59.5877 73.7357 59.4735 74.6215 58.5306C75.3072 57.7877 76.4215 57.7306 76.4215 58.4449Z" fill="#7B826D"/>
<path d="M68.6214 58.2449C68.0786 58.902 68.9929 59.8734 70.1643 59.8734C71.3643 59.8734 71.45 59.302 70.3929 58.4734C69.5071 57.7877 69.05 57.7306 68.6214 58.2449ZM70.4214 59.0163C70.9071 59.5592 70.9071 59.5877 70.45 59.5877C69.7929 59.5877 68.85 59.0734 68.85 58.7306C68.85 58.2449 69.8786 58.4163 70.4214 59.0163Z" fill="#7B826D"/>
<path d="M63.7073 61.4449C62.9073 62.4163 64.393 63.7306 65.2787 62.8163C65.793 62.302 65.8216 61.8163 65.3645 61.3592C64.9073 60.902 64.1359 60.9306 63.7073 61.4449ZM65.1359 62.1592C65.1359 62.8163 64.1359 62.9592 63.9073 62.3306C63.7073 61.8163 63.9359 61.5878 64.6216 61.5878C64.9359 61.5878 65.1359 61.7878 65.1359 62.1592Z" fill="#7B826D"/>
<path d="M68.4499 61.3877C67.6499 61.9592 67.9642 62.8449 68.9927 62.9592C70.107 63.0734 71.5642 61.7306 70.8499 61.302C70.2213 60.902 69.0499 60.9592 68.4499 61.3877ZM70.5642 61.7306C70.5642 61.7877 70.2499 62.0734 69.8499 62.3306C69.2784 62.702 69.0499 62.7306 68.707 62.4449C68.4784 62.2449 68.3642 61.9877 68.4499 61.8449C68.5927 61.5877 70.5642 61.4734 70.5642 61.7306Z" fill="#7B826D"/>
<path d="M74.1355 61.5877C74.0212 61.7592 74.1641 62.2163 74.4212 62.6163C74.7641 63.1306 75.0784 63.302 75.6212 63.2449C76.5927 63.1306 77.0784 62.3592 76.5927 61.7592C76.1641 61.2449 74.4212 61.1306 74.1355 61.5877ZM76.107 61.9592C76.5641 62.302 76.5641 62.3592 76.1927 62.702C75.6498 63.1306 74.5641 62.6734 74.5641 62.0163C74.5641 61.4734 75.4212 61.4734 76.107 61.9592Z" fill="#7B826D"/>
<path d="M71.8787 62.502C71.3073 63.302 71.2787 64.702 71.8215 64.902C72.0501 64.9878 72.5073 64.9306 72.8215 64.7306C73.7644 64.2449 73.5073 61.8735 72.5358 61.8735C72.393 61.8735 72.1073 62.1592 71.8787 62.502ZM72.9644 62.6163C73.2787 63.4449 73.1358 64.1306 72.5644 64.4449C71.793 64.8735 71.5073 64.1592 71.993 63.0163C72.393 62.0735 72.7073 61.9306 72.9644 62.6163Z" fill="#7B826D"/>
<path d="M67.0503 65.502C66.6788 65.8449 66.8503 67.0163 67.2503 67.0163C67.6503 67.0163 67.9931 66.4163 67.9931 65.702C67.9931 65.302 67.3931 65.1592 67.0503 65.502ZM67.4788 66.2163C67.2788 66.4163 67.136 66.4449 67.136 66.2735C67.136 66.102 67.2217 65.8735 67.336 65.7878C67.4217 65.6735 67.5931 65.6449 67.6788 65.7306C67.736 65.8163 67.6503 66.0449 67.4788 66.2163Z" fill="#7B826D"/>
<path d="M68.5069 66.4734C67.7355 66.902 67.9069 67.3592 68.7926 67.2449C69.2212 67.1877 69.5641 66.9877 69.5641 66.7592C69.5641 66.2163 69.1069 66.102 68.5069 66.4734Z" fill="#7B826D"/>
<path d="M64.9929 66.7306C64.8786 66.9306 64.9072 67.1877 65.0786 67.3592C65.4786 67.7592 66.4215 67.5306 66.4215 67.0163C66.4215 66.502 65.2786 66.2734 64.9929 66.7306ZM65.9929 67.0163C65.9929 67.1592 65.8786 67.302 65.7072 67.302C65.5643 67.302 65.4215 67.1592 65.4215 67.0163C65.4215 66.8449 65.5643 66.7306 65.7072 66.7306C65.8786 66.7306 65.9929 66.8449 65.9929 67.0163Z" fill="#7B826D"/>
<path d="M65.193 68.2163C64.6216 68.7877 64.8216 69.0734 65.7073 68.9592C66.393 68.8449 66.5645 68.9306 66.5645 69.3592C66.5645 70.0163 67.3359 70.3592 67.793 69.902C68.2216 69.4734 67.6788 68.5592 67.0216 68.6163C66.7645 68.6449 66.5645 68.502 66.5645 68.2734C66.5645 67.7877 65.6502 67.7592 65.193 68.2163ZM66.2788 68.2734C66.2788 68.3306 66.0788 68.4734 65.8216 68.5592C65.593 68.6449 65.4788 68.6163 65.5645 68.4449C65.7359 68.1592 66.2788 68.0449 66.2788 68.2734ZM67.4216 69.4734C67.4216 69.702 67.3073 69.8163 67.1359 69.7306C66.993 69.6449 66.8502 69.4449 66.8502 69.2734C66.8502 69.1306 66.993 69.0163 67.1359 69.0163C67.3073 69.0163 67.4216 69.2163 67.4216 69.4734Z" fill="#7B826D"/>
<path d="M68.0498 68.3592C68.107 68.6735 68.4498 68.902 68.9356 68.9592C69.5927 69.0449 69.7356 68.9592 69.6498 68.5306C69.5927 68.2163 69.2498 67.9877 68.7641 67.9306C68.107 67.8449 67.9641 67.9306 68.0498 68.3592ZM69.1356 68.4449C69.1356 68.5877 69.0213 68.7306 68.8784 68.7306C68.707 68.7306 68.507 68.5877 68.4213 68.4449C68.3356 68.2735 68.4498 68.1592 68.6784 68.1592C68.9356 68.1592 69.1356 68.2735 69.1356 68.4449Z" fill="#7B826D"/>
</svg>
