<?xml version="1.0" standalone="no"?>
<!DOCTYPE svg PUBLIC "-//W3C//DTD SVG 20010904//EN"
 "http://www.w3.org/TR/2001/REC-SVG-20010904/DTD/svg10.dtd">
<svg version="1.0" xmlns="http://www.w3.org/2000/svg"
 width="1384.000000pt" height="1384.000000pt" viewBox="0 0 1384.000000 1384.000000"
 preserveAspectRatio="xMidYMid meet">
<metadata>
Created by potrace 1.14, written by Peter Selinger 2001-2017
</metadata>
<g transform="translate(0.000000,1384.000000) scale(0.100000,-0.100000)"
fill="#000000" stroke="none">
<path d="M9373 9767 c-17 -18 -38 -46 -47 -64 -9 -18 -35 -46 -59 -62 -84 -61
-118 -101 -171 -208 -61 -124 -65 -145 -71 -373 -4 -173 -14 -250 -40 -300
-28 -55 -45 -55 -117 3 -36 29 -94 78 -129 111 -97 89 -177 142 -249 165 -36
12 -89 33 -118 48 -44 21 -69 26 -135 28 -60 1 -102 8 -157 27 -170 59 -394
89 -426 56 -13 -13 -10 -26 30 -106 25 -50 46 -97 46 -105 0 -25 56 -92 108
-130 l50 -37 -67 -69 c-104 -108 -242 -270 -252 -299 -2 -6 -115 -12 -264 -15
-255 -6 -289 -8 -337 -22 -93 -26 -91 -55 7 -135 41 -34 88 -80 104 -103 41
-60 79 -93 132 -116 l47 -19 -103 -156 c-56 -86 -110 -172 -119 -191 -19 -40
-28 -47 -70 -51 -135 -14 -158 -18 -171 -26 -18 -11 -119 -36 -190 -47 -175
-28 -203 -40 -190 -81 10 -32 82 -98 114 -105 15 -3 55 -29 87 -56 32 -28 80
-65 106 -83 l46 -32 -59 -129 c-198 -431 -336 -810 -364 -997 -4 -24 -9 -47
-12 -52 -3 -5 0 -7 8 -4 8 3 15 14 17 26 2 12 7 22 11 22 4 0 8 6 8 13 1 12
76 225 93 262 5 11 23 61 41 110 34 98 143 375 158 403 5 9 17 35 27 57 9 22
41 91 71 153 l54 112 102 0 c575 2 676 10 738 54 23 16 22 17 -31 10 -66 -9
-570 -9 -655 1 -33 3 -67 6 -75 7 -64 2 -196 60 -206 91 -7 23 -6 25 35 32 95
16 143 95 111 179 -9 26 -9 26 38 27 566 11 529 10 677 6 160 -5 182 -16 322
-161 109 -112 255 -270 353 -381 30 -33 56 -62 59 -65 6 -5 111 -128 231 -270
25 -29 46 -59 48 -67 2 -7 7 -13 12 -13 4 0 10 -9 13 -20 3 -11 10 -20 15 -20
9 0 9 19 -1 71 -3 20 -27 57 -81 129 -48 64 -68 87 -256 290 -116 125 -124
134 -230 251 -127 140 -252 263 -282 277 -107 47 -82 46 -520 37 -159 -3 -166
-1 -130 46 10 13 21 32 25 42 15 41 123 189 169 233 53 49 52 49 148 29 42 -9
73 -13 130 -20 30 -3 62 -8 71 -11 9 -2 38 -7 65 -9 27 -3 63 -7 79 -9 17 -3
44 -7 62 -10 47 -7 77 -17 85 -29 9 -15 -17 -76 -42 -97 -11 -9 -17 -20 -14
-23 9 -8 100 21 188 60 112 50 121 40 131 -132 10 -179 23 -305 31 -314 15
-16 19 42 22 275 l3 264 -23 1 c-13 0 -32 2 -43 5 -11 2 -40 6 -65 9 -25 3
-72 10 -105 15 -33 5 -80 12 -105 15 -25 3 -56 7 -70 10 -14 2 -45 7 -70 10
-25 3 -56 8 -70 10 -14 3 -41 7 -60 9 -63 8 -168 26 -266 46 -139 28 -279 98
-201 101 23 1 60 5 113 14 18 3 37 12 43 19 10 12 18 71 20 154 1 25 2 25 221
7 60 -5 80 -7 165 -20 17 -2 55 -7 85 -10 30 -3 84 -10 120 -16 36 -6 76 -12
90 -14 28 -4 95 -15 125 -20 11 -2 70 -13 130 -25 61 -12 121 -24 134 -26 14
-3 28 -7 31 -9 4 -2 20 -7 37 -9 116 -21 214 -72 233 -121 14 -37 33 -255 45
-505 2 -58 7 -143 11 -190 3 -47 7 -124 8 -172 0 -49 5 -88 9 -88 5 0 5 -4 2
-10 -3 -5 -1 -18 4 -27 8 -14 11 -15 11 -3 1 8 4 42 8 75 9 83 8 517 -1 645
-20 255 -37 308 -133 410 -77 80 -212 254 -299 386 l-74 110 -63 13 c-107 21
-112 22 -151 32 -46 12 -171 70 -175 81 -2 4 -9 8 -16 8 -6 0 -37 25 -69 55
-31 30 -52 55 -47 55 6 0 39 -15 73 -32 66 -35 70 -36 135 -45 42 -6 44 -4 95
48 29 30 61 66 71 81 18 25 40 29 66 13 5 -3 19 -8 29 -10 28 -5 173 -45 191
-52 8 -3 20 -7 25 -8 26 -6 105 -48 105 -56 0 -5 5 -9 11 -9 6 0 16 -6 23 -12
8 -7 35 -31 61 -53 27 -22 63 -53 81 -70 18 -16 50 -44 71 -62 21 -18 54 -46
73 -63 19 -18 62 -55 94 -83 139 -122 177 -162 185 -197 10 -47 3 -228 -13
-345 -2 -16 -7 -64 -11 -105 -3 -41 -8 -84 -10 -95 -2 -11 -7 -47 -11 -80 -3
-33 -8 -73 -9 -90 -2 -16 -6 -43 -9 -60 -3 -16 -8 -52 -11 -80 -4 -27 -15 -93
-25 -145 -11 -52 -22 -126 -25 -165 -7 -87 -19 -177 -30 -225 -3 -14 -8 -38
-10 -54 -12 -61 -50 -117 -201 -293 -128 -150 -440 -469 -570 -583 -107 -95
-145 -132 -139 -138 5 -5 149 92 195 131 130 110 184 161 335 312 263 262 387
412 422 510 17 46 32 115 39 181 3 32 8 62 10 65 2 3 6 30 9 60 3 30 7 70 10
89 3 19 7 58 10 85 3 28 8 61 11 75 7 31 11 54 18 105 26 198 72 417 105 490
10 23 29 52 42 66 29 29 98 132 166 249 45 78 49 90 47 145 -1 33 -5 146 -8
250 -4 105 -9 249 -11 320 -6 178 -19 395 -30 520 -3 33 -8 80 -10 105 -2 25
-10 63 -17 85 -17 51 -42 55 -85 12z m57 -32 c18 -47 21 -79 26 -247 l5 -167
-27 -7 c-32 -8 -53 3 -76 42 -51 87 -34 312 28 379 29 31 32 31 44 0z m-137
-236 c7 -136 42 -210 101 -213 13 -1 31 -7 39 -15 23 -19 24 -21 43 -326 9
-125 8 -364 0 -429 -11 -87 -35 -147 -121 -295 -22 -38 -100 -139 -104 -135
-2 2 -3 32 -1 67 13 257 3 281 -170 427 -36 30 -68 59 -72 64 -3 5 4 30 17 56
44 87 55 149 60 344 6 234 20 309 72 398 28 47 122 162 128 156 2 -2 5 -46 8
-99z m-1462 -330 c57 -11 129 -26 159 -33 87 -21 139 -53 134 -83 -1 -7 -2
-20 -3 -28 0 -8 -15 -30 -32 -50 -26 -29 -38 -35 -73 -35 -51 0 -140 41 -221
103 -75 57 -101 85 -109 120 -6 24 -3 27 18 27 13 0 70 -9 127 -21z m151 -410
c76 -31 107 -39 158 -45 47 -5 80 -32 80 -63 0 -14 -7 -47 -35 -170 -12 -51
-35 -92 -57 -100 -23 -8 -92 -7 -163 2 -22 3 -65 9 -95 12 -30 4 -66 8 -80 10
-14 2 -53 6 -87 10 -35 4 -63 9 -63 12 0 7 41 75 55 89 5 7 24 29 41 50 18 22
52 60 75 86 24 27 60 66 79 87 19 22 36 40 37 40 1 1 26 -9 55 -20z m373 -176
c11 -18 23 -33 27 -33 4 0 8 -5 8 -10 0 -12 48 -80 92 -133 33 -38 35 -56 8
-87 -16 -18 -26 -21 -62 -17 -55 6 -90 13 -153 30 -48 13 -50 15 -49 48 1 44
21 122 70 268 5 15 26 -9 59 -66z m-1064 -189 c37 -19 49 -69 34 -141 -5 -21
-21 -30 -71 -37 -43 -7 -217 61 -282 110 -29 23 -32 28 -19 41 37 38 280 57
338 27z m-490 -866 c30 -55 -49 -113 -159 -117 -52 -2 -73 2 -116 24 -29 14
-58 35 -64 46 -11 18 -9 21 22 34 18 8 49 17 67 20 19 3 48 8 64 12 17 3 47 7
68 8 21 1 40 5 43 8 10 10 64 -15 75 -35z"/>
<path d="M8549 9778 c-33 -11 -48 -43 -43 -90 3 -29 0 -39 -15 -47 -27 -15
-91 -11 -91 6 0 13 17 18 58 14 27 -2 30 24 4 31 -23 6 -84 -14 -84 -27 0 -5
-4 -15 -10 -22 -6 -8 -3 -18 11 -32 23 -23 31 -23 131 6 76 21 75 22 75 -12 1
-30 1 -30 57 -30 31 0 60 -3 63 -7 15 -14 -8 -28 -43 -27 -20 0 -46 -1 -57 -3
-11 -3 -40 4 -65 14 -84 36 -121 25 -141 -43 -14 -45 0 -73 30 -61 27 11 66
45 74 65 4 10 11 16 16 12 6 -3 8 -12 4 -20 -3 -9 -2 -31 1 -50 8 -39 34 -52
68 -34 30 16 38 28 38 62 0 25 3 27 38 27 45 0 62 14 62 52 0 29 -22 48 -56
48 -4 0 5 11 20 25 43 40 28 75 -36 78 -27 2 -36 8 -47 34 -17 38 -27 43 -62
31z m19 -62 c2 -9 -2 -24 -9 -32 -12 -14 -14 -14 -26 1 -9 13 -9 23 -2 37 12
22 32 19 37 -6z m115 -46 c-6 -22 -33 -28 -33 -7 0 17 10 27 26 27 7 0 10 -8
7 -20z m-207 -143 c2 -18 -38 -51 -55 -45 -6 1 -1 18 11 36 21 34 39 38 44 9z
m112 -51 c5 -22 -19 -40 -30 -23 -4 7 -8 20 -8 30 0 25 34 18 38 -7z"/>
<path d="M6101 9690 c-13 -3 -33 -18 -44 -32 -22 -29 -24 -63 -13 -188 l7 -75
-28 26 c-92 85 -123 103 -175 108 -33 2 -40 -2 -57 -29 -51 -84 18 -137 188
-144 41 -2 59 2 72 15 9 9 32 22 51 29 50 19 129 137 131 197 1 25 -7 40 -32
62 -35 32 -63 40 -100 31z m54 -32 c32 -14 41 -48 26 -97 -14 -47 -66 -121
-86 -121 -21 0 -36 69 -31 136 4 45 10 62 28 76 28 21 30 21 63 6z m-262 -170
c18 -12 48 -37 67 -56 l35 -33 -60 2 c-79 3 -114 16 -121 44 -7 28 11 65 32
65 9 0 30 -10 47 -22z"/>
<path d="M6334 9545 c-44 -19 -134 -117 -134 -147 0 -21 72 -45 125 -42 90 7
128 25 150 71 19 40 14 60 -23 95 -32 32 -78 40 -118 23z m81 -39 c27 -26 29
-69 5 -96 -18 -21 -31 -25 -88 -26 -37 -1 -79 0 -94 3 -27 5 -27 5 30 62 85
82 112 93 147 57z"/>
<path d="M8117 9527 c-9 -7 -23 -28 -31 -48 -12 -29 -13 -40 -3 -53 26 -35
105 -36 129 -1 14 18 8 58 -9 72 -43 33 -70 43 -86 30z m58 -56 c6 -21 -3 -51
-17 -51 -21 0 -46 21 -44 36 5 33 51 45 61 15z"/>
<path d="M5904 9273 c-89 -23 -117 -48 -117 -106 0 -58 31 -97 76 -97 31 0
117 44 117 60 0 5 6 15 13 22 20 20 56 110 50 125 -7 17 -61 15 -139 -4z m90
-28 c7 -19 -7 -56 -31 -85 -42 -50 -123 -67 -143 -30 -19 36 -2 67 53 93 79
38 112 44 121 22z"/>
<path d="M6229 9280 c-31 -20 17 -108 103 -191 35 -34 41 -36 79 -29 48 9 68
26 75 63 13 73 -84 147 -208 160 -20 2 -42 1 -49 -3z m98 -41 c84 -25 116 -54
115 -101 -2 -69 -59 -68 -122 2 -38 42 -85 120 -73 120 4 0 40 -10 80 -21z"/>
<path d="M6130 9192 c0 -16 28 -61 50 -82 11 -11 31 -56 32 -75 5 -67 -39
-107 -91 -85 -46 19 -55 63 -37 170 5 25 13 51 19 58 7 9 6 11 -5 7 -36 -14
-72 -151 -54 -206 9 -29 19 -37 60 -50 56 -19 98 -11 129 24 37 43 22 122 -41
205 -34 44 -62 60 -62 34z"/>
<path d="M3348 8840 c-36 -28 -40 -53 -13 -84 32 -37 87 -46 111 -17 28 32 27
64 0 94 -30 32 -64 34 -98 7z m75 -29 c14 -14 17 -55 4 -63 -22 -14 -48 -8
-73 18 -25 24 -25 26 -9 44 16 18 60 19 78 1z"/>
<path d="M2956 8389 c-20 -16 -26 -29 -26 -61 0 -44 33 -108 56 -108 39 0 63
116 35 169 -15 26 -31 27 -65 0z m49 -31 c9 -38 -9 -103 -26 -92 -5 3 -7 9 -4
14 3 5 2 11 -3 14 -7 4 -9 48 -3 79 3 17 31 5 36 -15z"/>
<path d="M3135 8304 c-14 -13 -28 -24 -31 -24 -8 0 -54 -52 -54 -60 0 -36 110
-43 166 -12 46 25 33 84 -23 107 -29 12 -34 12 -58 -11z m82 -38 c13 -13 -25
-38 -67 -43 -49 -7 -69 11 -44 38 11 12 28 16 60 14 25 -1 48 -5 51 -9z"/>
<path d="M2743 8294 c-32 -14 3 -75 54 -95 38 -14 100 -11 117 7 19 19 9 43
-29 68 -27 18 -119 30 -142 20z m92 -30 c36 -14 69 -43 54 -49 -39 -14 -119
17 -119 45 0 21 18 22 65 4z"/>
<path d="M5727 8280 c-15 -12 -29 -36 -33 -56 -5 -28 -2 -38 16 -54 31 -27 56
-25 85 5 29 28 32 70 9 103 -19 27 -44 28 -77 2z m70 -34 c11 -10 -7 -36 -32
-48 -21 -9 -29 -9 -40 3 -13 13 -13 17 0 35 13 20 57 26 72 10z"/>
<path d="M2783 8112 c-56 -6 -83 -71 -45 -105 24 -22 34 -21 92 8 63 32 106
73 91 88 -11 11 -78 15 -138 9z m85 -30 c5 -17 -59 -52 -95 -52 -24 0 -31 4
-28 18 2 9 4 20 4 24 1 10 61 26 91 23 13 -1 26 -7 28 -13z"/>
<path d="M3069 8099 c-13 -26 9 -61 61 -97 46 -31 112 -19 105 20 -8 41 -62
83 -117 92 -31 5 -39 2 -49 -15z m114 -51 c22 -27 22 -38 -3 -38 -22 0 -70 42
-70 61 0 17 52 1 73 -23z"/>
<path d="M6110 8113 c-37 -10 -101 -49 -106 -65 -3 -10 -9 -18 -14 -18 -11 0
-25 -58 -22 -93 6 -76 79 -141 154 -136 51 4 110 41 128 83 15 33 15 102 1
140 -6 13 -29 37 -53 53 -50 35 -67 42 -88 36z m63 -62 c63 -41 77 -106 35
-167 -24 -35 -77 -60 -113 -55 -37 5 -82 48 -92 88 -27 108 80 193 170 134z"/>
<path d="M2962 8053 c-50 -98 -35 -165 40 -179 47 -10 61 68 29 161 -22 63
-44 69 -69 18z m52 -93 c1 -59 -17 -84 -38 -55 -8 11 -12 23 -10 27 2 4 0 9
-5 12 -12 8 4 67 21 77 21 13 32 -8 32 -61z"/>
<path d="M4774 7965 c-28 -43 0 -124 38 -110 18 7 40 -16 30 -31 -4 -6 -21
-16 -39 -23 -34 -14 -46 -41 -36 -81 17 -69 101 -44 90 27 -5 29 -2 35 16 42
12 5 28 6 35 4 6 -3 23 -2 37 1 19 5 25 13 25 35 0 35 -14 47 -60 49 -37 3
-62 25 -53 48 3 8 2 25 -1 39 -9 35 -59 35 -82 0z m42 -31 c9 -35 -12 -56 -31
-30 -10 13 -11 24 -4 37 14 26 27 24 35 -7z m142 -78 c10 -10 -15 -28 -42 -31
-30 -4 -42 10 -27 29 11 13 57 14 69 2z m-138 -111 c0 -25 -16 -24 -18 1 -1
15 2 22 8 19 6 -3 10 -12 10 -20z"/>
<path d="M4648 7874 c-21 -11 -28 -22 -28 -44 0 -37 28 -53 75 -44 67 12 77
66 18 93 -30 14 -32 13 -65 -5z m82 -45 c0 -9 -5 -10 -49 -13 -31 -1 -39 21
-9 26 30 5 58 -2 58 -13z"/>
<path d="M5600 7651 c-8 -6 -17 -8 -22 -5 -4 3 -21 -14 -37 -36 -45 -63 -39
-112 32 -254 32 -62 67 -122 78 -132 19 -17 21 -17 53 0 119 64 122 361 5 422
-32 16 -87 18 -109 5z m101 -48 c16 -10 29 -24 29 -33 0 -9 5 -21 12 -28 15
-15 15 -153 -1 -209 -6 -22 -20 -52 -30 -64 l-19 -23 -28 30 c-62 67 -131 243
-114 289 19 50 98 69 151 38z"/>
<path d="M6004 7456 c-81 -38 -188 -164 -181 -215 4 -28 27 -38 117 -47 30 -3
57 -6 60 -7 12 -2 78 17 105 30 37 19 95 80 96 102 1 9 2 25 3 36 2 28 -17 66
-48 94 -35 33 -91 35 -152 7z m140 -37 c18 -22 23 -36 19 -61 -7 -47 -24 -78
-56 -102 -25 -19 -42 -21 -147 -21 -65 0 -122 4 -126 8 -13 12 146 165 199
191 55 28 78 25 111 -15z"/>
<path d="M5266 7405 c-85 -29 -146 -129 -115 -188 38 -73 130 -106 286 -102
143 3 173 35 114 123 -35 53 -126 141 -161 154 -54 22 -88 25 -124 13z m97
-35 c41 -19 103 -74 160 -140 52 -62 33 -78 -103 -84 -81 -4 -148 12 -195 48
-40 31 -57 63 -45 86 24 43 87 93 138 109 1 1 21 -8 45 -19z"/>
<path d="M4034 7181 c-93 -68 -121 -135 -82 -199 24 -39 56 -55 113 -57 68 -3
150 54 161 111 13 69 -25 120 -117 158 -36 15 -38 15 -75 -13z m120 -46 c29
-21 55 -66 48 -84 -36 -98 -169 -131 -219 -54 -24 36 -24 51 -3 93 31 61 119
83 174 45z"/>
<path d="M5865 7082 c-36 -8 -34 -25 13 -93 90 -128 183 -213 234 -211 21 0
40 13 68 42 107 113 62 227 -100 255 -55 9 -188 14 -215 7z m193 -38 c103 -18
141 -55 134 -132 -5 -51 -42 -92 -84 -92 -35 0 -108 64 -174 154 -61 82 -59
89 24 82 37 -3 82 -8 100 -12z"/>
<path d="M5467 7044 c-1 -1 -28 -4 -59 -8 -71 -7 -90 -17 -155 -85 -64 -66
-75 -104 -44 -155 44 -71 132 -97 213 -63 64 27 172 197 166 260 -2 24 -9 32
-33 39 -29 9 -83 16 -88 12z m71 -32 c19 -3 14 -57 -9 -101 -27 -53 -94 -128
-130 -147 -28 -14 -76 -14 -110 0 -18 8 -54 65 -53 84 1 6 2 20 3 30 2 25 51
76 91 95 80 38 137 48 208 39z"/>
<path d="M7570 7010 c0 -3 -3 -34 -5 -70 -10 -158 -42 -213 -192 -326 -39 -30
-74 -54 -77 -54 -3 0 -24 -13 -48 -29 -24 -15 -106 -62 -184 -104 -159 -85
-259 -148 -342 -214 -55 -44 -152 -139 -152 -150 0 -3 -9 -18 -20 -34 -63 -87
-82 -262 -42 -385 35 -105 118 -248 187 -320 11 -12 57 -60 102 -106 l82 -84
-139 -190 c-77 -104 -143 -193 -148 -199 -20 -25 -83 -135 -101 -179 -21 -47
-27 -100 -15 -130 8 -22 71 -59 121 -72 78 -20 278 -3 358 30 16 7 35 14 40
15 46 11 165 105 165 131 0 5 6 15 13 22 24 24 46 126 43 198 -3 71 -26 140
-78 238 -15 29 -28 56 -28 60 0 6 116 190 137 217 4 6 14 22 22 37 8 15 22 37
33 47 10 11 18 22 18 25 0 5 90 137 100 146 5 5 104 151 225 330 27 41 52 77
55 80 3 3 48 68 99 145 250 369 343 480 458 547 78 44 79 51 8 63 -44 7 -338
8 -370 1 -11 -2 -26 -5 -34 -5 -11 -1 -10 -6 3 -26 31 -47 16 -89 -82 -230
-264 -381 -336 -487 -462 -675 -80 -118 -148 -219 -152 -225 -5 -5 -44 -62
-87 -125 -93 -135 -132 -187 -146 -193 -17 -7 -143 81 -206 143 -114 113 -160
202 -165 323 -7 168 60 256 330 432 63 41 117 75 120 75 9 0 221 134 224 142
2 4 8 8 13 8 16 0 119 79 183 139 131 125 191 290 163 452 -6 34 -25 89 -27
79z m-495 -2094 c9 -13 18 -36 21 -50 2 -14 8 -36 13 -48 22 -61 -8 -177 -62
-237 -48 -53 -197 -95 -209 -59 -19 55 94 296 185 396 26 28 33 28 52 -2z"/>
<path d="M1815 6902 c10 -45 9 -65 -1 -95 -17 -47 -76 -161 -86 -165 -5 -2 -8
-8 -8 -13 0 -13 -188 -294 -413 -619 -29 -41 -133 -192 -232 -335 -99 -143
-183 -264 -187 -270 -5 -5 -83 -115 -174 -244 -152 -215 -243 -339 -269 -367
-5 -6 -28 -33 -50 -59 -73 -89 -119 -137 -191 -199 -87 -75 -97 -83 -157 -125
-33 -25 -44 -38 -37 -45 12 -12 862 -15 958 -4 48 6 81 17 56 19 -5 0 -18 2
-29 5 -11 2 -63 6 -115 8 -139 8 -185 20 -233 64 -37 35 -35 71 8 148 30 55
104 165 135 201 5 7 67 96 136 198 69 102 127 185 129 185 2 0 16 -25 31 -55
65 -127 201 -207 423 -249 73 -13 288 -14 341 -1 14 3 37 7 52 10 15 2 31 6
36 9 5 3 19 7 33 10 98 19 379 155 526 254 232 156 471 387 616 597 137 198
206 321 249 448 26 78 31 108 32 192 1 84 -3 110 -23 160 -66 163 -225 310
-391 360 -64 19 -214 27 -280 15 -25 -4 -61 -11 -80 -15 -19 -3 -39 -7 -45 -9
-130 -38 -183 -57 -255 -89 -28 -13 -105 -57 -147 -84 -26 -17 -25 -15 9 27
20 25 58 64 83 88 25 24 43 47 40 52 -8 13 -103 23 -436 44 l-65 4 11 -56z
m1106 -33 c103 -27 170 -134 162 -258 -12 -160 -178 -515 -376 -805 -82 -119
-361 -414 -497 -526 -30 -25 -64 -53 -75 -63 -98 -89 -270 -162 -435 -184 -65
-8 -232 -9 -275 -1 -135 26 -188 62 -242 165 -46 88 -48 113 -12 181 52 95
276 412 382 539 199 240 493 520 733 700 16 12 50 37 75 56 122 92 311 188
395 202 21 3 39 7 41 8 5 6 78 -3 124 -14z"/>
<path d="M5702 6928 c-41 -44 -91 -155 -98 -222 -6 -54 9 -126 26 -126 5 0 15
-6 22 -14 8 -7 35 -18 60 -23 56 -12 111 4 144 42 23 27 38 94 28 135 -3 14
-8 39 -11 55 -7 41 -51 135 -76 163 -28 31 -58 28 -95 -10z m78 -35 c58 -71
83 -228 46 -286 -37 -55 -123 -51 -176 10 -24 27 -28 40 -25 72 7 71 88 241
114 241 5 0 24 -17 41 -37z"/>
<path d="M8887 6338 c-11 -41 140 -167 328 -275 97 -56 245 -133 245 -127 0 2
14 -2 30 -11 52 -27 33 0 -37 51 -86 63 -167 128 -244 195 -34 30 -78 69 -99
86 -103 90 -211 129 -223 81z"/>
<path d="M13415 5842 c-138 -16 -361 -96 -570 -203 -135 -69 -310 -173 -390
-231 -136 -100 -262 -194 -271 -202 -6 -6 -37 -33 -69 -61 -80 -68 -162 -151
-215 -215 -25 -30 -47 -57 -50 -60 -22 -20 -76 -121 -95 -176 -24 -70 -31
-123 -26 -227 2 -74 141 -183 258 -205 261 -47 749 117 1155 389 66 43 121 79
124 79 9 0 58 49 53 54 -5 5 -71 -27 -129 -63 -44 -27 -292 -151 -345 -173
-118 -48 -288 -96 -398 -113 -234 -36 -333 -33 -414 13 -28 15 -30 59 -8 123
23 64 35 70 103 49 55 -17 185 -20 251 -6 47 10 206 59 216 65 6 4 42 20 80
36 491 199 959 547 1094 813 29 58 41 126 29 169 -30 110 -185 169 -383 145z
m45 -128 c65 -20 110 -64 110 -106 0 -70 -122 -254 -232 -351 -76 -67 -393
-277 -418 -277 -5 0 -10 -4 -10 -10 0 -5 -4 -10 -10 -10 -5 0 -33 -15 -62 -33
-118 -75 -339 -176 -442 -203 -93 -24 -95 -25 -193 -30 -89 -6 -93 -5 -93 14
0 22 48 89 170 237 35 42 275 283 330 331 25 21 68 57 95 79 27 22 53 45 59
50 74 71 297 225 392 271 124 60 205 70 304 38z"/>
<path d="M3985 5811 c-34 -9 -88 -27 -120 -41 -69 -28 -308 -150 -315 -160 -3
-3 -13 -9 -23 -13 -20 -7 -389 -237 -397 -247 -3 -3 -34 -25 -70 -49 -36 -24
-66 -48 -68 -53 -2 -4 -8 -8 -13 -8 -5 0 -60 -40 -122 -89 -181 -143 -310
-296 -391 -461 -35 -73 -41 -94 -41 -151 0 -53 5 -72 25 -102 37 -55 117 -103
205 -123 90 -21 313 -6 440 30 6 2 28 7 50 11 49 11 47 10 65 18 8 3 49 17 90
31 274 90 633 270 775 388 11 9 72 58 135 108 63 51 120 97 125 104 6 6 30 27
55 46 25 19 50 39 56 45 6 5 28 24 49 40 20 17 42 35 49 40 40 36 98 77 102
72 4 -4 -38 -65 -182 -262 -8 -11 -57 -81 -109 -155 -119 -170 -204 -276 -303
-380 -103 -110 -104 -112 -50 -105 83 10 144 15 273 20 173 7 173 7 180 53 11
60 14 69 51 122 39 56 47 67 149 184 129 150 149 171 365 386 314 313 446 425
575 488 140 69 205 80 242 40 31 -34 39 -69 42 -180 2 -48 28 -33 42 25 7 28
14 61 15 72 4 33 5 139 1 159 -6 32 -47 66 -81 67 -17 1 -42 2 -56 3 -21 1
-74 -10 -169 -35 -16 -4 -97 -45 -155 -78 -108 -61 -297 -222 -533 -450 -34
-33 -17 2 42 88 104 152 156 266 157 351 0 46 -23 80 -56 80 -23 0 -116 -45
-143 -69 -10 -9 -43 -36 -73 -61 -88 -73 -150 -132 -409 -390 -215 -214 -347
-337 -432 -404 -22 -16 -55 -38 -169 -112 -19 -13 -42 -24 -50 -26 -8 -2 -17
-6 -20 -9 -11 -14 -294 -147 -330 -155 -3 0 -14 -4 -25 -8 -73 -28 -104 -38
-191 -61 -134 -34 -172 -39 -295 -40 -97 0 -111 3 -162 29 -125 63 -70 140
139 190 38 10 77 18 85 20 44 7 331 102 394 131 17 7 66 29 110 49 235 103
447 235 645 402 136 114 198 183 235 259 67 136 30 262 -94 318 -60 27 -226
31 -316 8z m192 -156 c37 -16 55 -62 42 -109 -21 -74 -147 -226 -254 -308 -16
-12 -39 -31 -50 -41 -29 -27 -260 -179 -330 -217 -177 -98 -372 -184 -520
-230 -174 -53 -215 -63 -215 -52 0 17 66 111 146 208 185 225 430 447 676 612
121 81 173 109 248 133 67 21 211 23 257 4z"/>
<path d="M8958 5805 c-2 -2 -21 -5 -43 -8 -22 -2 -49 -8 -60 -12 -86 -31 -433
-206 -607 -307 -36 -21 -69 -38 -71 -38 -3 0 -54 -30 -114 -67 -117 -73 -283
-228 -378 -353 -27 -36 -52 -67 -55 -70 -13 -11 -109 -160 -142 -220 -120
-215 -107 -322 48 -399 135 -66 317 -83 499 -46 131 27 318 87 418 135 23 11
46 20 53 20 7 0 14 3 16 8 2 4 43 27 92 52 49 25 151 86 225 135 75 50 166
109 203 130 37 22 68 43 68 47 0 13 -55 -11 -308 -133 -274 -133 -573 -252
-682 -273 -14 -2 -55 -11 -92 -19 -80 -17 -206 -16 -265 3 -23 7 -57 25 -75
40 -31 26 -32 28 -20 66 6 21 25 55 41 75 29 35 33 36 98 37 37 0 79 4 93 7
14 3 36 8 50 11 59 12 271 76 345 104 98 38 232 105 387 193 100 57 147 85
270 162 47 29 217 152 242 174 159 144 206 216 214 332 7 103 -36 162 -141
195 -44 14 -298 29 -309 19z m199 -78 c82 -52 97 -123 48 -222 -52 -108 -262
-300 -500 -459 -311 -208 -625 -342 -870 -372 -27 -4 -53 -8 -57 -11 -18 -10
-5 15 25 48 17 20 46 54 62 74 17 21 35 43 40 49 6 6 25 29 44 51 45 53 235
248 353 360 392 375 600 515 759 509 40 -1 68 -9 96 -27z"/>
<path d="M11600 5798 c-57 -10 -145 -47 -274 -115 -56 -30 -117 -61 -136 -71
-19 -9 -37 -20 -40 -23 -3 -3 -36 -23 -75 -44 -81 -45 -398 -236 -405 -244 -3
-4 -43 -31 -89 -61 -78 -50 -217 -151 -266 -192 -11 -9 -48 -39 -81 -65 -34
-26 -78 -61 -99 -78 -98 -78 -100 -71 -12 46 93 124 101 135 185 255 31 45 65
92 74 105 145 199 198 325 169 402 -21 56 -74 71 -241 71 -182 0 -285 -21
-420 -86 -47 -22 -86 -45 -88 -49 -2 -5 -8 -9 -13 -9 -37 0 -261 -196 -317
-277 -99 -144 -149 -319 -139 -491 6 -113 26 -178 86 -285 24 -43 39 -82 35
-86 -5 -4 -39 -29 -76 -54 -36 -26 -74 -55 -83 -64 -26 -25 -15 -28 180 -49
103 -10 195 -37 195 -57 0 -6 2 -8 5 -5 3 3 18 -7 34 -21 31 -29 152 -91 216
-111 22 -7 45 -15 50 -19 6 -3 16 -6 22 -7 7 -1 32 -5 55 -9 l43 -6 -25 20
c-14 11 -29 21 -35 22 -5 0 -20 2 -32 3 -32 4 -97 52 -149 109 -56 63 -61 101
-19 172 53 89 234 271 420 420 27 22 57 47 66 55 79 71 444 333 535 384 16 9
41 24 56 34 147 95 386 222 415 222 38 0 46 -15 33 -56 -19 -57 -115 -201
-216 -323 -203 -245 -406 -507 -462 -596 -96 -150 -95 -217 2 -264 108 -51
396 10 634 136 158 83 364 246 347 274 -11 17 -39 4 -238 -115 -76 -45 -215
-109 -312 -145 -23 -9 -108 -6 -124 4 -20 12 -10 62 20 99 5 6 30 38 56 71 50
64 155 187 188 220 11 12 49 54 85 95 35 41 67 77 71 80 23 19 221 259 268
324 92 128 165 289 154 345 -16 92 -101 132 -233 109z m-1341 -107 c11 -7 10
-17 -9 -57 -40 -83 -224 -387 -273 -449 -4 -5 -44 -64 -90 -130 -177 -258
-309 -417 -328 -398 -4 4 -17 55 -29 113 -40 193 -14 361 76 499 110 169 448
398 634 430 3 0 11 -3 19 -8z"/>
<path d="M5759 5315 c-34 -18 -51 -64 -39 -105 11 -38 51 -110 62 -110 33 0
92 148 76 190 -16 43 -51 51 -99 25z m50 -24 c17 -11 11 -106 -8 -124 -20 -19
-40 18 -37 67 4 61 15 76 45 57z"/>
<path d="M6040 5188 c-66 -18 -140 -88 -140 -131 0 -46 76 -51 158 -11 73 36
114 104 80 131 -21 17 -61 21 -98 11z m63 -37 c30 -30 -42 -83 -130 -97 -54
-8 -57 9 -10 53 57 56 111 73 140 44z"/>
<path d="M5514 5158 c-51 -24 -48 -80 6 -118 58 -42 171 -36 170 9 -1 22 -38
62 -85 91 -46 29 -62 32 -91 18z m123 -85 c13 -14 20 -30 17 -34 -6 -11 -63
-2 -81 13 -7 6 -13 7 -13 2 0 -4 -11 3 -25 16 -14 13 -25 29 -25 36 0 34 89
11 127 -33z"/>
<path d="M5124 4907 c-77 -42 -44 -157 45 -157 25 0 70 37 82 67 22 60 -67
123 -127 90z m80 -53 c14 -37 -7 -73 -43 -74 -37 -1 -70 71 -38 83 28 12 75 7
81 -9z"/>
<path d="M5503 4900 c-72 -32 -83 -98 -21 -124 61 -26 144 2 188 64 l21 29
-21 21 c-11 11 -28 21 -37 21 -10 1 -34 3 -53 5 -19 2 -54 -5 -77 -16z m137
-41 c0 -13 -90 -69 -110 -69 -24 0 -61 42 -51 58 15 25 161 34 161 11z"/>
<path d="M5965 4891 c-37 -7 -43 -36 -19 -83 33 -63 76 -82 137 -59 75 29 75
122 0 136 -10 2 -18 4 -18 5 0 5 -75 5 -100 1z m104 -35 c44 -23 55 -41 36
-60 -38 -38 -107 -25 -132 24 -11 21 -10 27 4 38 22 16 58 15 92 -2z"/>
<path d="M5769 4822 c-47 -54 -64 -116 -48 -176 11 -40 39 -51 83 -32 39 16
51 31 64 76 17 63 -20 160 -61 160 -7 0 -25 -12 -38 -28z m79 -94 c2 -72 -88
-127 -104 -64 -10 42 20 127 55 153 13 10 19 6 32 -20 9 -18 17 -49 17 -69z"/>
<path d="M5372 4564 c-17 -11 -22 -25 -22 -58 0 -66 35 -88 66 -41 26 40 28
92 5 105 -25 13 -22 13 -49 -6z m39 -43 c-11 -20 -41 -36 -41 -22 0 23 14 41
31 41 16 0 18 -3 10 -19z"/>
<path d="M5500 4492 c-69 -31 -74 -72 -9 -72 50 0 85 30 69 60 -11 20 -32 24
-60 12z"/>
<path d="M5200 4461 c-13 -25 -5 -46 25 -59 31 -14 81 2 88 29 11 43 -91 70
-113 30z m76 -26 c1 -8 -5 -15 -15 -15 -26 0 -32 10 -20 32 12 22 31 12 35
-17z"/>
<path d="M5221 4344 c-53 -44 -36 -66 47 -60 45 4 51 0 57 -36 7 -34 44 -60
74 -53 32 8 30 6 34 36 6 36 -28 79 -63 79 -23 0 -33 7 -45 30 -20 39 -61 40
-104 4z m79 0 c0 -8 -32 -33 -42 -34 -16 0 -7 29 10 33 27 7 32 7 32 1z m88
-97 c2 -15 -1 -27 -6 -27 -17 0 -34 29 -28 46 9 23 31 11 34 -19z"/>
<path d="M5449 4368 c-14 -47 12 -76 74 -84 l47 -7 0 31 c0 24 -6 33 -34 46
-29 13 -84 22 -87 14z m65 -24 c20 -8 21 -30 1 -38 -17 -6 -48 21 -40 35 7 11
17 11 39 3z"/>
</g>
</svg>
